<svg xmlns="http://www.w3.org/2000/svg" width="167" height="167" viewBox="0 0 167 167">
  <g id="Grupo_894794" data-name="Grupo 894794" transform="translate(-1137 -3100.332)">
    <circle id="Elipse_6351" data-name="Elipse 6351" cx="83.5" cy="83.5" r="83.5" transform="translate(1137 3100.332)" fill="#fff"/>
    <g id="Grupo_894663" data-name="Grupo 894663" transform="translate(1729.67 5846.233)">
      <path id="Trazado_625251" data-name="Trazado 625251" d="M-549.824-2697.262a5.114,5.114,0,0,1,2.516-.2,1.785,1.785,0,0,0,1.631-.783,68.3,68.3,0,0,1,9.066-10.068,61.612,61.612,0,0,1,11.841-8.567,50.538,50.538,0,0,1,15.206-5.489,42.287,42.287,0,0,1,19.529.8,42.43,42.43,0,0,1,14.837,7.481,44.647,44.647,0,0,1,11.2,13.117,66.232,66.232,0,0,1,7.29,21.136c.582,3.185.834,6.431,1.1,9.67.376,4.612.221,9.22.173,13.826a103.311,103.311,0,0,1-1.653,16.948,66,66,0,0,1-6.155,19.346c-3.522,6.727-8.345,12.236-15.338,15.556a32.043,32.043,0,0,1-10.087,2.676c-6.041.722-11.463-1.47-16.9-3.451-8.3-3.021-16.526-6.27-25.281-7.767a61.738,61.738,0,0,0-11.267-1.073,22.424,22.424,0,0,1-10.443-2.017,18.169,18.169,0,0,1-7.669-7.3,35.27,35.27,0,0,1-4.328-14.364,63.681,63.681,0,0,1-.153-10.634,83.026,83.026,0,0,1,3.254-17.934,101.863,101.863,0,0,1,6.847-17.5,65.267,65.267,0,0,1,3.929-7.044,4.747,4.747,0,0,0,.364-.9c.342-.152.539.1.734.291,1.616,1.563,3.077,3.273,4.569,4.95.945,1.063.868,1.385-.236,2.3-1.576,1.3-3.2,2.546-4.777,3.84-2.034,1.666-2.06,2.84-.054,4.561,1.519,1.3,3.124,2.5,4.676,3.769,1.322,1.076,1.377,1.362.218,2.653-1.8,2-3.657,3.959-5.424,6a3.088,3.088,0,0,0-.884,1.712,2.2,2.2,0,0,0,1.754,2.323,7.929,7.929,0,0,0,1.589.071h76.128c.164,0-.041,0,.123,0,1.211.024,2.427.034,3.031-1.314s-.209-2.237-1.008-3.151q-2.259-2.581-4.614-5.076a9.687,9.687,0,0,1-.723-.833c-.785-1.053-.77-1.29.207-2.134,1.392-1.2,2.875-2.292,4.3-3.452,2.726-2.216,2.725-3.391.018-5.568-1.4-1.127-2.821-2.23-4.206-3.377-1.136-.94-1.2-1.269-.2-2.4,1.162-1.315,2.322-2.635,3.548-3.892.8-.821,1.513-1.717,2.256-2.585a2.139,2.139,0,0,0,.44-2.39,2.19,2.19,0,0,0-2.131-1.37c-.531-.011-1.062-.011-1.593-.011q-37.512,0-75.024-.011C-548.356-2696.881-549.172-2696.645-549.824-2697.262Z" transform="translate(0)" fill="#eee"/>
      <path id="Trazado_625252" data-name="Trazado 625252" d="M-523.362-2644.2q18.143,0,36.287.009,21.026,0,42.051-.014c1.337,0,2.461.27,3.024,1.583s-.017,2.335-.917,3.3c-2.14,2.3-4.233,4.645-6.378,7.008,2.069,1.657,4.08,3.253,6.073,4.871,1.944,1.578,1.934,3.243-.029,4.843-1.583,1.29-3.188,2.552-4.784,3.825-1.265,1.009-1.27,1.012-.219,2.171,1.812,2,3.612,4.006,5.451,5.977a2.769,2.769,0,0,1,.789,3.219c-.557,1.241-1.633,1.543-2.931,1.542q-38.679-.027-77.359,0c-1.3,0-2.378-.292-2.939-1.531-.587-1.3-.052-2.333.862-3.309,1.982-2.118,3.893-4.3,5.871-6.424.483-.518.45-.755-.114-1.187-1.88-1.44-3.717-2.936-5.551-4.435-1.765-1.442-1.759-3.147.022-4.6,2.025-1.652,4.075-3.272,6.207-4.981l-5.916-6.393c-.2-.25-.389-.509-.6-.746C-526.177-2641.377-525.75-2643.216-523.362-2644.2Z" transform="translate(-26.463 -53.067)"/>
      <path id="Trazado_625253" data-name="Trazado 625253" d="M-373.239-2495.4c0,3.146-.029,6.293.02,9.438.012.808-.21,1.05-1.009,1a24.879,24.879,0,0,0-3.307,0c-.8.056-.941-.252-.919-.968.05-1.674-.013-3.351.03-5.025.018-.7-.1-1-.916-1.012-2.594-.028-2.594-.067-2.594,2.5,0,1.226-.033,2.453.013,3.677.025.651-.193.865-.833.818a31.635,31.635,0,0,1-4.365-.149c-.027-1.381-.073-2.762-.076-4.144-.009-5.189.018-10.378-.024-15.567-.007-.873.249-1.125,1.095-1.071a29.912,29.912,0,0,0,3.308,0c.7-.033.908.208.9.9-.039,2.288.019,4.577-.034,6.864-.018.77.214.944.958.944,2.557,0,2.557.032,2.557-2.525,0-1.757.024-3.514-.013-5.271-.013-.645.1-.96.849-.918a30.691,30.691,0,0,0,3.431,0c.752-.043.964.175.952.94C-373.266-2501.771-373.239-2498.584-373.239-2495.4Z" transform="translate(-119.427 -146.039)"/>
      <path id="Trazado_625254" data-name="Trazado 625254" d="M-440.371-2483.938c0-2.737-.008-5.474,0-8.211.009-2.105.974-3.073,3.066-3.09,1.266-.01,2.533-.016,3.8,0a6.961,6.961,0,0,1,7.09,6.781,7.015,7.015,0,0,1-6.734,7.164c-1.991.129-1.991.129-1.991,2.113,0,1.307-.052,2.617.019,3.92.044.8-.249.963-.972.926a33.84,33.84,0,0,0-3.43,0c-.724.037-.872-.24-.865-.905C-440.353-2478.138-440.371-2481.038-440.371-2483.938Z" transform="translate(-83.685 -153.203)"/>
      <path id="Trazado_625255" data-name="Trazado 625255" d="M-530.9-2442.217a5.154,5.154,0,0,1-5.245-5.128,5.219,5.219,0,0,1,5.313-5.208,5.179,5.179,0,0,1,5.192,5.215A5.121,5.121,0,0,1-530.9-2442.217Z" transform="translate(-19.311 -181.906)" fill="#a3aec0"/>
      <path id="Trazado_625256" data-name="Trazado 625256" d="M-359.131-2628.248c-1.53,1.679-2.94,3.207-4.329,4.756-1.492,1.664-1.374,3.076.363,4.483,1.682,1.362,3.359,2.73,5.072,4.05.581.448.6.69,0,1.146-1.779,1.37-3.522,2.786-5.259,4.207a2.6,2.6,0,0,0-.341,4.139c1.43,1.621,2.906,3.2,4.358,4.794-.252.422-.616.232-.9.232-9.478.012-18.956,0-28.434.03-.878,0-1.171-.157-1.167-1.115.043-8.578.028-17.157.02-25.735,0-.646-.067-1.117.911-1.113,9.723.043,19.446.027,29.169.03A4.39,4.39,0,0,1-359.131-2628.248Z" transform="translate(-117.715 -63.706)" fill="#f2f2f0"/>
      <path id="Trazado_625257" data-name="Trazado 625257" d="M-494.086-2628.283q12.617-.018,25.234-.049c.67,0,.816.257.815.863q-.02,13.107,0,26.214c0,.6-.143.867-.814.864q-12.617-.047-25.234-.049c-.037-.737.556-1.055,1.008-1.423,1.169-.953,2.3-1.946,3.482-2.886.978-.779.986-1.01.058-1.769-2.618-2.142-5.187-4.341-7.809-6.479-1.4-1.139-1.4-1.591,0-2.729,2.621-2.138,5.191-4.337,7.809-6.479.927-.759.92-.989-.058-1.769-1.179-.94-2.313-1.934-3.482-2.886C-493.529-2627.228-494.122-2627.547-494.086-2628.283Z" transform="translate(-44.689 -63.735)" fill="#2fde83"/>
      <path id="Trazado_625258" data-name="Trazado 625258" d="M-497.728-2628.181a35.317,35.317,0,0,0,4.6,3.978c1.345,1.086,1.34,1.384-.009,2.479-2.713,2.2-5.386,4.452-8.1,6.654-.726.59-.727,1.031,0,1.621,2.712,2.2,5.385,4.453,8.1,6.654,1.35,1.1,1.355,1.393.01,2.479a35.14,35.14,0,0,0-4.6,3.979h-4.282c-.159-.478.264-.651.483-.895,1.224-1.368,2.5-2.694,3.706-4.074a2.684,2.684,0,0,0-.379-4.25c-1.712-1.384-3.431-2.762-5.173-4.108-.577-.446-.589-.739,0-1.19,1.71-1.321,3.391-2.681,5.077-4.034,1.65-1.325,1.8-2.843.395-4.415s-2.831-3.113-4.439-4.876Z" transform="translate(-41.047 -63.837)" fill="#00b771"/>
      <path id="Trazado_625259" data-name="Trazado 625259" d="M-424.42-2477.766c.189-.6-.583-1.815,1.1-1.695,1.542.111,2.439.691,2.41,1.832-.028,1.087-.881,1.7-2.375,1.708C-424.42-2475.914-424.42-2475.914-424.42-2477.766Z" transform="translate(-94.406 -163.811)" fill="#eaeaea"/>
      <path id="Trazado_625260" data-name="Trazado 625260" d="M-522.012-2440.329a1.77,1.77,0,0,1-1.84,1.734,1.844,1.844,0,0,1-1.7-1.617,1.844,1.844,0,0,1,1.789-1.818A1.783,1.783,0,0,1-522.012-2440.329Z" transform="translate(-26.428 -188.98)" fill="#ededee"/>
    </g>
  </g>
</svg>
