<svg xmlns="http://www.w3.org/2000/svg" xmlns:xlink="http://www.w3.org/1999/xlink" width="146" height="147" viewBox="0 0 146 147">
  <defs>
    <clipPath id="clip-path">
      <ellipse id="Elipse_156" data-name="Elipse 156" cx="73" cy="73.5" rx="73" ry="73.5" transform="translate(-0.084 -0.274)" fill="#fff" stroke="#707070" stroke-width="1"/>
    </clipPath>
  </defs>
  <g id="Grupo_894467" data-name="Grupo 894467" transform="translate(0.084 0.274)">
    <g id="Enmascarar_grupo_16" data-name="Enmascarar grupo 16" transform="translate(0 0)" clip-path="url(#clip-path)">
      <rect id="_95da3c9cb84d7a8c336853e8faf60a4e" data-name="95da3c9cb84d7a8c336853e8faf60a4e" width="157.338" height="174.997" transform="translate(-11.425 -13.667)" fill="#f3f9ff"/>
    </g>
    <g id="Grupo_894657" data-name="Grupo 894657" transform="translate(-1912.154 2536.699)">
      <path id="Trazado_625128" data-name="Trazado 625128" d="M1982.9-2474.452a3.672,3.672,0,0,0-.9-3.62,27.573,27.573,0,0,1-2.171-2.685,11.114,11.114,0,0,1-.008-13.959c1.095-1.418,2.223-2.811,3.354-4.2,1.224-1.5,2.5-1.525,3.7-.055,1.188,1.453,2.376,2.908,3.511,4.4a11.128,11.128,0,0,1,0,13.657,24.9,24.9,0,0,1-2.085,2.59,3.859,3.859,0,0,0-1.091,3.9c2.833-3.261,6.595-3.174,10.37-3.081,1.707.042,3.415.007,5.122.007.256,0,.513-.013.768,0a2.005,2.005,0,0,1,1.6,3.308c-2.135,2.77-4.3,5.524-6.6,8.158a8.615,8.615,0,0,1-6.484,2.861c-1.322.04-2.647.047-3.969,0-.69-.025-.935.13-.944.889-.04,3.225-.07,3.225,3.2,3.225q14.726,0,29.451,0a5.927,5.927,0,0,1,5.546,3.25,5.78,5.78,0,0,1-.3,6.3,5.957,5.957,0,0,1-5.712,2.724c-1.125-.081-1.467.209-1.462,1.41q.076,19.145.021,38.291a30.3,30.3,0,0,0,1.255,8.822c1.748,5.847-2.071,10.918-8.191,10.922q-25.865.017-51.732,0c-6.039,0-9.862-5.077-8.151-10.851a31.373,31.373,0,0,0,1.272-9.077q-.044-19.081.019-38.163c0-1.148-.293-1.387-1.389-1.363-3.316.073-5.695-1.53-6.55-4.247a6.15,6.15,0,0,1,6.072-8.013q15.43-.029,30.86-.006c1.713,0,1.713,0,1.713-1.749,0-2.35,0-2.333-2.391-2.358a21.675,21.675,0,0,1-3.955-.164,9.276,9.276,0,0,1-5.6-3.306c-1.969-2.412-3.9-4.858-5.846-7.287a2.092,2.092,0,0,1-.452-2.358,2.131,2.131,0,0,1,2.186-1.229c2.39.018,4.784.082,7.17-.013C1977.43-2477.645,1980.46-2477.057,1982.9-2474.452Z" transform="translate(0 -15.697)"/>
      <path id="Trazado_625129" data-name="Trazado 625129" d="M2141.611-2475.88c0-1.319-.024-2.639.007-3.958a2.036,2.036,0,0,1,2.009-2.181,2.014,2.014,0,0,1,2.068,2.121q.053,4.02,0,8.042a2.016,2.016,0,0,1-2.07,2.119,2.044,2.044,0,0,1-2.006-2.186C2141.587-2473.241,2141.611-2474.561,2141.611-2475.88Z" transform="translate(-129.915 -27.562)"/>
      <path id="Trazado_625130" data-name="Trazado 625130" d="M2099.722-2520.842c0-2.1.614-3.049,2-3.083,1.428-.036,2.1.962,2.1,3.112,0,.085,0,.17,0,.255-.006,1.817-.723,2.778-2.064,2.768s-2.03-.961-2.035-2.8Z" transform="translate(-102.372)" fill="#010101"/>
      <path id="Trazado_625131" data-name="Trazado 625131" d="M2084.844-2501.885c-2.087,0-3.04-.632-3.056-2.028s.958-2.07,3.01-2.071c2.161,0,3.152.662,3.122,2.089C2087.891-2502.509,2086.936-2501.885,2084.844-2501.885Z" transform="translate(-90.577 -11.8)" fill="#010101"/>
      <path id="Trazado_625132" data-name="Trazado 625132" d="M2114.78-2501.885c-2.092,0-3.042-.626-3.063-2.021s.956-2.078,3-2.079c2.166,0,3.154.656,3.129,2.082C2117.824-2502.514,2116.867-2501.885,2114.78-2501.885Z" transform="translate(-110.26 -11.8)" fill="#010101"/>
      <path id="Trazado_625133" data-name="Trazado 625133" d="M2103.786-2490.849c0,.34.025.682,0,1.019a2.044,2.044,0,0,1-2.083,1.973,2.027,2.027,0,0,1-1.986-1.936,18.189,18.189,0,0,1-.014-1.91,2.068,2.068,0,0,1,2.026-2.289,2.071,2.071,0,0,1,2.067,2.251c.011.3,0,.594,0,.892Z" transform="translate(-102.344 -19.688)" fill="#010101"/>
      <path id="Trazado_625134" data-name="Trazado 625134" d="M1984.106-2473c0,2.141-.685,3.148-2.111,3.1-1.379-.043-1.988-.991-1.988-3.1,0-2.074.647-3.035,2.045-3.038S1984.106-2475.068,1984.106-2473Z" transform="translate(-23.638 -31.5)" fill="#010101"/>
      <path id="Trazado_625135" data-name="Trazado 625135" d="M1965.14-2458.093c2.088,0,3.043.629,3.063,2.02s-.962,2.079-3.006,2.08c-2.162,0-3.151-.659-3.126-2.086C1962.1-2457.472,1963.042-2458.093,1965.14-2458.093Z" transform="translate(-11.842 -43.298)" fill="#010101"/>
      <path id="Trazado_625136" data-name="Trazado 625136" d="M1995.03-2454.006c-.17,0-.34,0-.51,0-1.6-.018-2.523-.772-2.519-2.055s.922-2.028,2.528-2.043c.467,0,.935-.015,1.4,0a2.063,2.063,0,0,1,2.2,1.985,2.069,2.069,0,0,1-2.212,2.108C1995.625-2454,1995.327-2454.006,1995.03-2454.006Z" transform="translate(-31.526 -43.285)" fill="#010101"/>
      <path id="Trazado_625137" data-name="Trazado 625137" d="M1984.106-2443.013c0,2.073-.648,3.039-2.042,3.045s-2.057-.961-2.057-3.028c0-2.148.675-3.146,2.1-3.106C1983.494-2446.064,1984.106-2445.115,1984.106-2443.013Z" transform="translate(-23.638 -51.183)" fill="#010101"/>
      <path id="Trazado_625138" data-name="Trazado 625138" d="M2141.623-2437c0-2.151.671-3.147,2.1-3.111,1.385.035,2,.984,2,3.084,0,2.076-.645,3.041-2.037,3.05S2141.624-2434.946,2141.623-2437Z" transform="translate(-129.929 -55.12)" fill="#010101"/>
      <path id="Trazado_625139" data-name="Trazado 625139" d="M2145.722-2407.136c0,2.1-.616,3.052-2,3.09-1.425.039-2.1-.963-2.1-3.11v-.255c.005-1.826.712-2.776,2.059-2.769s2.036.951,2.041,2.79Z" transform="translate(-129.929 -74.808)" fill="#010101"/>
      <path id="Trazado_625140" data-name="Trazado 625140" d="M2005.5-2344.4c9.089,0,18.178.018,27.267-.024,1.06,0,1.414.163,1.409,1.347-.054,12.76-.016,25.52-.045,38.281a33.37,33.37,0,0,0,1.434,10.079c.984,3.166-.9,5.644-4.235,5.646q-25.923.012-51.845,0a4.09,4.09,0,0,1-4.151-5.606,33.352,33.352,0,0,0,1.446-10.078c-.026-12.8,0-25.605-.032-38.408,0-.972.2-1.265,1.23-1.26C1987.15-2344.38,1996.324-2344.4,2005.5-2344.4Z" transform="translate(-20.398 -118.054)" fill="#e5e4df"/>
      <path id="Trazado_625141" data-name="Trazado 625141" d="M1993-2364.212h-33.914a5.865,5.865,0,0,1-1.276-.043,1.941,1.941,0,0,1-1.685-2.087,1.934,1.934,0,0,1,1.719-1.93,5.875,5.875,0,0,1,1.148-.037h67.955a9.4,9.4,0,0,1,1.023.016,2.046,2.046,0,0,1,1.889,2.049,2.043,2.043,0,0,1-1.924,2.018,11.446,11.446,0,0,1-1.151.015Z" transform="translate(-7.932 -102.339)" fill="#d5d4cf"/>
      <path id="Trazado_625142" data-name="Trazado 625142" d="M2053.392-2477.085c-.089-2.768,1.666-4.627,3.258-6.57.209-.254.381-.275.606-.014,2.068,2.4,3.971,4.836,3.046,8.343-.511,1.938-1.866,3.31-3.04,4.812-.2.259-.386.275-.605.008C2055.066-2472.45,2053.309-2474.309,2053.392-2477.085Z" transform="translate(-71.899 -26.354)" fill="#57a765"/>
      <path id="Trazado_625143" data-name="Trazado 625143" d="M2023.223-2422.115c6.609-.4,8.918-.448,10.7,5.91C2028.753-2415.436,2026.042-2416.934,2023.223-2422.115Z" transform="translate(-52.06 -66.862)" fill="#57a764"/>
      <path id="Trazado_625144" data-name="Trazado 625144" d="M2083.849-2422.161c-2.512,4.137-5.372,7.4-10.786,5.886a16.2,16.2,0,0,1,1.492-3.511,4.832,4.832,0,0,1,3.78-2.342C2080.142-2422.271,2081.969-2422.161,2083.849-2422.161Z" transform="translate(-84.839 -66.903)" fill="#57a764"/>
      <path id="Trazado_625145" data-name="Trazado 625145" d="M1997.98-2309.943a22.546,22.546,0,0,1,22.642-22.43,22.544,22.544,0,0,1,22.427,22.773,22.579,22.579,0,0,1-22.643,22.311A22.583,22.583,0,0,1,1997.98-2309.943Z" transform="translate(-35.459 -125.98)"/>
      <path id="Trazado_625146" data-name="Trazado 625146" d="M2030.777-2305.681c-1.451-4.465-5.014-5.542-9.038-5.954-1.608-.165-3.2-.458-4.8-.709-2.156-.34-3.3.929-2.663,2.989.491,1.586.991,3.17,1.54,4.736a7.95,7.95,0,0,0,6.58,5.539,19.467,19.467,0,0,0,2.649.414c1.039.032,1.376.42,1.309,1.458-.093,1.445-.057,2.9-.009,4.351.023.7-.166.95-.91.943-3.839-.036-7.68-.05-11.519.01-.819.013-1.114-.408-1.449-.972a18.4,18.4,0,0,1,6.439-25.109c6.272-3.632,12.735-3.71,18.946.028,6.259,3.768,9.17,9.561,8.926,16.857a17.606,17.606,0,0,1-2.552,8.352,1.411,1.411,0,0,1-1.4.838c-3.8-.043-7.594-.017-11.391-.025-.467,0-1.133.2-1-.676.1-.689-.476-1.689.886-1.824,1.271-.125,2.534-.342,3.793-.561a7.856,7.856,0,0,0,6.293-5.022,55.968,55.968,0,0,0,1.8-5.455c.517-1.789-.517-3.043-2.32-2.812-2.281.292-4.554.664-6.819,1.065A8.182,8.182,0,0,0,2030.777-2305.681Z" transform="translate(-43.32 -133.635)" fill="#ebaa2c"/>
      <path id="Trazado_625147" data-name="Trazado 625147" d="M2053.621-2224.36c-7.135,5.73-17.11,4.839-22.621,0Z" transform="translate(-57.175 -197.019)" fill="#a7652f"/>
      <path id="Trazado_625148" data-name="Trazado 625148" d="M2044.166-2277.751c-1.11-.165-2.08-.275-3.037-.457a4.725,4.725,0,0,1-4.068-4.135c-.123-.656.194-.621.611-.553,1.38.223,2.768.409,4.136.694a3.727,3.727,0,0,1,3.038,3.728C2044.86-2277.844,2044.654-2277.588,2044.166-2277.751Z" transform="translate(-61.144 -158.497)" fill="#56a764"/>
      <path id="Trazado_625149" data-name="Trazado 625149" d="M2072.891-2265.791c.791-4.194,2.641-4.725,6.694-4.955C2078.991-2267.115,2077.493-2265.989,2072.891-2265.791Z" transform="translate(-84.726 -166.511)" fill="#56a764"/>
    </g>
  </g>
</svg>
