<svg xmlns="http://www.w3.org/2000/svg" xmlns:xlink="http://www.w3.org/1999/xlink" width="145" height="147" viewBox="0 0 145 147">
  <defs>
    <clipPath id="clip-path">
      <ellipse id="Elipse_156" data-name="Elipse 156" cx="72.5" cy="73.5" rx="72.5" ry="73.5" transform="translate(0.499 -0.274)" fill="#fff" stroke="#707070" stroke-width="1"/>
    </clipPath>
  </defs>
  <g id="Grupo_894791" data-name="Grupo 894791" transform="translate(-517 -3952)">
    <g id="Grupo_894479" data-name="Grupo 894479" transform="translate(516.501 3952.273)">
      <g id="Enmascarar_grupo_16" data-name="Enmascarar grupo 16" transform="translate(0 0)" clip-path="url(#clip-path)">
        <rect id="_95da3c9cb84d7a8c336853e8faf60a4e" data-name="95da3c9cb84d7a8c336853e8faf60a4e" width="157.338" height="174.997" transform="translate(-11.837 -13.667)" fill="#f3f9ff"/>
      </g>
    </g>
    <g id="Grupo_894658" data-name="Grupo 894658" transform="translate(-1780.864 6944.284)">
      <path id="Trazado_625150" data-name="Trazado 625150" d="M2348.565-2978.912c2.776,1.58,3.322,4.358,3.778,7.148a22.348,22.348,0,0,1,.066,6.774c-.078.544.112.679.61.786a6.129,6.129,0,0,1,5.169,6.178,6.123,6.123,0,0,1-5.167,6.073c-.766.145-.626.487-.574.98a23.79,23.79,0,0,1-.746,9.484,8.244,8.244,0,0,1-1.5,2.952,3,3,0,0,1-4.59.418c-.391-.333-.543-.359-.954-.007a3.019,3.019,0,0,1-4.728-.578,12.331,12.331,0,0,1-2.069-6.034,21.5,21.5,0,0,1-.03-6.22c.1-.643-.011-.963-.764-.934a3.744,3.744,0,0,1-2.318-.675,4.3,4.3,0,0,0-2.728-.652q-5.184.038-10.369.006a4.9,4.9,0,0,1-5.19-4.81,4.925,4.925,0,0,1,5.182-4.943c3.679-.021,7.359-.014,11.038,0a2.885,2.885,0,0,0,1.771-.485,4.3,4.3,0,0,1,2.4-.8c.886-.006,1.082-.35.962-1.2a21.6,21.6,0,0,1,.534-8.508c.537-2.075,1.313-4.046,3.528-4.958h1.562c.442.23.987.238,1.35.647a.393.393,0,0,0,.656,0c.412-.492,1.039-.445,1.565-.649Z" transform="translate(0 0)"/>
      <path id="Trazado_625151" data-name="Trazado 625151" d="M2410.479-2978.912a5.386,5.386,0,0,0-1.886,1.32,7.921,7.921,0,0,0-1.685-1.32Z" transform="translate(-63.476 0)" fill="#f4f4f4"/>
      <path id="Trazado_625152" data-name="Trazado 625152" d="M2427.018-2800.018c1.209-.876,1.676-.867,2.85.079,1.678,1.354,3.362,2.7,5.022,4.075a2.169,2.169,0,0,0,1.5.542c2.677-.03,5.355-.018,8.033-.012,1.315,0,2.08.6,2.107,1.629.029,1.068-.761,1.715-2.134,1.715q-42.788,0-85.577,0c-1.411,0-2.157-.586-2.159-1.671s.743-1.671,2.154-1.674c2.827,0,5.654-.04,8.479.02a3.415,3.415,0,0,0,2.394-.872c4.632-3.79,9.3-7.533,13.945-11.307a9.952,9.952,0,0,1,3.807-2.005.494.494,0,0,0,.21-.071c1.1-1.013.317-2.3.459-3.456.1-.78-.683-.354-1.014-.344-11.876.348-21.511-7.137-24.014-18.72a22.934,22.934,0,0,1-.2-8.094,1.836,1.836,0,0,1,1.791-1.777c9.649-1.1,17.315,2.266,22.946,10.205.107.151.213.3.324.451.015.02.057.019.2.062,0-1.087-.033-2.145.014-3.2.026-.575-.4-.751-.719-1.029a22.77,22.77,0,0,1-8.354-18.762,22.782,22.782,0,0,1,9.434-17.9,1.926,1.926,0,0,1,2.619.021,23.329,23.329,0,0,1,1.168,36.515,1.906,1.906,0,0,0-.829,1.768c.069.942.016,1.893.016,3.15a23.681,23.681,0,0,1,13.84-10.434c-3.325-6.882-3.608-13.777-.444-20.7a23.337,23.337,0,0,1,30.452-11.607,2.815,2.815,0,0,0,1.91.175,22.321,22.321,0,0,1,8.3-.371c1.468.2,1.851.543,2.071,2.006a22.338,22.338,0,0,1-.358,8.527,2.307,2.307,0,0,0,.167,1.585,23.4,23.4,0,0,1-17.661,32.642,22.46,22.46,0,0,1-12.556-1.493c-.714-.3-.975-.243-1.182.561a19.168,19.168,0,0,1-2.634,5.856c-.393.589-.32.866.29,1.168a12.18,12.18,0,0,1,1.382.942c.1-1.187.6-2.068,1.844-2.01,1.115.053,1.562.867,1.625,2.029a11.054,11.054,0,0,1,5.336-2.4,10.338,10.338,0,0,1,3.1.063c2.1.351,2.56.8,2.886,2.895a10.154,10.154,0,0,1-10.666,11.8c-.279-.014-.77-.278-.683.33.066.462-.422,1.138.475,1.352a9.57,9.57,0,0,1,3.934,2.229c1.146.974,1.255,1.389.671,2.793a1.647,1.647,0,0,1-2.363.467c-.45-.254-.813-.63-1.242-.916a4.64,4.64,0,0,0-6.21-.106c-3.173,2.442-6.242,5.015-9.556,7.688,2.222-.013,4.227.01,6.235-.025,6.151-.072,12.3.038,18.449-.062.03,0,.059-.041.149-.107-.655-.663-1.465-1.145-2.053-1.858A1.574,1.574,0,0,1,2427.018-2800.018Z" transform="translate(-28.218 -72.667)"/>
      <path id="Trazado_625153" data-name="Trazado 625153" d="M2546.231-2634.227a5.8,5.8,0,0,1,.719.507,1.942,1.942,0,0,0,2.787.191,28.8,28.8,0,0,1,3.409,2.731,1.9,1.9,0,0,0,.657,2.619c.8.593,1.549,1.247,2.506,2.025H2536.4c-.028-.454.357-.627.624-.847,2.8-2.3,5.631-4.545,8.422-6.848A1.69,1.69,0,0,1,2546.231-2634.227Z" transform="translate(-154.345 -241.887)" fill="#febc85"/>
      <path id="Trazado_625154" data-name="Trazado 625154" d="M2408.467-2918.6a2.766,2.766,0,0,1,2.219,3.115,2.76,2.76,0,0,1-2.69,2.5c-3.567.028-7.135-.014-10.7-.027a4.035,4.035,0,0,1-.468-5.245,1.08,1.08,0,0,1,.862-.432C2401.281-2918.646,2404.875-2918.823,2408.467-2918.6Z" transform="translate(-55.869 -42.243)" fill="#6d61b5"/>
      <path id="Trazado_625155" data-name="Trazado 625155" d="M2333.992-2911.3c-1.522,0-3.044.014-4.566-.006a1.581,1.581,0,0,1-1.709-1.516,1.5,1.5,0,0,1,1.581-1.545c3.155-.053,6.311-.026,9.466-.034.469,0,.808.219.533.658-.479.766.963,2.159-.633,2.394A32.306,32.306,0,0,1,2333.992-2911.3Z" transform="translate(-7.902 -45.274)" fill="#453a83"/>
      <path id="Trazado_625156" data-name="Trazado 625156" d="M2395.56-2918.794c-3.374.006-6.748.042-10.121,0a1.489,1.489,0,0,0-1.584,1.047,4.734,4.734,0,0,0,.531,4.541c-1.334.012-2.668.06-4,.024a2.831,2.831,0,0,1-2.676-2.389,2.885,2.885,0,0,1,1.9-3.162,4.216,4.216,0,0,1,1.307-.221q6.841-.033,13.682-.027A1.393,1.393,0,0,1,2395.56-2918.794Z" transform="translate(-42.962 -42.054)" fill="#54469b"/>
      <path id="Trazado_625157" data-name="Trazado 625157" d="M2417.37-2877.262a7.709,7.709,0,0,1-1.221-3.488,22.645,22.645,0,0,1-.136-6.655c.083-.665.285-.925.952-.846a8.089,8.089,0,0,0,1.224.006c.349-.011.535.093.582.483a19.594,19.594,0,0,1-.9,9.858A.952.952,0,0,1,2417.37-2877.262Z" transform="translate(-69.738 -63.614)" fill="#e8f4fd"/>
      <path id="Trazado_625158" data-name="Trazado 625158" d="M2417.421-2967.086a7.852,7.852,0,0,1,1.233,3.372,23.483,23.483,0,0,1,.176,6.867c-.079.7-.348.815-.971.811-1.774-.012-1.813.019-1.945-1.712a20.757,20.757,0,0,1,.613-7.385A5.52,5.52,0,0,1,2417.421-2967.086Z" transform="translate(-69.738 -8.299)" fill="#e9f5fd"/>
      <path id="Trazado_625159" data-name="Trazado 625159" d="M2400.289-2877.144a7.852,7.852,0,0,1-1.309-3.677,23.754,23.754,0,0,1-.117-6.654c.114-1,.744-.691,1.273-.734.817-.067.546.533.5.909a22.733,22.733,0,0,0,.3,7.637A3.072,3.072,0,0,1,2400.289-2877.144Z" transform="translate(-57.706 -63.642)" fill="#d6eafb"/>
      <path id="Trazado_625160" data-name="Trazado 625160" d="M2400.31-2967.015a3.218,3.218,0,0,1,.6,2.776,22.308,22.308,0,0,0-.277,7.294c.041.338.419.98-.43.935-.552-.029-1.223.31-1.335-.769a22.337,22.337,0,0,1,.513-8.261A4.507,4.507,0,0,1,2400.31-2967.015Z" transform="translate(-57.721 -8.349)" fill="#d6eafc"/>
      <path id="Trazado_625161" data-name="Trazado 625161" d="M2555.247-2835.141c1.388.51,2.023.269,2.7-1.061a14.524,14.524,0,0,0,1.769-7.839,6.531,6.531,0,0,1,1.695-5.237c2.04,4.767,1.018,13.967-5.438,19.883a19.973,19.973,0,0,1-25.971,1.232,20.105,20.105,0,0,1-5.5-25.16,19.985,19.985,0,0,1,23.2-9.9c-1.626.728-2.679,1.921-4.6,1.784-8.518-.608-15.9,5.422-17.868,13.293a17.617,17.617,0,0,0,15.1,21.534,17.532,17.532,0,0,0,11.083-2.487c1.241-.747,1.4-1.281.908-2.695A29,29,0,0,1,2555.247-2835.141Z" transform="translate(-144.389 -80.622)" fill="#54469b"/>
      <path id="Trazado_625162" data-name="Trazado 625162" d="M2577.627-2821.153a10.958,10.958,0,0,1-2.929,3.348,1.983,1.983,0,0,0-2.705-.138,13.239,13.239,0,0,1-9.351,1.9,10.719,10.719,0,0,1-4.587-3.415,16.073,16.073,0,0,1,.614-21.788,9.144,9.144,0,0,1,3.757-2.684,1.184,1.184,0,0,1,.951-.106,25.228,25.228,0,0,0-3.613,5.562,23.458,23.458,0,0,0-2,13.024c.214,1.661.625,2.068,2.457,2.263a23.385,23.385,0,0,0,17.776-5.183c.2-.157.383-.324.729-.618a12.094,12.094,0,0,1-1.43,5.333A1.872,1.872,0,0,0,2577.627-2821.153Z" transform="translate(-166.769 -94.61)" fill="#b2d9fd"/>
      <path id="Trazado_625163" data-name="Trazado 625163" d="M2497-2668.082c.258.827-.073,1.036-.623,1.177a8.888,8.888,0,0,0-3.381,1.868c-1.9,1.551-3.832,3.065-5.7,4.651a.99.99,0,0,1-1.566.018c-2.564-2.147-5.192-4.217-7.785-6.329a10.057,10.057,0,0,0-3.807-2.011c-.317-.083-.752-.033-.717-.623.051-.852.024-1.71.009-2.565-.008-.415.188-.476.551-.447a22.628,22.628,0,0,0,11.876-2.294c.4-.195.552-.11.748.259a9.954,9.954,0,0,0,10.006,5.677C2497.417-2668.744,2496.957-2668.163,2497-2668.082Z" transform="translate(-110.153 -213.457)" fill="#fefefe"/>
      <path id="Trazado_625164" data-name="Trazado 625164" d="M2451.025-2831.491c-1.741-.058-2.231.422-2.233,2.209,0,2.933,0,5.866,0,8.837-7.153-6.2-8.084-19.871,0-27.533v7.083c0,.893,0,1.784,0,2.677.01,1.669.53,2.156,2.232,2.1A7.034,7.034,0,0,0,2451.025-2831.491Z" transform="translate(-88.855 -91.885)" fill="#00c184"/>
      <path id="Trazado_625165" data-name="Trazado 625165" d="M2468.145-2831.172a1.025,1.025,0,0,1-.671-1.1,14.7,14.7,0,0,0,0-2.427,1.028,1.028,0,0,1,.67-1.1,2.052,2.052,0,0,0,1.124-2.112c-.027-3.2-.01-6.393-.01-9.611,6.609,5.6,8.527,19.06,0,27.566v-4.195c0-1.672-.021-3.346.009-5.018A1.977,1.977,0,0,0,2468.145-2831.172Z" transform="translate(-105.976 -92.203)" fill="#1ee5a5"/>
      <path id="Trazado_625166" data-name="Trazado 625166" d="M2449.889-2640.811c1.914,1.218,3.534,2.812,5.333,4.176.975.74,1.87,1.587,2.855,2.311.6.439.454.7-.023,1.072-.881.681-1.742,1.387-2.611,2.083a1.669,1.669,0,0,1-1.1.441q-8.359-.038-16.718-.043c-.087-.529.375-.685.666-.927,3.542-2.931,7.147-5.784,10.713-8.686A1.581,1.581,0,0,1,2449.889-2640.811Z" transform="translate(-85.025 -237.266)" fill="#873f2e"/>
      <path id="Trazado_625167" data-name="Trazado 625167" d="M2577.067-2839.645a19.692,19.692,0,0,1,19.166-19.171Z" transform="translate(-182.887 -84.279)" fill="#00c184"/>
      <path id="Trazado_625168" data-name="Trazado 625168" d="M2605.215-2850.231c.242,10.271-9.224,19.736-19.487,19.485C2586.287-2831.562,2604.412-2849.684,2605.215-2850.231Z" transform="translate(-188.965 -90.303)" fill="#1ee5a5"/>
      <path id="Trazado_625169" data-name="Trazado 625169" d="M2416.143-2733.422l-19.517-19.522a19.611,19.611,0,0,1,11.688,4.065C2413.175-2745.192,2416.3-2738.986,2416.143-2733.422Z" transform="translate(-56.261 -158.576)" fill="#1ee5a5"/>
      <path id="Trazado_625170" data-name="Trazado 625170" d="M2388.281-2743.654l19.17,19.171C2398.973-2723.757,2388.115-2732.211,2388.281-2743.654Z" transform="translate(-50.403 -165.095)" fill="#00c184"/>
      <path id="Trazado_625171" data-name="Trazado 625171" d="M2473.524-2730.829a18.865,18.865,0,0,1,2.072-8.426,19.546,19.546,0,0,1,12.5-10.308,2.4,2.4,0,0,1,2.611,1.51c.07.277-.1.416-.249.567q-8.314,8.3-16.635,16.6C2473.783-2730.843,2473.693-2730.856,2473.524-2730.829Z" transform="translate(-110.225 -160.911)" fill="#00c184"/>
      <path id="Trazado_625172" data-name="Trazado 625172" d="M2553.89-2843.558a20.708,20.708,0,0,0-5.573,5.445,15.891,15.891,0,0,0,.736,18.007,21.307,21.307,0,0,0,5.053,4.435c-5.248-.449-10.176-4.811-11.687-10.346a14.19,14.19,0,0,1,10.81-17.5A4.861,4.861,0,0,1,2553.89-2843.558Z" transform="translate(-158.232 -94.986)" fill="#89c8fd"/>
      <path id="Trazado_625173" data-name="Trazado 625173" d="M2482.259-2718.453c.053-.44.38-.6.605-.831q7.908-7.923,15.838-15.823c.28-.278.534-1.032,1.116-.469s1.78.631,1.43,1.92a21.685,21.685,0,0,1-3.072,6.745,1.2,1.2,0,0,1-1.2.58,9.442,9.442,0,0,0-1.88.119c-2.538.366-3.058.792-3.171,3.395a2.706,2.706,0,0,1-2.034,2.7A21.762,21.762,0,0,1,2482.259-2718.453Z" transform="translate(-116.355 -170.622)" fill="#1ee5a5"/>
      <path id="Trazado_625174" data-name="Trazado 625174" d="M2433.908-2643.336q-6.034,4.889-12.066,9.779a1.375,1.375,0,0,0-.2.261h-6.8c1.871-1.531,3.538-2.908,5.218-4.27,2.244-1.821,4.5-3.626,6.746-5.445A5.747,5.747,0,0,1,2433.908-2643.336Z" transform="translate(-69.043 -234.742)" fill="#6d3326"/>
      <path id="Trazado_625175" data-name="Trazado 625175" d="M2530.295-2637.27l-9.834,8.073h-6.774c1.72-1.4,3.277-2.67,4.839-3.933,1.786-1.445,3.554-2.912,5.371-4.316A4.856,4.856,0,0,1,2530.295-2637.27Z" transform="translate(-138.409 -238.844)" fill="#f5a86c"/>
      <path id="Trazado_625176" data-name="Trazado 625176" d="M2533.514-2686.116c.217.992-.381,1.285-1.381,1.287a6.91,6.91,0,0,1-6.808-6.83c.008-.955.331-1.383,1.358-1.39A6.915,6.915,0,0,1,2533.514-2686.116Z" transform="translate(-146.576 -200.608)" fill="#00c184"/>
      <path id="Trazado_625177" data-name="Trazado 625177" d="M2572.114-2691.434a6.8,6.8,0,0,1-6.855,6.629c-.912-.019-1.295-.305-1.294-1.3a6.863,6.863,0,0,1,6.495-6.9C2571.92-2693.075,2572.146-2692.861,2572.114-2691.434Z" transform="translate(-173.692 -200.632)" fill="#1ee5a5"/>
    </g>
  </g>
</svg>
