<svg xmlns="http://www.w3.org/2000/svg" xmlns:xlink="http://www.w3.org/1999/xlink" width="536.282" height="488.216" viewBox="0 0 536.282 488.216">
  <defs>
    <clipPath id="clip-path">
      <path id="Trazado_624798" data-name="Trazado 624798" d="M376.626,80.75H165.709L60.25,263.407,165.709,446.074H376.626L482.085,263.407Z" transform="translate(916.961 53.314)" fill="#dbefec"/>
    </clipPath>
    <clipPath id="clip-path-2">
      <path id="Trazado_624722" data-name="Trazado 624722" d="M52.68,61.288v367.38h367.38V61.288" transform="translate(-52.68 -61.288)" fill="none"/>
    </clipPath>
    <clipPath id="clip-path-3">
      <rect id="Rectángulo_296677" data-name="Rectángulo 296677" width="68.151" height="57.796" transform="matrix(-0.826, -0.564, 0.564, -0.826, 56.298, 86.151)" fill="none"/>
    </clipPath>
    <clipPath id="clip-path-4">
      <path id="Trazado_624761" data-name="Trazado 624761" d="M425.491,61.288v61.72H357.34v57.8h68.151V428.667H255.136V61.288Z" transform="translate(-255.136 -61.288)" fill="none"/>
    </clipPath>
  </defs>
  <g id="Grupo_894783" data-name="Grupo 894783" transform="translate(13455.727 12415)">
    <g id="BACKGROUND" transform="translate(-13455.167 -12414.515)">
      <path id="Trazado_251609" data-name="Trazado 251609" d="M45.971,197.145H91.934l22.97,39.806-22.97,39.806H45.971L22.99,236.951Zm45.4.97H46.531L24.11,236.951l22.421,38.836H91.374l22.41-38.836Z" transform="translate(-23.55 -18.741)" fill="#28965a" opacity="0.3"/>
      <g id="Grupo_251610" data-name="Grupo 251610" opacity="0.28">
        <path id="Trazado_251610" data-name="Trazado 251610" d="M332.353,28.78H286.961L264.26,68.1l22.7,39.321h45.391l22.7-39.321Z" transform="translate(24.286 -14.136)" fill="#169788"/>
        <path id="Trazado_251610_-_Contorno" data-name="Trazado 251610 - Contorno" d="M286.681,28.295h45.951L355.614,68.1l-22.981,39.806H286.681l-.14-.243L263.7,68.1l.14-.243Zm45.391.97H287.241L264.82,68.1l22.421,38.836h44.831L354.494,68.1Z" transform="translate(24.286 -14.136)" fill="#2ceaa3"/>
      </g>
      <path id="Trazado_251611" data-name="Trazado 251611" d="M431,263.635h45.951l22.982,39.794-22.981,39.806H431L408.02,303.429Zm45.391.97H431.561L409.14,303.429l22.421,38.836h44.831l22.421-38.836Z" transform="translate(35.788 -8.494)" fill="#2ceaa3"/>
      <path id="Trazado_251612" data-name="Trazado 251612" d="M445.973,163.415h23.365l11.683,20.232L469.338,203.89H445.973L434.29,183.647Zm22.805.97H446.533L435.41,183.647l11.123,19.273h22.245L479.9,183.647Z" transform="translate(39.837 -23.939)" fill="#28965a" opacity="0.3"/>
      <path id="Trazado_251613" data-name="Trazado 251613" d="M51.613,314.175H74.978l11.683,20.243L74.978,354.65H51.613L39.93,334.418Zm22.805.97H52.173L41.05,334.418,52.173,353.68H74.418l11.123-19.262Z" transform="translate(-20.939 -0.705)" fill="#2ceaa3"/>
      <g id="Grupo_251614" data-name="Grupo 251614" opacity="0.28">
        <path id="Trazado_251614" data-name="Trazado 251614" d="M196.758,25.29H173.953l-11.4,19.747,11.4,19.758h22.805l11.4-19.758Z" transform="translate(47.083 -25.29)" fill="#169788"/>
        <path id="Trazado_251614_-_Contorno" data-name="Trazado 251614 - Contorno" d="M173.673,24.8h23.365l11.683,20.232L197.038,65.28H173.673L161.99,45.037Zm22.805.97H174.233L163.11,45.037,174.233,64.31h22.245L207.6,45.037Z" transform="translate(47.083 -25.29)" fill="#28965a"/>
      </g>
      <path id="Trazado_251615" data-name="Trazado 251615" d="M310.643,440.525h23.365l11.683,20.232-11.683,20.232H310.643L298.96,460.757Zm22.805.97H311.2L300.08,460.757,311.2,480.019h22.245l11.123-19.262Z" transform="translate(18.981 5.099)" fill="#2ceaa3" opacity="0.5"/>
      <path id="Trazado_251616" data-name="Trazado 251616" d="M221.76,413.725h34.272l17.13,29.684-17.13,29.684H221.76l-17.13-29.684Zm33.712.97H222.32l-16.57,28.714,16.57,28.714h33.152l16.57-28.714Z" transform="translate(4.443 14.637)" fill="#28965a" opacity="0.3"/>
    </g>
    <path id="Trazado_251668" data-name="Trazado 251668" d="M408.738,72.3H169.906L50.49,279.129l119.416,206.84H408.738l119.416-206.84Z" transform="translate(-13474.926 -12452.643)" fill="#169788" opacity="0.5"/>
    <path id="Trazado_251669" data-name="Trazado 251669" d="M394.639,80.75H171.713L60.25,273.807,171.713,466.874H394.639L506.1,273.807Z" transform="translate(-13468.088 -12447.425)" fill="#addbd5"/>
    <path id="Trazado_251769" data-name="Trazado 251769" d="M376.626,80.75H165.709L60.25,263.407,165.709,446.074H376.626L482.085,263.407Z" transform="translate(-13456.372 -12436.686)" fill="#dbefec"/>
    <g id="Enmascarar_grupo_130578" data-name="Enmascarar grupo 130578" transform="translate(-14373.333 -12490)" clip-path="url(#clip-path)">
      <g id="Grupo_894579" data-name="Grupo 894579" transform="translate(13290.333 12571.053)">
        <g id="Grupo_894579-2" data-name="Grupo 894579" transform="translate(-12272.375 -12438.053)" opacity="0.3">
          <g id="Grupo_894585" data-name="Grupo 894585" transform="translate(0 0)" clip-path="url(#clip-path-2)">
            <g id="Grupo_894579-3" data-name="Grupo 894579" transform="translate(184.841 -40.088)">
              <path id="Trazado_624707" data-name="Trazado 624707" d="M219.567,17.861h-46.29L150.132,57.948l23.145,40.088h46.29l23.145-40.088Z" transform="translate(-150.132 -17.861)" fill="#28965a"/>
              <path id="Trazado_624708" data-name="Trazado 624708" d="M214.983,28.18h-35.29L162.048,58.742,179.693,89.3h35.29l17.645-30.562Z" transform="translate(-151.049 -18.654)" fill="#28965a" style="mix-blend-mode: multiply;isolation: isolate"/>
              <path id="Trazado_624709" data-name="Trazado 624709" d="M209.512,40.5h-22.16l-11.08,19.191,11.08,19.191h22.16l11.08-19.191Z" transform="translate(-152.142 -19.601)" fill="#28965a" style="mix-blend-mode: multiply;isolation: isolate"/>
            </g>
            <g id="Grupo_894580" data-name="Grupo 894580" transform="translate(182.791 327.292)">
              <path id="Trazado_624710" data-name="Trazado 624710" d="M221.787,415.842H175.5L152.353,455.93,175.5,496.018h46.29l23.145-40.088Z" transform="translate(-152.353 -415.842)" fill="none" stroke="#28965a" stroke-miterlimit="10" stroke-width="0.796"/>
              <path id="Trazado_624711" data-name="Trazado 624711" d="M217.2,426.161h-35.29l-17.645,30.562,17.645,30.562H217.2l17.645-30.562Z" transform="translate(-153.269 -416.635)" fill="none" stroke="#28965a" stroke-miterlimit="10" stroke-width="0.796" style="mix-blend-mode: multiply;isolation: isolate"/>
              <path id="Trazado_624712" data-name="Trazado 624712" d="M211.732,438.48h-22.16l-11.08,19.191,11.08,19.191h22.16l11.08-19.191Z" transform="translate(-154.363 -417.582)" fill="none" stroke="#28965a" stroke-miterlimit="10" stroke-width="0.796" style="mix-blend-mode: multiply;isolation: isolate"/>
            </g>
            <g id="Grupo_894581" data-name="Grupo 894581" transform="translate(300.6 222.477)">
              <path id="Trazado_624713" data-name="Trazado 624713" d="M94.165,302.3H47.876L24.731,342.385l23.145,40.088h46.29l23.145-40.088Z" transform="translate(-24.731 -302.297)" fill="#28965a"/>
              <path id="Trazado_624714" data-name="Trazado 624714" d="M89.582,312.616H54.292L36.647,343.178,54.292,373.74h35.29l17.645-30.562Z" transform="translate(-25.647 -303.09)" fill="#28965a" style="mix-blend-mode: multiply;isolation: isolate"/>
              <path id="Trazado_624715" data-name="Trazado 624715" d="M84.11,324.934H61.951l-11.08,19.191,11.08,19.191H84.11l11.08-19.191Z" transform="translate(-26.741 -304.037)" fill="#28965a" style="mix-blend-mode: multiply;isolation: isolate"/>
            </g>
            <g id="Grupo_894582" data-name="Grupo 894582" transform="translate(238.862 91.349)" style="mix-blend-mode: multiply;isolation: isolate">
              <path id="Trazado_624716" data-name="Trazado 624716" d="M178.014,160.246H157.179L146.762,178.29l10.417,18.044h20.835l10.417-18.044Z" transform="translate(-146.762 -160.246)" fill="none" stroke="#28965a" stroke-miterlimit="10" stroke-width="0.796"/>
              <path id="Trazado_624717" data-name="Trazado 624717" d="M174.148,168.95H162.591l-5.778,10.008,5.778,10.009h11.557l5.778-10.009Z" transform="translate(-147.535 -160.915)" fill="none" stroke="#28965a" stroke-miterlimit="10" stroke-width="0.796" style="mix-blend-mode: multiply;isolation: isolate"/>
            </g>
            <g id="Grupo_894583" data-name="Grupo 894583" transform="translate(-28.384 163.716)" style="mix-blend-mode: multiply;isolation: isolate">
              <path id="Trazado_624718" data-name="Trazado 624718" d="M462.489,238.64H434.1l-14.192,24.582L434.1,287.8h28.384l14.192-24.582Z" transform="translate(-419.912 -238.64)" fill="none" stroke="#28965a" stroke-miterlimit="10" stroke-width="0.796"/>
              <path id="Trazado_624719" data-name="Trazado 624719" d="M457.222,250.5H441.477L433.6,264.134l7.872,13.635h15.744l7.872-13.635Z" transform="translate(-420.965 -239.552)" fill="none" stroke="#28965a" stroke-miterlimit="10" stroke-width="0.796" style="mix-blend-mode: multiply;isolation: isolate"/>
            </g>
            <g id="Grupo_894584" data-name="Grupo 894584" transform="translate(185.73 162.489)" style="mix-blend-mode: multiply;isolation: isolate">
              <path id="Trazado_624720" data-name="Trazado 624720" d="M230.539,237.312H202.155l-14.192,24.581,14.192,24.581h28.384l14.192-24.581Z" transform="translate(-187.963 -237.312)" fill="#28965a"/>
              <path id="Trazado_624721" data-name="Trazado 624721" d="M225.272,249.17H209.528L201.656,262.8l7.872,13.635h15.745l7.872-13.635Z" transform="translate(-189.016 -238.223)" fill="#28965a" style="mix-blend-mode: multiply;isolation: isolate"/>
            </g>
          </g>
        </g>
        <g id="Grupo_894580-2" data-name="Grupo 894580" transform="translate(-12262.239 -12438.053)">
          <g id="Grupo_894591" data-name="Grupo 894591" transform="translate(148.499 56.359)">
            <g id="Grupo_894590" data-name="Grupo 894590" transform="translate(0 0)" clip-path="url(#clip-path-3)">
              <g id="Grupo_894587" data-name="Grupo 894587" transform="translate(-53.384 -22.327)">
                <path id="Trazado_624723" data-name="Trazado 624723" d="M152.45,214.829A77.6,77.6,0,0,0,260.158,194.48l62.323-91.356L315.2,98.155l-62.324,91.357a68.769,68.769,0,0,1-95.455,18.034Z" transform="translate(-152.45 -98.155)" fill="#2a6041"/>
              </g>
              <g id="Grupo_894589" data-name="Grupo 894589" transform="translate(-71.146 -84.949)">
                <g id="Grupo_894588" data-name="Grupo 894588" transform="translate(0 0)">
                  <path id="Trazado_624724" data-name="Trazado 624724" d="M178.666,34.461l94.278,64.317a2.27,2.27,0,0,0,3.154-.6h0a2.269,2.269,0,0,0-.6-3.153L181.224,30.711a2.27,2.27,0,0,0-3.154.6h0A2.269,2.269,0,0,0,178.666,34.461Z" transform="translate(-111.987 -30.316)" fill="#2a6041"/>
                  <path id="Trazado_624725" data-name="Trazado 624725" d="M187.1,46.82l94.278,64.317a2.269,2.269,0,0,0,3.153-.6h0a2.268,2.268,0,0,0-.6-3.153L189.656,43.07a2.27,2.27,0,0,0-3.154.6h0A2.269,2.269,0,0,0,187.1,46.82Z" transform="translate(-128.201 -31.267)" fill="#28965a"/>
                  <path id="Trazado_624726" data-name="Trazado 624726" d="M195.529,59.179l94.278,64.316a2.268,2.268,0,0,0,3.153-.6h0a2.269,2.269,0,0,0-.6-3.154L198.087,55.429a2.271,2.271,0,0,0-3.154.6h0A2.27,2.27,0,0,0,195.529,59.179Z" transform="translate(-144.415 -32.217)" fill="#2ceaa3"/>
                  <path id="Trazado_624727" data-name="Trazado 624727" d="M203.959,71.538l94.279,64.316a2.269,2.269,0,0,0,3.153-.6h0a2.27,2.27,0,0,0-.6-3.154L206.518,67.788a2.269,2.269,0,0,0-3.154.6h0A2.271,2.271,0,0,0,203.959,71.538Z" transform="translate(-160.629 -33.167)" fill="#2a6041"/>
                  <path id="Trazado_624728" data-name="Trazado 624728" d="M212.391,132.567l28.42,19.388a2.27,2.27,0,0,0,3.153-.6h0a2.271,2.271,0,0,0-.6-3.154l-28.42-19.388a2.27,2.27,0,0,0-3.154.6h0A2.269,2.269,0,0,0,212.391,132.567Z" transform="translate(-110.985 -37.86)" fill="none" stroke="#28965a" stroke-miterlimit="10" stroke-width="0.796"/>
                  <path id="Trazado_624729" data-name="Trazado 624729" d="M220.822,144.926l28.419,19.388a2.27,2.27,0,0,0,3.154-.6h0a2.27,2.27,0,0,0-.6-3.153l-28.42-19.388a2.27,2.27,0,0,0-3.154.6h0A2.269,2.269,0,0,0,220.822,144.926Z" transform="translate(-127.198 -38.81)" fill="#fff"/>
                  <path id="Trazado_624730" data-name="Trazado 624730" d="M229.253,157.285l28.419,19.388a2.27,2.27,0,0,0,3.154-.6h0a2.269,2.269,0,0,0-.6-3.153l-28.419-19.388a2.271,2.271,0,0,0-3.154.6h0A2.27,2.27,0,0,0,229.253,157.285Z" transform="translate(-143.412 -39.761)" fill="#2a6041"/>
                  <path id="Trazado_624731" data-name="Trazado 624731" d="M237.684,169.644l28.42,19.387a2.269,2.269,0,0,0,3.154-.6h0a2.27,2.27,0,0,0-.6-3.154l-28.419-19.387a2.269,2.269,0,0,0-3.154.6h0A2.271,2.271,0,0,0,237.684,169.644Z" transform="translate(-159.626 -40.711)" fill="none" stroke="#28965a" stroke-miterlimit="10" stroke-width="0.796"/>
                  <path id="Trazado_624732" data-name="Trazado 624732" d="M246.115,133.331l94.278,64.317a2.271,2.271,0,0,0,3.154-.6h0a2.27,2.27,0,0,0-.6-3.154l-94.278-64.317a2.27,2.27,0,0,0-3.154.6h0A2.269,2.269,0,0,0,246.115,133.331Z" transform="translate(-241.699 -37.919)" fill="#2ceaa3"/>
                  <path id="Trazado_624733" data-name="Trazado 624733" d="M261.121,150.176l82.139,56.034a2.27,2.27,0,0,0,3.153-.6h0a2.269,2.269,0,0,0-.6-3.154l-82.139-56.034a2.269,2.269,0,0,0-3.153.6h0A2.269,2.269,0,0,0,261.121,150.176Z" transform="translate(-258.418 -39.214)" fill="#2a6041"/>
                  <path id="Trazado_624734" data-name="Trazado 624734" d="M276.128,167.02l70,47.753a2.27,2.27,0,0,0,3.154-.6h0a2.27,2.27,0,0,0-.6-3.154l-70-47.753a2.269,2.269,0,0,0-3.153.6h0A2.27,2.27,0,0,0,276.128,167.02Z" transform="translate(-275.137 -40.509)" fill="#28965a"/>
                  <path id="Trazado_624735" data-name="Trazado 624735" d="M304.285,192.836l33.581,22.909a2.271,2.271,0,0,0,3.154-.6h0a2.269,2.269,0,0,0-.6-3.153l-33.581-22.909a2.27,2.27,0,0,0-3.153.6h0A2.269,2.269,0,0,0,304.285,192.836Z" transform="translate(-292.869 -42.494)" fill="#2ceaa3"/>
                </g>
              </g>
            </g>
          </g>
          <g id="Grupo_894597" data-name="Grupo 894597" transform="translate(0 0)">
            <g id="Grupo_894596" data-name="Grupo 894596" clip-path="url(#clip-path-4)">
              <g id="Grupo_894592" data-name="Grupo 894592" transform="translate(7.499 0)">
                <path id="Trazado_624736" data-name="Trazado 624736" d="M263.629,428.667h8.817V318.077a68.769,68.769,0,0,1,68.691-68.691,77.6,77.6,0,0,0,77.508-77.508V61.288h-8.817v110.59a68.769,68.769,0,0,1-68.691,68.69,77.6,77.6,0,0,0-77.508,77.509Z" transform="translate(-263.629 -61.288)" fill="#2a6041"/>
                <path id="Trazado_624737" data-name="Trazado 624737" d="M409.828,428.667h8.817V427.45h-8.817Zm0-2.686h8.817v-1.47h-8.817Zm0-2.939h8.817v-1.47h-8.817Zm0-2.939h8.817v-1.47h-8.817Zm0-2.939h8.817v-1.469h-8.817Zm0-2.938h8.817v-1.47h-8.817Zm0-2.939h8.817v-1.47h-8.817Zm0-2.939h8.817v-1.47h-8.817Zm0-2.939h8.817v-1.47h-8.817Zm0-2.939h8.817V401h-8.817Zm0-2.939h8.817v-1.47h-8.817Zm0-2.938h8.817v-1.47h-8.817Zm0-2.939h8.817v-1.47h-8.817Zm0-2.939h8.817v-1.47h-8.817Zm0-2.939h8.817V386.3h-8.817Zm0-2.939h8.817v-1.47h-8.817Zm0-2.939h8.817v-1.47h-8.817Zm0-2.939h8.817v-1.469h-8.817Zm0-2.938h8.817v-1.47h-8.817Zm0-2.939h8.817v-1.47h-8.817Zm0-2.939h8.817v-1.47h-8.817Zm0-2.939h8.817v-1.47h-8.817Zm0-2.939h8.817v-1.47h-8.817Zm0-2.939h8.817v-1.47h-8.817Zm0-2.939h8.817v-1.469h-8.817Zm0-2.938h8.817v-1.47h-8.817Zm0-2.939h8.817v-1.47h-8.817Zm0-2.939h8.817V348.1h-8.817Zm0-2.939h8.817v-1.47h-8.817Zm0-2.939h8.817v-1.47h-8.817Zm0-2.939h8.817v-1.47h-8.817Zm0-2.938h8.817v-1.47h-8.817Zm0-2.939h8.817V333.4h-8.817Zm0-2.939h8.817v-1.47h-8.817Zm0-2.939h8.817v-1.47h-8.817Zm0-2.939h8.817v-1.47h-8.817Zm0-2.939h8.817v-1.47h-8.817Zm0-2.939h8.817v-1.469h-8.817Zm-.006-2.887,8.818-.1q-.01-.778-.033-1.553l-8.813.273Q409.816,316.594,409.823,317.289Zm-.085-2.762,8.806-.451q-.04-.778-.094-1.552l-8.8.621C409.686,313.6,409.714,314.064,409.738,314.527Zm-.2-2.757,8.782-.8q-.071-.775-.156-1.547l-8.764.971Q409.48,311.079,409.542,311.769Zm-.306-2.745,8.743-1.147q-.1-.774-.218-1.541l-8.719,1.318C409.112,308.11,409.177,308.566,409.236,309.024Zm-.414-2.732,8.689-1.5q-.133-.773-.282-1.538l-8.655,1.682Q408.7,305.614,408.822,306.293Zm-.523-2.7,8.619-1.855q-.163-.764-.342-1.522l-8.58,2.033Q408.154,302.913,408.3,303.589Zm-.634-2.685L416.2,298.7q-.2-.752-.4-1.5l-8.494,2.367Q407.491,300.231,407.664,300.9Zm-.742-2.661,8.443-2.543q-.226-.748-.464-1.488l-8.39,2.713Q406.724,297.582,406.922,298.242Zm-.85-2.627,8.334-2.882q-.255-.735-.524-1.468l-8.274,3.051Q405.847,294.963,406.072,295.615Zm-.953-2.586,8.207-3.224q-.284-.724-.582-1.439l-8.14,3.388Q404.868,292.389,405.119,293.029Zm-1.057-2.546,8.075-3.538q-.312-.713-.64-1.42l-8,3.708C403.69,289.649,403.879,290.064,404.062,290.484Zm-1.158-2.5,7.928-3.86q-.342-.7-.7-1.4l-7.841,4.031Q402.6,287.37,402.9,287.987Zm-1.256-2.448,7.764-4.179q-.371-.687-.753-1.365l-7.674,4.343C401.21,284.735,401.432,285.136,401.648,285.539Zm-1.353-2.395,7.588-4.493q-.4-.667-.8-1.326l-7.5,4.637Q399.944,282.551,400.3,283.145Zm-1.454-2.347,7.407-4.784q-.424-.658-.863-1.3l-7.3,4.943Q398.47,280.221,398.841,280.8Zm-1.541-2.281,7.2-5.083q-.447-.636-.909-1.262l-7.1,5.227Q396.9,277.954,397.3,278.516Zm-1.639-2.226,7-5.359q-.475-.62-.965-1.231l-6.883,5.511C395.1,275.568,395.383,275.929,395.661,276.291Zm-1.717-2.148,6.771-5.647q-.5-.6-1.007-1.185l-6.659,5.78Q393.5,273.612,393.944,274.143Zm-1.808-2.083,6.537-5.916q-.521-.575-1.051-1.14L391.2,271.04Q391.671,271.544,392.136,272.059Zm-1.894-2.016,6.306-6.164q-.547-.558-1.1-1.1l-6.177,6.293Q389.759,269.549,390.242,270.043Zm-1.97-1.934,6.052-6.414q-.566-.533-1.143-1.057l-5.924,6.531Q387.77,267.635,388.272,268.109Zm-2.045-1.855,5.788-6.652q-.589-.512-1.185-1.011l-5.654,6.765Q385.7,265.8,386.227,266.255Zm-2.122-1.773,5.521-6.876q-.608-.487-1.225-.963l-5.383,6.983Q383.565,264.048,384.1,264.481Zm-2.186-1.687,5.233-7.1q-.625-.462-1.261-.913l-5.095,7.2Q381.361,262.385,381.919,262.795Zm-2.258-1.6,4.95-7.3q-.645-.439-1.3-.863l-4.8,7.4Q379.09,260.808,379.661,261.2Zm-2.32-1.507L382,252.2q-.665-.413-1.335-.81l-4.5,7.581Q376.755,259.324,377.341,259.69Zm-2.382-1.414,4.356-7.666q-.683-.388-1.372-.76l-4.189,7.758Q374.361,257.936,374.96,258.275Zm-2.427-1.313,4.031-7.842q-.7-.357-1.395-.7l-3.876,7.919Q371.916,256.647,372.533,256.963Zm-2.487-1.218,3.714-8q-.708-.33-1.423-.644l-3.552,8.07Q369.418,255.454,370.046,255.745Zm-2.534-1.115,3.388-8.14q-.723-.3-1.452-.587l-3.217,8.209Q366.875,254.364,367.512,254.63Zm-2.577-1.012,3.054-8.272q-.734-.27-1.475-.527l-2.88,8.333Q364.286,253.379,364.935,253.618Zm-2.617-.906,2.715-8.389c-.5-.161-.993-.316-1.494-.466l-2.544,8.442C361.437,252.432,361.878,252.569,362.318,252.712Zm-2.645-.8,2.366-8.493q-.748-.208-1.5-.4l-2.206,8.537Q359.006,251.728,359.673,251.914Zm-2.677-.69,2.03-8.58q-.759-.18-1.519-.343l-1.858,8.619Q356.324,251.065,357,251.225Zm-2.7-.581,1.682-8.655q-.763-.148-1.531-.282l-1.508,8.687C353.394,250.473,353.845,250.556,354.3,250.644Zm-2.72-.471,1.332-8.715q-.77-.119-1.544-.22l-1.154,8.741C350.667,250.04,351.122,250.1,351.576,250.173Zm-2.735-.36.977-8.763q-.773-.086-1.551-.157l-.8,8.781Q348.155,249.736,348.841,249.813Zm-2.752-.252.628-8.794q-.777-.055-1.555-.1l-.451,8.806Q345.4,249.513,346.089,249.561Zm-2.756-.141.271-8.813c-.517-.017-1.034-.027-1.553-.033l-.1,8.817Q342.642,249.4,343.333,249.42Zm-2.838-.037.071-8.817q-.692-.006-1.38-.025l-.247,8.814Q339.716,249.378,340.5,249.383Zm-3.11-.087.419-8.806q-.691-.033-1.378-.08l-.6,8.8Q336.607,249.259,337.385,249.3Zm-3.108-.21.772-8.783q-.69-.061-1.375-.135l-.946,8.767C333.242,248.989,333.758,249.041,334.277,249.086Zm-3.1-.334,1.122-8.745q-.685-.087-1.366-.189l-1.3,8.722Q330.406,248.652,331.18,248.752Zm-3.08-.458,1.471-8.694q-.68-.115-1.356-.245l-1.651,8.662Q327.328,248.162,328.1,248.294Zm-3.06-.583,1.819-8.627q-.674-.141-1.345-.3l-2,8.588Q324.274,247.55,325.04,247.71ZM322,247l2.175-8.544q-.67-.17-1.336-.354l-2.342,8.5Q321.245,246.813,322,247Zm-3-.828,2.515-8.45q-.662-.2-1.318-.407l-2.685,8.4Q318.249,245.953,319,246.176Zm-2.971-.95,2.86-8.341q-.654-.223-1.3-.461l-3.024,8.283Q315.289,244.973,316.026,245.226Zm-2.924-1.067,3.188-8.221q-.644-.249-1.281-.511l-3.354,8.154Q312.375,243.877,313.1,244.159Zm-2.878-1.183,3.518-8.085q-.63-.274-1.254-.561l-3.682,8.012Q309.511,242.665,310.224,242.976Zm-2.827-1.3,3.85-7.932q-.622-.3-1.237-.615l-4,7.858Q306.7,241.337,307.4,241.675Zm-2.763-1.407,4.155-7.777q-.607-.324-1.2-.659l-4.317,7.688Q303.946,239.9,304.633,240.268Zm-2.712-1.521,4.468-7.6q-.6-.35-1.182-.711l-4.616,7.512Q301.251,238.352,301.921,238.747Zm-2.648-1.628,4.768-7.416q-.58-.374-1.151-.758l-4.916,7.32Q298.617,236.7,299.273,237.119Zm-2.58-1.734,5.059-7.221q-.566-.4-1.121-.8l-5.2,7.119Q296.055,234.938,296.693,235.385Zm-2.514-1.838,5.348-7.01q-.55-.42-1.09-.849l-5.484,6.9Q293.563,233.076,294.179,233.547Zm-2.434-1.934,5.62-6.794q-.532-.442-1.056-.892l-5.752,6.682Q291.145,231.118,291.745,231.613Zm-2.359-2.034,5.89-6.561q-.516-.462-1.022-.934l-6.014,6.447Q288.809,229.061,289.386,229.58Zm-2.275-2.125,6.147-6.321q-.5-.482-.982-.973l-6.27,6.2Q286.554,226.913,287.112,227.455Zm-2.19-2.215,6.394-6.07q-.476-.5-.941-1.011l-6.515,5.94Q284.386,224.674,284.922,225.239Zm-2.1-2.3,6.637-5.8q-.457-.521-.9-1.052l-6.745,5.679Q282.31,222.351,282.82,222.935Zm-2-2.381,6.859-5.54q-.435-.539-.859-1.086l-6.966,5.406Q280.328,219.949,280.817,220.554Zm-1.912-2.466,7.077-5.257q-.413-.557-.815-1.121l-7.178,5.12Q278.441,217.464,278.906,218.089Zm-1.808-2.535,7.28-4.976q-.39-.57-.768-1.147l-7.379,4.825Q276.657,214.909,277.1,215.554Zm-1.711-2.615,7.478-4.671q-.367-.589-.723-1.183l-7.568,4.525Q274.974,212.279,275.387,212.939Zm-1.6-2.671,7.651-4.382q-.342-.6-.67-1.2l-7.746,4.214C273.276,209.358,273.53,209.815,273.791,210.268Zm-1.495-2.744,7.824-4.064q-.319-.612-.624-1.232l-7.907,3.9Q271.935,206.83,272.3,207.524Zm-1.385-2.8,7.985-3.738q-.292-.627-.574-1.261l-8.059,3.579Q270.58,204.013,270.911,204.719Zm-1.267-2.853,8.128-3.416q-.267-.636-.522-1.279l-8.2,3.244Q269.342,201.145,269.645,201.866Zm-1.154-2.91,8.262-3.079q-.241-.648-.47-1.3l-8.323,2.907Q268.218,198.224,268.491,198.956ZM267.456,196l8.384-2.732q-.216-.66-.419-1.327l-8.434,2.572C267.138,195.011,267.3,195.507,267.456,196Zm-.909-2.986,8.485-2.393q-.187-.666-.363-1.337l-8.53,2.23Q266.337,192.269,266.547,193.014ZM265.76,190l8.573-2.059c-.106-.446-.21-.895-.307-1.344l-8.614,1.882Q265.58,189.247,265.76,190Zm-.666-3.046,8.651-1.709q-.134-.676-.254-1.358l-8.683,1.536Q264.945,186.195,265.095,186.958Zm-.541-3.068,8.712-1.359q-.105-.681-.2-1.367l-8.736,1.186Q264.434,183.122,264.554,183.89Zm-.416-3.087,8.759-1.009q-.079-.683-.143-1.369l-8.779.825C264.024,179.769,264.079,180.288,264.138,180.8Zm-.294-3.105,8.793-.648c-.034-.459-.063-.919-.089-1.381l-8.8.477Q263.786,176.924,263.844,177.7Zm-.169-3.109,8.812-.3q-.024-.691-.034-1.385l-8.816.129Q263.648,173.814,263.675,174.588Zm-.046-3.087h8.817v-1.47h-8.817Zm0-2.939h8.817v-1.47h-8.817Zm0-2.939h8.817v-1.47h-8.817Zm0-2.939h8.817v-1.47h-8.817Zm0-2.938h8.817v-1.47h-8.817Zm0-2.939h8.817v-1.47h-8.817Zm0-2.939h8.817V152.4h-8.817Zm0-2.939h8.817v-1.47h-8.817Zm0-2.939h8.817v-1.47h-8.817Zm0-2.939h8.817v-1.47h-8.817Zm0-2.939h8.817v-1.469h-8.817Zm0-2.938h8.817V137.7h-8.817Zm0-2.939h8.817v-1.47h-8.817Zm0-2.939h8.817v-1.47h-8.817Zm0-2.939h8.817v-1.47h-8.817Zm0-2.939h8.817v-1.47h-8.817Zm0-2.939h8.817v-1.47h-8.817Zm0-2.939h8.817v-1.469h-8.817Zm0-2.938h8.817v-1.47h-8.817Zm0-2.939h8.817v-1.47h-8.817Zm0-2.939h8.817v-1.47h-8.817Zm0-2.939h8.817v-1.47h-8.817Zm0-2.939h8.817v-1.47h-8.817Zm0-2.939h8.817v-1.47h-8.817Zm0-2.938h8.817V99.5h-8.817Zm0-2.939h8.817v-1.47h-8.817Zm0-2.939h8.817v-1.47h-8.817Zm0-2.939h8.817v-1.47h-8.817Zm0-2.939h8.817v-1.47h-8.817Zm0-2.939h8.817V84.8h-8.817Zm0-2.939h8.817V81.86h-8.817Zm0-2.938h8.817v-1.47h-8.817Zm0-2.939h8.817v-1.47h-8.817Zm0-2.939h8.817v-1.47h-8.817Zm0-2.939h8.817V70.1h-8.817Zm0-2.939h8.817v-1.47h-8.817Zm0-2.939h8.817v-1.47h-8.817Zm0-2.939h8.817V61.288h-8.817Z" transform="translate(-263.629 -61.288)" fill="#2a6041"/>
              </g>
              <g id="Grupo_894595" data-name="Grupo 894595" transform="translate(24.441 11.302)">
                <g id="Grupo_894593" data-name="Grupo 894593">
                  <path id="Trazado_624738" data-name="Trazado 624738" d="M286.923,78.07H401.051A2.269,2.269,0,0,0,403.32,75.8h0a2.269,2.269,0,0,0-2.269-2.27H286.923a2.27,2.27,0,0,0-2.269,2.27h0A2.27,2.27,0,0,0,286.923,78.07Z" transform="translate(-284.654 -73.531)" fill="#2a6041"/>
                  <path id="Trazado_624739" data-name="Trazado 624739" d="M286.923,93.031H401.051a2.269,2.269,0,0,0,2.269-2.27h0a2.268,2.268,0,0,0-2.269-2.269H286.923a2.269,2.269,0,0,0-2.269,2.269h0A2.27,2.27,0,0,0,286.923,93.031Z" transform="translate(-284.654 -74.681)" fill="none" stroke="#28965a" stroke-miterlimit="10" stroke-width="0.796"/>
                  <path id="Trazado_624740" data-name="Trazado 624740" d="M286.923,107.992H401.051a2.269,2.269,0,0,0,2.269-2.27h0a2.269,2.269,0,0,0-2.269-2.27H286.923a2.27,2.27,0,0,0-2.269,2.27h0A2.27,2.27,0,0,0,286.923,107.992Z" transform="translate(-284.654 -75.832)" fill="#fff"/>
                  <path id="Rectángulo_296678" data-name="Rectángulo 296678" d="M2.27,0H116.4a2.27,2.27,0,0,1,2.27,2.27v0a2.27,2.27,0,0,1-2.27,2.27H2.27A2.27,2.27,0,0,1,0,2.27v0A2.27,2.27,0,0,1,2.27,0Z" transform="translate(0 41.431)" fill="#2a6041"/>
                  <path id="Trazado_624741" data-name="Trazado 624741" d="M342.64,137.913h62.694a2.27,2.27,0,0,0,2.27-2.27h0a2.269,2.269,0,0,0-2.27-2.269H342.64a2.269,2.269,0,0,0-2.269,2.269h0A2.27,2.27,0,0,0,342.64,137.913Z" transform="translate(-340.371 -78.132)" fill="none" stroke="#28965a" stroke-miterlimit="10" stroke-width="0.796"/>
                  <path id="Trazado_624742" data-name="Trazado 624742" d="M342.64,152.874h62.694a2.27,2.27,0,0,0,2.27-2.27h0a2.27,2.27,0,0,0-2.27-2.27H342.64a2.27,2.27,0,0,0-2.269,2.27h0A2.27,2.27,0,0,0,342.64,152.874Z" transform="translate(-340.371 -79.283)" fill="#fff"/>
                  <path id="Trazado_624743" data-name="Trazado 624743" d="M342.64,167.834h62.694a2.27,2.27,0,0,0,2.27-2.269h0a2.27,2.27,0,0,0-2.27-2.27H342.64a2.27,2.27,0,0,0-2.269,2.27h0A2.27,2.27,0,0,0,342.64,167.834Z" transform="translate(-340.371 -80.433)" fill="#2a6041"/>
                  <path id="Trazado_624744" data-name="Trazado 624744" d="M342.64,182.795h62.694a2.27,2.27,0,0,0,2.27-2.27h0a2.269,2.269,0,0,0-2.27-2.269H342.64a2.269,2.269,0,0,0-2.269,2.269h0A2.27,2.27,0,0,0,342.64,182.795Z" transform="translate(-340.371 -81.584)" fill="none" stroke="#28965a" stroke-miterlimit="10" stroke-width="0.796"/>
                  <path id="Trazado_624745" data-name="Trazado 624745" d="M286.923,197.756H401.051a2.269,2.269,0,0,0,2.269-2.27h0a2.269,2.269,0,0,0-2.269-2.27H286.923a2.27,2.27,0,0,0-2.269,2.27h0A2.27,2.27,0,0,0,286.923,197.756Z" transform="translate(-284.654 -82.734)" fill="#fff"/>
                  <path id="Trazado_624746" data-name="Trazado 624746" d="M294.883,212.716h95.758a2.269,2.269,0,0,0,2.27-2.269h0a2.27,2.27,0,0,0-2.27-2.27H294.883a2.27,2.27,0,0,0-2.27,2.27h0A2.269,2.269,0,0,0,294.883,212.716Z" transform="translate(-281.592 -83.884)" fill="#2a6041"/>
                  <path id="Trazado_624747" data-name="Trazado 624747" d="M302.843,227.677H387.58a2.27,2.27,0,0,0,2.269-2.269h0a2.27,2.27,0,0,0-2.269-2.27H302.843a2.27,2.27,0,0,0-2.27,2.27h0A2.27,2.27,0,0,0,302.843,227.677Z" transform="translate(-285.878 -85.035)" fill="none" stroke="#28965a" stroke-miterlimit="10" stroke-width="0.796"/>
                  <path id="Trazado_624748" data-name="Trazado 624748" d="M326.721,242.638h40.652a2.27,2.27,0,0,0,2.269-2.27h0a2.269,2.269,0,0,0-2.269-2.269H326.721a2.269,2.269,0,0,0-2.269,2.269h0A2.27,2.27,0,0,0,326.721,242.638Z" transform="translate(-287.714 -86.185)" fill="#fff"/>
                </g>
                <g id="Grupo_894594" data-name="Grupo 894594" transform="translate(0 189.726)">
                  <path id="Trazado_624749" data-name="Trazado 624749" d="M401.051,443.629H286.923a2.27,2.27,0,0,0-2.269,2.27h0a2.27,2.27,0,0,0,2.269,2.27H401.051a2.269,2.269,0,0,0,2.269-2.27h0A2.269,2.269,0,0,0,401.051,443.629Z" transform="translate(-284.654 -291.715)" fill="#2a6041"/>
                  <path id="Trazado_624750" data-name="Trazado 624750" d="M401.051,428.668H286.923a2.27,2.27,0,0,0-2.269,2.27h0a2.27,2.27,0,0,0,2.269,2.27H401.051a2.269,2.269,0,0,0,2.269-2.27h0A2.269,2.269,0,0,0,401.051,428.668Z" transform="translate(-284.654 -290.565)" fill="none" stroke="#28965a" stroke-miterlimit="10" stroke-width="0.796"/>
                  <path id="Trazado_624751" data-name="Trazado 624751" d="M401.051,413.708H286.923a2.27,2.27,0,0,0-2.269,2.269h0a2.27,2.27,0,0,0,2.269,2.27H401.051a2.269,2.269,0,0,0,2.269-2.27h0A2.269,2.269,0,0,0,401.051,413.708Z" transform="translate(-284.654 -289.414)" fill="#fff"/>
                  <path id="Trazado_624752" data-name="Trazado 624752" d="M401.051,398.747H286.923a2.27,2.27,0,0,0-2.269,2.27h0a2.269,2.269,0,0,0,2.269,2.269H401.051a2.268,2.268,0,0,0,2.269-2.269h0A2.269,2.269,0,0,0,401.051,398.747Z" transform="translate(-284.654 -288.264)" fill="#2a6041"/>
                  <path id="Trazado_624753" data-name="Trazado 624753" d="M401.051,383.786H286.923a2.27,2.27,0,0,0-2.269,2.27h0a2.27,2.27,0,0,0,2.269,2.27H401.051a2.269,2.269,0,0,0,2.269-2.27h0A2.269,2.269,0,0,0,401.051,383.786Z" transform="translate(-284.654 -287.114)" fill="none" stroke="#28965a" stroke-miterlimit="10" stroke-width="0.796"/>
                  <path id="Trazado_624754" data-name="Trazado 624754" d="M401.051,368.826H286.923a2.269,2.269,0,0,0-2.269,2.269h0a2.27,2.27,0,0,0,2.269,2.27H401.051a2.269,2.269,0,0,0,2.269-2.27h0A2.268,2.268,0,0,0,401.051,368.826Z" transform="translate(-284.654 -285.963)" fill="#fff"/>
                  <path id="Trazado_624755" data-name="Trazado 624755" d="M401.051,353.865H286.923a2.27,2.27,0,0,0-2.269,2.27h0a2.269,2.269,0,0,0,2.269,2.269H401.051a2.268,2.268,0,0,0,2.269-2.269h0A2.269,2.269,0,0,0,401.051,353.865Z" transform="translate(-284.654 -284.813)" fill="#2a6041"/>
                  <path id="Trazado_624756" data-name="Trazado 624756" d="M401.051,338.9H286.923a2.27,2.27,0,0,0-2.269,2.27h0a2.27,2.27,0,0,0,2.269,2.27H401.051a2.269,2.269,0,0,0,2.269-2.27h0A2.269,2.269,0,0,0,401.051,338.9Z" transform="translate(-284.654 -283.663)" fill="none" stroke="#28965a" stroke-miterlimit="10" stroke-width="0.796"/>
                  <path id="Trazado_624757" data-name="Trazado 624757" d="M401.051,323.944H286.923a2.269,2.269,0,0,0-2.269,2.269h0a2.27,2.27,0,0,0,2.269,2.27H401.051a2.269,2.269,0,0,0,2.269-2.27h0A2.268,2.268,0,0,0,401.051,323.944Z" transform="translate(-284.654 -282.512)" fill="#fff"/>
                  <path id="Trazado_624758" data-name="Trazado 624758" d="M394.315,308.983H294.883a2.27,2.27,0,0,0-2.27,2.27h0a2.27,2.27,0,0,0,2.27,2.269h99.432a2.27,2.27,0,0,0,2.27-2.269h0A2.27,2.27,0,0,0,394.315,308.983Z" transform="translate(-285.266 -281.362)" fill="#2a6041"/>
                  <path id="Trazado_624759" data-name="Trazado 624759" d="M387.58,294.022H302.843a2.27,2.27,0,0,0-2.27,2.27h0a2.27,2.27,0,0,0,2.27,2.27H387.58a2.27,2.27,0,0,0,2.269-2.27h0A2.27,2.27,0,0,0,387.58,294.022Z" transform="translate(-285.878 -280.211)" fill="none" stroke="#28965a" stroke-miterlimit="10" stroke-width="0.796"/>
                  <path id="Trazado_624760" data-name="Trazado 624760" d="M367.373,279.061H326.721a2.27,2.27,0,0,0-2.269,2.27h0a2.27,2.27,0,0,0,2.269,2.27h40.652a2.27,2.27,0,0,0,2.269-2.27h0A2.27,2.27,0,0,0,367.373,279.061Z" transform="translate(-287.714 -279.061)" fill="#fff"/>
                </g>
              </g>
            </g>
          </g>
        </g>
        <g id="Grupo_894581-2" data-name="Grupo 894581" transform="translate(-12096.808 -12331.444)">
          <g id="Grupo_894601" data-name="Grupo 894601" transform="translate(74.32 0)">
            <g id="Grupo_894599" data-name="Grupo 894599" transform="translate(0)">
              <path id="Trazado_624762" data-name="Trazado 624762" d="M122.571,205.023c-10.13,7.309-12.205,29.577-12.205,29.577h0a22.535,22.535,0,0,0-11.977,13.371l-.379,1.144,8.924,3.472s-2.977,21.659,4.292,26.021,17.219,4.342,17.219,4.342l-7.634,21.83,39.656,1.526,12.551-93.628Z" transform="translate(-97.368 -178.948)" fill="#ff8775"/>
              <path id="Trazado_624763" data-name="Trazado 624763" d="M136.557,277.9a17.715,17.715,0,0,0,11.332,1.121,13.9,13.9,0,0,0,7.426-4.307,10.238,10.238,0,0,0,2.04-8.392,16.886,16.886,0,0,0,6.838-30.464,19,19,0,0,0,7.029-17.607c-1.022-6.551-6.136-12.209-12.372-14.461a16.746,16.746,0,0,0-4.591-14.837,17.324,17.324,0,0,0-15.095-4.708,18.24,18.24,0,0,0-20.288-6.563,10.074,10.074,0,0,0-5.892,4.965,17.951,17.951,0,0,0-15.024-4.19A15.644,15.644,0,0,0,86.3,188.367c-3.989-1.787-8.933-.606-12.169,2.332a16.788,16.788,0,0,0-5.058,11.728,21.772,21.772,0,0,0,3.83,13.226,20.249,20.249,0,0,0,10.788,7.718,45.676,45.676,0,0,1,1.617-6.08c3.612.673,7.2-1.2,10.159-3.384a13.511,13.511,0,0,0,4.636-5.3,10.812,10.812,0,0,0,3.48,8.317,8.665,8.665,0,0,0,7.7,2.237,26.07,26.07,0,0,0-1.534,8.356,12.854,12.854,0,0,0,2.613,7.958,7.456,7.456,0,0,0,7.094,2.66,9.11,9.11,0,0,1,4.98-4.054c3.323-.836,6.736,1.527,8.458,4.491a13.658,13.658,0,0,1-.85,14.676,9.533,9.533,0,0,1-2.452,2.359,7.558,7.558,0,0,1-7.564.246,25.1,25.1,0,0,0,3.777,16.934,13.554,13.554,0,0,0,4.466,4.5A7.613,7.613,0,0,0,136.557,277.9Z" transform="translate(-69.052 -176.776)" fill="#202c23"/>
              <path id="Trazado_624764" data-name="Trazado 624764" d="M155,241.037c-.322,1.957.479,3.718,1.79,3.934s2.635-1.2,2.958-3.153-.479-3.718-1.79-3.934S155.322,239.079,155,241.037Z" transform="translate(-136.714 -181.473)" fill="#202c23"/>
              <path id="Trazado_624765" data-name="Trazado 624765" d="M160.541,239.763a12.012,12.012,0,0,0-13.279-9.513" transform="translate(-130.358 -180.881)" fill="none" stroke="#202c23" stroke-miterlimit="10" stroke-width="3.356"/>
              <path id="Trazado_624766" data-name="Trazado 624766" d="M160.458,267.177a14.406,14.406,0,0,0,9.036-6.371" transform="translate(-151.493 -183.238)" fill="none" stroke="#202c23" stroke-miterlimit="10" stroke-width="1.535"/>
              <path id="Trazado_624767" data-name="Trazado 624767" d="M121.2,246.091a7.391,7.391,0,0,0-2.447-2.587,3.337,3.337,0,0,0-3.416-.063,3.99,3.99,0,0,0-1.292,1.623,17.726,17.726,0,0,0-1.328,6.759,10.053,10.053,0,0,1,3.548,2.766,17.191,17.191,0,0,1-3.443,2.936" transform="translate(-59.122 -181.868)" fill="none" stroke="#202c23" stroke-miterlimit="10" stroke-width="1.678"/>
              <path id="Trazado_624768" data-name="Trazado 624768" d="M133.8,289.276l13.562-1.971L131.6,295.557Z" transform="translate(-102.725 -185.275)" fill="#202c23"/>
            </g>
            <g id="Grupo_894600" data-name="Grupo 894600" transform="translate(17.352 15.222)" opacity="0.4">
              <path id="Trazado_624769" data-name="Trazado 624769" d="M103.929,199.87a7.029,7.029,0,0,1,2.314-3.943,9.583,9.583,0,0,1,8.214-2.5,8.438,8.438,0,0,1,6.221,5.562,6.491,6.491,0,0,1,9.915.417" transform="translate(-77.761 -193.266)" fill="none" stroke="#28965a" stroke-miterlimit="10" stroke-width="0.839"/>
              <path id="Trazado_624770" data-name="Trazado 624770" d="M80.7,253.952a7.651,7.651,0,0,1,2.107-3.977,8.037,8.037,0,0,1,7.245-2.659,7.353,7.353,0,0,1,5.335,5.415,5.706,5.706,0,0,1,4.47-2.191,5.291,5.291,0,0,1,4.206,2.406" transform="translate(-29.797 -197.412)" fill="none" stroke="#28965a" stroke-miterlimit="10" stroke-width="0.839"/>
              <path id="Trazado_624771" data-name="Trazado 624771" d="M144.563,208.314a4.839,4.839,0,0,1-.117-3.145,6.59,6.59,0,0,1,3.839-4.493,5.805,5.805,0,0,1,5.669.922,4.467,4.467,0,0,1,5.907-3.43" transform="translate(-144.241 -193.623)" fill="none" stroke="#28965a" stroke-miterlimit="10" stroke-width="0.839"/>
              <path id="Trazado_624772" data-name="Trazado 624772" d="M113.064,214.406a4.842,4.842,0,0,1,3.085-.622,6.592,6.592,0,0,1,5.051,3.067,5.8,5.8,0,0,1,0,5.744,4.468,4.468,0,0,1,4.337,5.278" transform="translate(-81.211 -194.841)" fill="none" stroke="#28965a" stroke-miterlimit="10" stroke-width="0.839"/>
              <path id="Trazado_624773" data-name="Trazado 624773" d="M78.538,221.578a4.834,4.834,0,0,1,1.95-2.47,6.594,6.594,0,0,1,5.835-.932,5.806,5.806,0,0,1,3.718,4.377,4.468,4.468,0,0,1,6.722,1.218" transform="translate(-20.492 -195.157)" fill="none" stroke="#28965a" stroke-miterlimit="10" stroke-width="0.839"/>
              <path id="Trazado_624774" data-name="Trazado 624774" d="M96.744,269.343a4.836,4.836,0,0,0,1.807,2.576,6.594,6.594,0,0,0,5.774,1.26,5.8,5.8,0,0,0,3.959-4.16,4.467,4.467,0,0,0,6.78-.835" transform="translate(-55.6 -199.027)" fill="none" stroke="#28965a" stroke-miterlimit="10" stroke-width="0.839"/>
            </g>
          </g>
          <path id="Trazado_624775" data-name="Trazado 624775" d="M251.422,256.575s-1.422-11.9,0-16.345,6.055-17.45,3.908-28.96S243.249,187.463,242.006,188s6.942,24.518,6.942,24.518-13-25.8-16-24.535,9.239,28.8,9.239,28.8S227.543,190.1,225.811,192.07s9.977,26.566,9.977,26.566-9.561-19.091-11.71-16.6,7.978,22.742,8.157,26.827-.889,7.569-.178,13.2,2.132,16.825,2.132,16.825Z" transform="translate(-222.021 -177.634)" fill="#ff8775"/>
          <path id="Trazado_624776" data-name="Trazado 624776" d="M203.647,294.485c19.214.869,33.275,21.791,35.5,44.7s-.378,57.586-.378,57.586l8,46.574-110.31-.759,17.142-73.6s-51.036,13.152-57.269,5.124S82.308,257.6,82.308,257.6l29.093-5.48,11.035,83.963S177.96,293.322,203.647,294.485Z" transform="translate(-82.308 -182.57)" fill="#fff"/>
          <path id="Trazado_624777" data-name="Trazado 624777" d="M124.5,377.716s24.288-8.808,36-11.034,18.218,0,18.218,0" transform="translate(-53.211 -191.303)" fill="none" stroke="#2a6041" stroke-miterlimit="10" stroke-width="1.592"/>
          <path id="Trazado_624778" data-name="Trazado 624778" d="M212.426,353.044l-1.1-10.3,5.235-3.961Z" transform="translate(-171.2 -189.234)" fill="#2a6041"/>
          <line id="Línea_834" data-name="Línea 834" y1="4.635" x2="30.193" transform="translate(1.41 88.648)" fill="none" stroke="#2a6041" stroke-miterlimit="10" stroke-width="0.796"/>
          <path id="Trazado_624779" data-name="Trazado 624779" d="M252.682,267.47a1.27,1.27,0,1,0,1.27-1.27A1.27,1.27,0,0,0,252.682,267.47Z" transform="translate(-248.034 -183.652)" fill="#2a6041"/>
        </g>
        <ellipse id="Elipse_6381" data-name="Elipse 6381" cx="183.69" cy="183.69" rx="183.69" ry="183.69" transform="translate(-12272.375 -12438.053)" fill="none"/>
      </g>
    </g>
  </g>
</svg>
