<svg xmlns="http://www.w3.org/2000/svg" width="164.486" height="142.449" viewBox="0 0 164.486 142.449">
  <g id="Grupo_894787" data-name="Grupo 894787" transform="translate(12704.978 12291.188)">
    <g id="Grupo_894780" data-name="Grupo 894780" transform="translate(-684.978 -147.938)">
      <g id="Grupo_894356" data-name="Grupo 894356" transform="translate(-3.38 -2.38)">
        <path id="Trazado_624220" data-name="Trazado 624220" d="M170.247,339.23H89.639L49.33,409.048l40.309,69.807h80.608l40.309-69.807Z" transform="translate(-12062.689 -12479.624)" fill="#fef3de" opacity="0.55"/>
        <g id="Grupo_894630" data-name="Grupo 894630" transform="translate(-12203.873 -11337.48)">
          <path id="Trazado_624920" data-name="Trazado 624920" d="M467.741-775.958c1.39.569,1.726,1.08,1.73,2.632,0,.622.005,1.244,0,1.865a2.118,2.118,0,0,1-1.907,2.384c-3.037.094-6.07.366-9.112.212a4.053,4.053,0,0,1-1.259-.1,2.474,2.474,0,0,1-1.5-2.542c.02-.711,0-1.423.006-2.134a2.066,2.066,0,0,1,1.779-2.319Z" transform="translate(-185.6)" fill="#8edd56"/>
          <path id="Trazado_624921" data-name="Trazado 624921" d="M432.16-775.958a2.44,2.44,0,0,0-1.557,2.7,4.724,4.724,0,0,1,0,1.1,2.965,2.965,0,0,0,1.216,3.038.833.833,0,0,1-.788.243c-1.32-.3-2.665-.059-3.988-.221a2.17,2.17,0,0,1-1.882-2.25c-.014-.566.038-1.136-.011-1.7a2.7,2.7,0,0,1,1.534-2.92Z" transform="translate(-160.283)" fill="#47a731"/>
          <path id="Trazado_624922" data-name="Trazado 624922" d="M416.918-565.006q0,20.761.007,41.522c0,.142-.015.284-.023.426a1.612,1.612,0,0,1-1.141.243q-17.843.008-35.686,0a1.852,1.852,0,0,1-1.152-.225,1.851,1.851,0,0,1-.247-1.231q-.008-19.712,0-39.425a1.9,1.9,0,0,1,.219-1.156,1.937,1.937,0,0,1,1.312-.255q17.98-.013,35.961-.009A1.513,1.513,0,0,1,416.918-565.006Z" transform="translate(-121.786 -174.69)" fill="#fff"/>
          <path id="Trazado_624923" data-name="Trazado 624923" d="M399.861-705.553c6.894.008,13.788.065,20.681,0a6.512,6.512,0,0,1,5.579,2.717,57.9,57.9,0,0,1,3.965,6.575q3.123,5.4,6.162,10.838a3.628,3.628,0,0,1-2.164,5.457,3.629,3.629,0,0,1-4.126-1.824c-1.436-2.491-2.852-4.993-4.268-7.494-1-1.759-2.056-3.486-2.946-5.3a5.734,5.734,0,0,0-5.649-3.636c-3.868-.093-7.742-.153-11.6,0-2.956.121-5.907.042-8.859.108-2.047.046-4.1.045-6.144.025-4.089-.04-8.175-.266-12.266-.182a.733.733,0,0,1-.246-.063,1.161,1.161,0,0,1-.285-.945q-.023-2.676,0-5.353a1.153,1.153,0,0,1,.254-.873q5.728-.015,11.456-.031c.513,0,1.025-.016,1.538-.024.894-.457,1.849-.174,2.777-.228,1.726-.047,3.452-.015,5.178-.017A1.412,1.412,0,0,1,399.861-705.553Z" transform="translate(-120.966 -58.112)" fill="#8edd56"/>
          <path id="Trazado_624924" data-name="Trazado 624924" d="M363.136-321.6q17.372.008,34.745.017c1.052,0,2.105.016,3.157.024.006,2.365.032,4.73.011,7.1a2.122,2.122,0,0,1-2.157,2.273q-16.713.008-33.426-.013c-.356-.174-.731-.3-1.083-.493a2.741,2.741,0,0,1-1.56-2.706c.053-1.591.021-3.186.009-4.779-.007-.908-.078-.94-.968-1-.779-.048-1.593.217-2.334-.229l-.007-.178A5.187,5.187,0,0,1,363.136-321.6Z" transform="translate(-105.922 -376.19)" fill="#f4de86"/>
          <path id="Trazado_624925" data-name="Trazado 624925" d="M401.075-604.794a1.973,1.973,0,0,1-1.165.163q-17.824,0-35.648,0c-.37,0-.741.009-1.111.013a5.071,5.071,0,0,1-3.6-.016l.007-.174c.447-.362.979-.227,1.478-.234,1.981-.028,1.809.183,1.819-1.861.005-1.109-.026-2.218.013-3.326a2.7,2.7,0,0,1,1.127-2.443,4.647,4.647,0,0,1-2.773-.175,13.529,13.529,0,0,1,4.051-.077,5.958,5.958,0,0,0,2.111-.054,33.454,33.454,0,0,1,4.688-.106c7.088-.058,14.178-.1,21.263.031,2,.037,4.027,0,6.033.2a2.207,2.207,0,0,1,1.71,2.341C401.083-608.607,401.076-606.7,401.075-604.794Z" transform="translate(-105.943 -134.902)" fill="#f4de86"/>
          <path id="Trazado_624926" data-name="Trazado 624926" d="M459.424-653.169l-27.346-.009a1.215,1.215,0,0,1,.216-.968c1.121-2.268,2.273-4.522,3.384-6.8a1.353,1.353,0,0,1,1.4-.854c4.123.03,8.245.013,12.368.018a1.312,1.312,0,0,1,.749.078c.883,2.132,2.16,4.084,2.984,6.227.678,1.766,1.685,2.464,3.561,2.193A5.42,5.42,0,0,1,459.424-653.169Z" transform="translate(-166.002 -94.588)" fill="#fff"/>
          <path id="Trazado_624927" data-name="Trazado 624927" d="M359.527-563.528l3.6.016c-.009.256-.025.512-.025.768q0,20.1,0,40.192c0,.256.02.512.031.768l-3.612.016Q359.525-542.647,359.527-563.528Z" transform="translate(-105.922 -176.006)" fill="#dee4f0"/>
          <path id="Trazado_624928" data-name="Trazado 624928" d="M406.241-662.084c-4.356,0-8.712.01-13.068-.021a1.114,1.114,0,0,0-1.16.751c-1.274,2.608-2.587,5.2-3.885,7.792a27.922,27.922,0,0,1-4.637-.113c1.107-2.555,2.467-4.986,3.667-7.5a1.636,1.636,0,0,0,.317-.955h-8.423l-.059-.062.046-.072,27.025.019q5.6,0,11.2.006a1.51,1.51,0,0,1,.915.1l-10.577.03C407.151-662.1,406.7-662.089,406.241-662.084Z" transform="translate(-122.052 -94.204)" fill="#dee4f0"/>
          <path id="Trazado_624929" data-name="Trazado 624929" d="M318.859-707.069c-.993.008-1.986.039-2.979.017a1.377,1.377,0,0,1-1.436-1.456q-.023-4.811,0-9.622a1.324,1.324,0,0,1,1.18-1.428c1.018-.111,2.035-.034,3.152-.048-1.146,2.139-.49,4.358-.647,6.507-.056.765,0,1.537-.011,2.305C318.1-709.5,317.984-708.186,318.859-707.069Z" transform="translate(-68.564 -46.678)" fill="#d8a03f"/>
          <path id="Trazado_624930" data-name="Trazado 624930" d="M324.6-707.608a2.1,2.1,0,0,1-1.009-2c.047-2.84.031-5.682.008-8.523a2.413,2.413,0,0,1,.841-1.966h-3.078a13.141,13.141,0,0,1,4.727.1c.636.109.862.7.918,1.3.036.4.018.8.025,1.2a.824.824,0,0,1,.226.538c.022,2.176.129,4.353-.056,6.528a1.057,1.057,0,0,1-.177.283c0,.226-.006.453-.008.679-.01,1.36-.542,1.887-1.91,1.887C324.94-707.584,324.771-707.6,324.6-707.608Z" transform="translate(-74.306 -46.14)" fill="#f4de86"/>
          <path id="Trazado_624931" data-name="Trazado 624931" d="M359.478-319.127c.968-.01,1.937,0,2.9-.038.537-.022.683.2.677.7-.021,1.823.049,3.649-.029,5.469a2.313,2.313,0,0,0,1.367,2.33,2.3,2.3,0,0,1,1.015.74c-1.194.007-2.388.023-3.581.019a2.164,2.164,0,0,1-2.366-2.312C359.449-314.521,359.472-316.824,359.478-319.127Z" transform="translate(-105.869 -378.467)" fill="#d8a03f"/>
          <path id="Trazado_624932" data-name="Trazado 624932" d="M475.834-730.415l-6.143,0a11.773,11.773,0,0,1,0-5.407l9.211,0a5.873,5.873,0,0,1-2.254.116c-.61,0-.855.144-.835.8C475.86-733.412,475.831-731.913,475.834-730.415Z" transform="translate(-196.939 -33.25)" fill="#fff"/>
          <path id="Trazado_624933" data-name="Trazado 624933" d="M354.436-696.927q0-3.587-.008-7.173l4.253.026q0,3.574.005,7.148h0A20.166,20.166,0,0,1,354.436-696.927Z" transform="translate(-101.7 -59.537)" fill="#47a731"/>
          <path id="Trazado_624934" data-name="Trazado 624934" d="M361.154-611.426H364.5c-1.483.893-1.461,2.168-1.441,3.455.02,1.307-.013,2.616.013,3.923.01.51-.148.717-.679.7-.965-.039-1.932-.026-2.9-.034-.007-1.956-.03-3.913-.015-5.868A2.153,2.153,0,0,1,361.154-611.426Z" transform="translate(-105.878 -136.32)" fill="#d8a13f"/>
          <path id="Trazado_624935" data-name="Trazado 624935" d="M236.793-686.658c-1.223,0-2.446.009-3.67,0a1.318,1.318,0,0,1-1.442-1.324,1.311,1.311,0,0,1,1.434-1.26q3.712-.022,7.424,0a1.3,1.3,0,0,1,1.4,1.293,1.3,1.3,0,0,1-1.391,1.288C239.3-686.647,238.045-686.658,236.793-686.658Z" transform="translate(0 -71.836)" fill="#81c5e5"/>
          <path id="Trazado_624936" data-name="Trazado 624936" d="M252.029-726.993c-.015,1-.8,1.633-1.672,1.258-1.9-.818-3.771-1.709-5.624-2.63a1.2,1.2,0,0,1-.558-1.675,1.251,1.251,0,0,1,1.706-.648c1.833.831,3.647,1.706,5.458,2.583A1.094,1.094,0,0,1,252.029-726.993Z" transform="translate(-10.238 -37.404)" fill="#81c5e5"/>
          <path id="Trazado_624937" data-name="Trazado 624937" d="M251.876-662.36a1.211,1.211,0,0,1,1.4.991,1.261,1.261,0,0,1-.813,1.513c-1.377.683-2.776,1.323-4.167,1.977a11.782,11.782,0,0,1-1.323.6,1.185,1.185,0,0,1-1.509-.652,1.157,1.157,0,0,1,.4-1.651c1.848-.951,3.737-1.822,5.615-2.714A1.088,1.088,0,0,1,251.876-662.36Z" transform="translate(-11.276 -94.118)" fill="#81c5e5"/>
          <path id="Trazado_624938" data-name="Trazado 624938" d="M442.264-735.992q0,2.7,0,5.407l-2.777,0c0-1.526-.014-3.053.023-4.579.014-.564-.181-.714-.728-.722a7.454,7.454,0,0,1-2.509-.123l4.776-.022Z" transform="translate(-169.512 -33.082)" fill="#dee4f0"/>
          <path id="Trazado_624939" data-name="Trazado 624939" d="M354.4-662.267h4.254c0,.045.007.09.009.135l-4.278.04Z" transform="translate(-101.667 -94.197)" fill="#8edd56"/>
          <path id="Trazado_624940" data-name="Trazado 624940" d="M443.861-460.082a3.391,3.391,0,0,0-2.449,4.142,31.716,31.716,0,0,1,.039,4.608c-.007,1.114-.5,1.7-1.373,1.676-.836-.023-1.29-.593-1.293-1.669-.008-2.193-.023-4.387.012-6.579a1.082,1.082,0,0,0-.642-1.147c-.608-.306-1.179-.685-1.766-1.033-.867-.012-1.411-.729-2.166-.989a12.515,12.515,0,0,0-1.424-.94,1.63,1.63,0,0,1-.719-2.262,1.64,1.64,0,0,1,2.279-.381c.921.512,1.785,1.122,2.713,1.623a1.852,1.852,0,0,1,.655.659c.8.463,1.6,1.289,2.4,1.289s1.6-.826,2.4-1.29c.492-.753,1.342-1.017,2.044-1.481a14.007,14.007,0,0,1,1.463-.867,1.619,1.619,0,0,1,2.131.423,1.6,1.6,0,0,1-.528,2.166c-.542.409-1.191.658-1.7,1.122C445.227-460.736,444.688-460.089,443.861-460.082Z" transform="translate(-165.854 -257.69)" fill="#178035"/>
          <path id="Trazado_624941" data-name="Trazado 624941" d="M496.988-481.5a6.625,6.625,0,0,1,1.6-1.069,1.38,1.38,0,0,0,.646-1.942,1.382,1.382,0,0,0-2.012-.336c-1.168.692-2.327,1.4-3.489,2.1-.489-3.5,2.014-5.27,4.4-6.1a12.1,12.1,0,0,1,4.852-.646.448.448,0,0,1,.113.393c-.565,3.306-2.078,5.965-5.173,7.531C497.64-481.422,497.325-481.224,496.988-481.5Z" transform="translate(-217.073 -237.319)" fill="#8edd56"/>
          <path id="Trazado_624942" data-name="Trazado 624942" d="M420.686-482.674q-1.709-1.027-3.417-2.054c-.861-.515-1.7-.4-2.087.277-.413.72-.143,1.431.706,1.992.481.318,1.111.442,1.4,1.027a.691.691,0,0,1-.8-.038,9.84,9.84,0,0,1-5.186-7.566.438.438,0,0,1,.136-.388,11.5,11.5,0,0,1,6.421,1.372A5.086,5.086,0,0,1,420.686-482.674Z" transform="translate(-148.814 -237.39)" fill="#8edd56"/>
          <path id="Trazado_624943" data-name="Trazado 624943" d="M401.156-489.342a9.973,9.973,0,0,0,4.827,7.606,2.784,2.784,0,0,0,1.023.386c.818.094,1.363.724,2.064,1.048a4.23,4.23,0,0,1-5.267.554,9.585,9.585,0,0,1-4.9-7.652C398.751-488.734,399.55-489.368,401.156-489.342Z" transform="translate(-138.536 -237.47)" fill="#47a731"/>
          <path id="Trazado_624944" data-name="Trazado 624944" d="M503.768-481.358a6.976,6.976,0,0,0,4.1-3.068,11.108,11.108,0,0,0,1.907-4.928c1.74-.011,2.449.655,2.186,2.312a9.369,9.369,0,0,1-5.215,7.446,4.019,4.019,0,0,1-4.886-.714A12.752,12.752,0,0,1,503.768-481.358Z" transform="translate(-223.852 -237.462)" fill="#47a731"/>
        </g>
        <path id="Trazado_251664" data-name="Trazado 251664" d="M375.526,355.045h74.1l37.058,64.168-37.058,64.179h-74.1l-.142-.247-36.9-63.933.142-.247Zm73.534.986H376.1l-36.476,63.181L376.1,482.406h72.964l36.488-63.193Z" transform="translate(-12346.96 -12488.864)" fill="#addbd5"/>
        <path id="Trazado_251665" data-name="Trazado 251665" d="M372.969,349.03H375v1.1h-1.717l-.591,1.024-.951-.549.75-1.3.476.275Zm4.068,0h2.034v1.1h-2.034Zm4.068,0h2.034v1.1h-2.034Zm4.068,0h2.034v1.1h-2.034Zm4.068,0h2.034v1.1h-2.034Zm4.068,0h2.034v1.1h-2.034Zm4.068,0h2.034v1.1h-2.034Zm4.068,0h2.034v1.1h-2.034Zm4.068,0h2.034v1.1h-2.034Zm4.068,0h2.034v1.1h-2.034Zm4.068,0h2.034v1.1h-2.034Zm4.068,0h2.034v1.1h-2.034Zm4.068,0h2.034v1.1h-2.034Zm4.068,0h2.034v1.1h-2.034Zm4.068,0h2.034v1.1h-2.034Zm4.068,0h2.034v1.1h-2.034Zm4.068,0h2.034v1.1h-2.034Zm4.068,0h2.034v1.1h-2.034Zm4.068,0h2.034v1.1h-2.034Zm4.068,0h2.034v1.1h-2.034Zm4.068,0h.567l1.051,1.82-.951.549-.892-1.545.226-.13Zm-83.6,3.334.951.549-1.017,1.762-.951-.549Zm86.236.247,1.017,1.761-.951.549-1.017-1.761Zm-88.27,3.276.951.549-1.017,1.762-.951-.549Zm90.3.246,1.017,1.761-.951.549-1.017-1.761Zm-92.338,3.277.951.549-1.017,1.762-.951-.549Zm94.373.246,1.017,1.761-.951.549-1.017-1.761Zm-96.406,3.277.951.549-1.017,1.762-.951-.549Zm98.441.246,1.017,1.761-.951.549-1.017-1.761Zm-100.475,3.277.951.549-1.017,1.762-.951-.549ZM465.1,366.7l1.017,1.761-.951.549-1.017-1.761ZM360.558,369.98l.951.549-1.017,1.762-.951-.549Zm106.577.245,1.017,1.761-.951.549-1.017-1.761ZM358.524,373.5l.951.549-1.017,1.762-.951-.549Zm110.645.245,1.017,1.761-.951.549-1.017-1.761ZM356.49,377.026l.951.549-1.017,1.762-.951-.549Zm114.714.245,1.017,1.761-.951.549-1.017-1.761Zm-116.747,3.278.951.549-1.017,1.762-.951-.549Zm118.782.245,1.017,1.761-.951.549-1.017-1.761Zm-120.816,3.278.951.549-1.017,1.762-.951-.549Zm122.85.244,1.017,1.761-.951.549-1.017-1.761Zm-124.884,3.279.951.549-1.017,1.761-.951-.549Zm126.918.244,1.017,1.761-.951.549-1.017-1.761Zm-128.952,3.279.951.549-1.017,1.762-.951-.549Zm130.986.244,1.017,1.761-.951.549-1.017-1.761Zm-133.02,3.279.951.549-1.017,1.761-.951-.549Zm135.055.244,1.017,1.761-.951.549-1.017-1.761Zm-137.088,3.279.951.549-1.017,1.762-.951-.549Zm139.123.243,1.017,1.761-.951.549-1.017-1.761Zm-141.157,3.28.951.549L342.187,404l-.951-.549Zm143.191.243,1.017,1.761-.951.549-1.017-1.761Zm-145.225,3.28.951.549-1.017,1.762-.951-.549Zm147.259.243,1.017,1.761-.951.549L486.527,406Zm-149.293,3.28.951.549-1.017,1.761-.951-.549Zm151.327.243,1.017,1.761-.951.549-1.017-1.761Zm-153.361,3.28.951.549-1.017,1.762-.951-.549Zm155.4.242,1.017,1.761-.951.549-1.017-1.761Zm-157.429,3.281.951.549-1.017,1.762-.951-.549Zm159.464.242,1.017,1.761-.951.549-1.017-1.761Zm-161.5,3.281.951.549-.23.4.47.814-.951.549-.787-1.363Zm163.532.242.407.705-.927,1.605-.951-.549.61-1.056-.09-.156Zm-161.324,3.281,1.017,1.762-.951.549-1.017-1.762Zm158.836.242.951.549-1.017,1.761-.951-.549Zm-156.8,3.282,1.017,1.762-.951.549-1.017-1.762Zm154.768.241.951.549-1.017,1.761-.951-.549Zm-152.735,3.282,1.017,1.762-.951.549-1.017-1.762Zm150.7.241.951.549-1.017,1.761-.951-.549Zm-148.667,3.282,1.017,1.762-.951.549-1.017-1.762Zm146.633.241.951.549-1.017,1.761-.951-.549Zm-144.6,3.282,1.017,1.762-.951.549-1.017-1.762Zm142.565.241.951.549-1.017,1.761-.951-.549ZM344.46,440.441l1.017,1.762-.951.549-1.017-1.762Zm138.5.24.951.549-1.017,1.761-.951-.549Zm-136.464,3.283,1.017,1.762-.951.549-1.017-1.762Zm134.43.24.951.549-1.017,1.761-.951-.549Zm-132.4,3.283,1.017,1.762-.951.549-1.017-1.762Zm130.362.24.951.549-1.017,1.761-.951-.549ZM350.561,451.01l1.017,1.762-.951.549-1.017-1.762Zm126.294.24.951.549-1.017,1.761-.951-.549Zm-124.261,3.284,1.017,1.762-.951.549-1.017-1.762Zm122.227.239.951.549-1.017,1.761-.951-.549Zm-120.193,3.284,1.017,1.762-.951.549-1.017-1.762Zm118.159.239.951.549-1.017,1.761-.951-.549ZM356.661,461.58l1.017,1.762-.951.549-1.017-1.762Zm114.091.239.951.549-1.017,1.761-.951-.549ZM358.7,465.1l1.017,1.762-.951.549-1.017-1.762Zm110.024.239.951.549-1.017,1.761-.951-.549Zm-107.99,3.285,1.017,1.762-.951.549-1.017-1.762Zm105.956.238.951.549-1.017,1.761-.951-.549Zm-103.922,3.285,1.017,1.762-.951.549-1.017-1.762Zm101.888.238.951.549-1.017,1.761-.951-.549ZM364.8,475.672l1.017,1.762-.951.549-1.017-1.762Zm97.821.238.951.549-1.017,1.761-.951-.549ZM366.83,479.2l1.017,1.762-.951.549-1.017-1.762Zm93.753.238.951.549-1.017,1.761-.951-.549Zm-91.719,3.286,1.017,1.762-.951.549-1.017-1.762Zm89.685.237.951.549-1.017,1.761-.951-.549ZM370.9,486.242,371.914,488l-.951.549-1.017-1.762Zm85.617.237.951.549-1.017,1.761-.951-.549Zm-83.584,3.286.356.616h.688v1.1h-1.322l-.673-1.166Zm81.55.237.951.549-.536.929h-1.6v-1.1h.961Zm-78.472.38h2.034v1.1h-2.034Zm4.068,0h2.034v1.1h-2.034Zm4.068,0h2.034v1.1h-2.034Zm4.068,0h2.034v1.1h-2.034Zm4.068,0h2.034v1.1H392.28Zm4.068,0h2.034v1.1h-2.034Zm4.068,0h2.034v1.1h-2.034Zm4.068,0h2.034v1.1h-2.034Zm4.068,0h2.034v1.1h-2.034Zm4.068,0h2.034v1.1H412.62Zm4.068,0h2.034v1.1h-2.034Zm4.068,0h2.034v1.1h-2.034Zm4.068,0h2.034v1.1h-2.034Zm4.068,0h2.034v1.1h-2.034Zm4.068,0h2.034v1.1H432.96Zm4.068,0h2.034v1.1h-2.034Zm4.068,0h2.034v1.1H441.1Zm4.068,0H447.2v1.1h-2.034Zm4.068,0h2.034v1.1h-2.034Z" transform="translate(-12348.156 -12489.9)" fill="#addbd5"/>
      </g>
    </g>
  </g>
</svg>
