<svg xmlns="http://www.w3.org/2000/svg" width="130.242" height="112.792" viewBox="0 0 130.242 112.792">
  <g id="Grupo_894784" data-name="Grupo 894784" transform="translate(12704.978 12440.878)">
    <g id="Grupo_894778" data-name="Grupo 894778" transform="translate(-719 38.219)">
      <g id="Grupo_894354" data-name="Grupo 894354">
        <path id="Trazado_251739" data-name="Trazado 251739" d="M455.854,56.04H390.739l-32.569,56.4,32.569,56.39h65.115l32.558-56.39Z" transform="translate(-12344.147 -12535.138)" fill="#fac970" opacity="0.4"/>
        <path id="Trazado_251740" data-name="Trazado 251740" d="M392.429,59.03h2v.98h-2Zm4,0h2v.98h-2Zm4,0h2v.98h-2Zm4,0h2v.98h-2Zm4,0h2v.98h-2Zm4,0h2v.98h-2Zm4,0h2v.98h-2Zm4,0h2v.98h-2Zm4,0h2v.98h-2Zm4,0h2v.98h-2Zm4,0h2v.98h-2Zm4,0h2v.98h-2Zm4,0h2v.98h-2Zm4,0h2v.98h-2Zm4,0h2v.98h-2Zm4,0h.782l.892,1.545-.849.49-.609-1.055h-.216Zm-60.9,1.07.849.49-1,1.732-.849-.49ZM455.1,62.307l1,1.732-.849.49-1-1.732Zm-65.574,1.256.849.49-1,1.732-.849-.49ZM457.1,65.772l1,1.732-.849.49-1-1.732Zm-69.574,1.256.849.49-1,1.732-.849-.49ZM459.1,69.236l1,1.732-.849.49-1-1.732Zm-73.574,1.255.849.49-1,1.732-.849-.49ZM461.1,72.7l1,1.732-.849.49-1-1.732Zm-77.574,1.255.849.49-1,1.732-.849-.49ZM463.1,76.165l1,1.732-.849.49-1-1.732Zm-81.574,1.255.849.49-1,1.732-.849-.49Zm83.573,2.21,1,1.732-.849.49-1-1.732Zm-85.574,1.254.849.49-1,1.732-.849-.49Zm87.573,2.21,1,1.732-.849.49-1-1.732Zm-89.573,1.254.849.49-1,1.732-.849-.49Zm91.573,2.21,1,1.732-.849.49-1-1.732Zm-93.573,1.254.849.49-1,1.732-.849-.49ZM471.1,90.022l1,1.732-.849.49-1-1.732Zm-97.573,1.253.849.49-1,1.732-.849-.49ZM473.1,93.486l1,1.732-.849.49-1-1.732ZM371.526,94.739l.849.49-1,1.732-.849-.49ZM475.1,96.95l1,1.732-.849.49-1-1.732ZM369.526,98.2l.849.49-1,1.732-.849-.49ZM477.1,100.415l1,1.732-.849.49-1-1.732Zm-109.573,1.252.849.49-1,1.732-.849-.49ZM479.1,103.879l1,1.732-.849.49-1-1.732Zm-113.573,1.252.849.49-1,1.732-.849-.49ZM481.1,107.343l1,1.732-.849.49-1-1.732ZM363.526,108.6l.849.49-1,1.732-.849-.49ZM483.1,110.808l.634,1.1-.649,1.124-.849-.49.366-.635-.351-.608Zm-120.263,1.251,1,1.732-.849.49-1-1.732Zm118.4,2.213.849.49-1,1.732-.849-.49Zm-116.4,1.251,1,1.732-.849.49-1-1.732Zm114.4,2.213.849.49-1,1.732-.849-.49Zm-112.4,1.251,1,1.732-.849.49-1-1.732Zm110.4,2.214.849.49-1,1.732-.849-.49Zm-108.4,1.25,1,1.732-.849.49-1-1.732Zm106.4,2.214.849.49-1,1.732-.849-.49Zm-104.4,1.25,1,1.732-.849.49-1-1.732Zm102.4,2.214.849.49-1,1.732-.849-.49Zm-100.4,1.25,1,1.732-.849.49-1-1.732Zm98.4,2.215.849.49-1,1.732-.849-.49Zm-96.4,1.249,1,1.732-.849.49-1-1.732Zm94.4,2.215.849.49-1,1.732-.849-.49Zm-92.4,1.249,1,1.732-.849.49-1-1.732Zm90.4,2.215.849.49-1,1.732-.849-.49Zm-88.4,1.249,1,1.732-.849.49-1-1.732Zm86.4,2.216.849.49-1,1.732-.849-.49Zm-84.4,1.248,1,1.732-.849.49-1-1.732Zm82.4,2.216.849.49-1,1.732-.849-.49Zm-80.4,1.248,1,1.732-.849.49-1-1.732Zm78.4,2.216.849.49-1,1.732-.849-.49Zm-76.4,1.248,1,1.732-.849.49-1-1.732Zm74.4,2.216.849.49-1,1.732-.849-.49Zm-72.4,1.247,1,1.732-.849.49-1-1.732Zm70.4,2.217.849.49-1,1.732-.849-.49Zm-68.4,1.247,1,1.732-.849.49-1-1.732Zm66.4,2.217.849.49-1,1.732-.849-.49Zm-64.4,1.247,1,1.732-.849.49-1-1.732Zm62.4,2.217.849.49-.876,1.518H452.4v-.98h.247ZM392.429,163.8H394.4v.98h-2.252l-.157-.272.44-.254Zm3.969,0h2v.98h-2Zm4,0h2v.98h-2Zm4,0h2v.98h-2Zm4,0h2v.98h-2Zm4,0h2v.98h-2Zm4,0h2v.98h-2Zm4,0h2v.98h-2Zm4,0h2v.98h-2Zm4,0h2v.98h-2Zm4,0h2v.98h-2Zm4,0h2v.98h-2Zm4,0h2v.98h-2Zm4,0h2v.98h-2Zm4,0h2v.98h-2Z" transform="translate(-12343.53 -12534.602)" fill="#6bffb8"/>
      </g>
      <g id="Grupo_894603" data-name="Grupo 894603" transform="translate(-12362.072 -12584.877)">
        <path id="Trazado_624811" data-name="Trazado 624811" d="M404.11,178.624h0a2.945,2.945,0,0,1-1.052-4.032l23.622-40.329a2.947,2.947,0,0,1,4.032-1.054h0a2.945,2.945,0,0,1,1.054,4.034L408.144,177.57A2.949,2.949,0,0,1,404.11,178.624Z" transform="translate(0 18.434)" fill="#2a6041"/>
        <circle id="Elipse_6382" data-name="Elipse 6382" cx="21.81" cy="21.81" r="21.81" transform="matrix(0.803, -0.596, 0.596, 0.803, 404.76, 139.335)" fill="#fff" stroke="#28965a" stroke-miterlimit="10" stroke-width="1.852"/>
      </g>
    </g>
    <g id="Grupo_894779" data-name="Grupo 894779" transform="translate(-13228.315 -12472.395)">
      <g id="Grupo_894606" data-name="Grupo 894606" transform="translate(588.121 109.301)">
        <g id="Grupo_894604" data-name="Grupo 894604" transform="translate(0 0)">
          <path id="Trazado_624812" data-name="Trazado 624812" d="M589.68,142.084a3.2,3.2,0,1,1,3.622,2.709A3.2,3.2,0,0,1,589.68,142.084Z" transform="translate(-589.647 -138.429)" fill="#27debf"/>
          <path id="Trazado_624813" data-name="Trazado 624813" d="M593.975,139.716a.666.666,0,0,0-.525.456.744.744,0,0,0,.247.576,5.227,5.227,0,0,0,1.163.992,1.156,1.156,0,0,0,.9.23.784.784,0,0,0,.523-.66C596.436,140.1,594.962,139.441,593.975,139.716Z" transform="translate(-590.77 -138.791)" fill="#fff" opacity="0.35"/>
          <path id="Trazado_624814" data-name="Trazado 624814" d="M592.555,143.255a3.015,3.015,0,0,1-.858-4.52,3.2,3.2,0,1,0,4.235,3.816A2.492,2.492,0,0,1,592.555,143.255Z" transform="translate(-589.647 -138.519)" opacity="0.1"/>
          <path id="Trazado_624815" data-name="Trazado 624815" d="M592.031,144.437a3.305,3.305,0,0,1-1.918-3.817,3.2,3.2,0,1,0,5.82,2.489C595.59,144.2,594.108,145.314,592.031,144.437Z" transform="translate(-589.647 -139.077)" opacity="0.1"/>
        </g>
        <path id="Trazado_624816" data-name="Trazado 624816" d="M594.776,144.7a2.5,2.5,0,0,1,1.37-1.8.8.8,0,0,1,.8.02c.191.142,20.063,16.427,20.063,16.427l-1.94,2.537S595.187,145.609,595,145.457A.8.8,0,0,1,594.776,144.7Z" transform="translate(-591.16 -139.724)" fill="#37474f"/>
        <g id="Grupo_894605" data-name="Grupo 894605" transform="translate(22.386 18.265)">
          <path id="Trazado_624817" data-name="Trazado 624817" d="M621.468,168.02a3.2,3.2,0,1,1,3.622,2.709A3.2,3.2,0,0,1,621.468,168.02Z" transform="translate(-621.435 -164.365)" fill="#27debf"/>
          <path id="Trazado_624818" data-name="Trazado 624818" d="M621.468,168.02a3.2,3.2,0,1,1,3.622,2.709A3.2,3.2,0,0,1,621.468,168.02Z" transform="translate(-621.435 -164.365)" opacity="0.4"/>
          <path id="Trazado_624819" data-name="Trazado 624819" d="M625.763,165.652a.666.666,0,0,0-.525.456.746.746,0,0,0,.246.576,5.229,5.229,0,0,0,1.164.992,1.156,1.156,0,0,0,.9.23.784.784,0,0,0,.523-.66C628.223,166.035,626.75,165.377,625.763,165.652Z" transform="translate(-622.558 -164.727)" fill="#fff" opacity="0.35"/>
          <path id="Trazado_624820" data-name="Trazado 624820" d="M624.343,169.191a3.015,3.015,0,0,1-.858-4.52,3.2,3.2,0,1,0,4.235,3.816A2.492,2.492,0,0,1,624.343,169.191Z" transform="translate(-621.435 -164.455)" opacity="0.1"/>
          <path id="Trazado_624821" data-name="Trazado 624821" d="M623.819,170.373a3.3,3.3,0,0,1-1.918-3.817,3.2,3.2,0,1,0,5.684,2.886,3.209,3.209,0,0,0,.136-.4C627.378,170.139,625.9,171.25,623.819,170.373Z" transform="translate(-621.435 -165.013)" opacity="0.1"/>
        </g>
      </g>
      <g id="Grupo_894609" data-name="Grupo 894609" transform="translate(589.83 72.673)">
        <g id="Grupo_894607" data-name="Grupo 894607" transform="translate(19.261)">
          <path id="Trazado_624822" data-name="Trazado 624822" d="M619.541,90.474a3.2,3.2,0,1,1,3.938,2.225A3.2,3.2,0,0,1,619.541,90.474Z" transform="translate(-619.423 -86.418)" fill="#27debf"/>
          <path id="Trazado_624823" data-name="Trazado 624823" d="M619.541,90.474a3.2,3.2,0,1,1,3.938,2.225A3.2,3.2,0,0,1,619.541,90.474Z" transform="translate(-619.423 -86.418)" opacity="0.4"/>
          <path id="Trazado_624824" data-name="Trazado 624824" d="M623.368,87.7a.667.667,0,0,0-.463.52.75.75,0,0,0,.319.54,5.216,5.216,0,0,0,1.28.835,1.152,1.152,0,0,0,.917.113.783.783,0,0,0,.435-.72C625.857,87.765,624.312,87.3,623.368,87.7Z" transform="translate(-620.453 -86.755)" fill="#fff" opacity="0.35"/>
          <path id="Trazado_624825" data-name="Trazado 624825" d="M622.53,91.34a3.016,3.016,0,0,1-1.427-4.374,3.2,3.2,0,1,0,4.687,3.246A2.493,2.493,0,0,1,622.53,91.34Z" transform="translate(-619.423 -86.58)" opacity="0.1"/>
          <path id="Trazado_624826" data-name="Trazado 624826" d="M622.089,92.665a3.3,3.3,0,0,1-2.389-3.542,3.2,3.2,0,1,0,6.005,2.138,3.316,3.316,0,0,0,.085-.411C625.59,91.979,624.262,93.269,622.089,92.665Z" transform="translate(-619.423 -87.218)" opacity="0.1"/>
        </g>
        <path id="Trazado_624827" data-name="Trazado 624827" d="M612.611,91.377a2.547,2.547,0,0,1,1.2,1.966.813.813,0,0,1-.314.751c-.206.129-18.094,11.063-18.094,11.063l-1.694-2.782s17.883-10.944,18.1-11.066A.82.82,0,0,1,612.611,91.377Z" transform="translate(-592.557 -87.842)" fill="#37474f"/>
        <g id="Grupo_894608" data-name="Grupo 894608" transform="translate(0 11.956)">
          <path id="Trazado_624828" data-name="Trazado 624828" d="M592.191,107.451a3.2,3.2,0,1,1,3.938,2.225A3.2,3.2,0,0,1,592.191,107.451Z" transform="translate(-592.073 -103.395)" fill="#27debf"/>
          <path id="Trazado_624829" data-name="Trazado 624829" d="M596.019,104.675a.665.665,0,0,0-.463.52.747.747,0,0,0,.318.54,5.232,5.232,0,0,0,1.28.835,1.157,1.157,0,0,0,.918.114.786.786,0,0,0,.435-.721C598.508,104.742,596.962,104.277,596.019,104.675Z" transform="translate(-593.103 -103.732)" fill="#fff" opacity="0.35"/>
          <path id="Trazado_624830" data-name="Trazado 624830" d="M595.18,108.317a3.014,3.014,0,0,1-1.426-4.373,3.2,3.2,0,1,0,4.687,3.246A2.492,2.492,0,0,1,595.18,108.317Z" transform="translate(-592.073 -103.557)" opacity="0.1"/>
          <path id="Trazado_624831" data-name="Trazado 624831" d="M594.74,109.642a3.3,3.3,0,0,1-2.389-3.541,3.2,3.2,0,1,0,6.006,2.137,3.121,3.121,0,0,0,.085-.411C598.24,108.956,596.912,110.247,594.74,109.642Z" transform="translate(-592.073 -104.195)" opacity="0.1"/>
        </g>
      </g>
      <g id="Grupo_894612" data-name="Grupo 894612" transform="translate(595.633 50.175)">
        <g id="Grupo_894610" data-name="Grupo 894610" transform="translate(2.95)">
          <path id="Trazado_624832" data-name="Trazado 624832" d="M604.62,58.526a3.2,3.2,0,1,1,3.938,2.225A3.2,3.2,0,0,1,604.62,58.526Z" transform="translate(-604.502 -54.47)" fill="#27debf"/>
          <path id="Trazado_624833" data-name="Trazado 624833" d="M604.62,58.526a3.2,3.2,0,1,1,3.938,2.225A3.2,3.2,0,0,1,604.62,58.526Z" transform="translate(-604.502 -54.47)" opacity="0.4"/>
          <path id="Trazado_624834" data-name="Trazado 624834" d="M608.447,55.75a.667.667,0,0,0-.463.52.75.75,0,0,0,.319.54,5.256,5.256,0,0,0,1.28.835,1.159,1.159,0,0,0,.917.113.787.787,0,0,0,.435-.721C610.937,55.817,609.391,55.352,608.447,55.75Z" transform="translate(-605.532 -54.808)" fill="#fff" opacity="0.35"/>
          <path id="Trazado_624835" data-name="Trazado 624835" d="M607.609,59.392a3.015,3.015,0,0,1-1.427-4.373,3.2,3.2,0,1,0,4.687,3.246A2.492,2.492,0,0,1,607.609,59.392Z" transform="translate(-604.502 -54.633)" opacity="0.1"/>
          <path id="Trazado_624836" data-name="Trazado 624836" d="M607.169,60.718a3.305,3.305,0,0,1-2.389-3.542,3.2,3.2,0,1,0,6.006,2.138,3.118,3.118,0,0,0,.084-.411C610.669,60.032,609.341,61.322,607.169,60.718Z" transform="translate(-604.502 -55.271)" opacity="0.1"/>
        </g>
        <path id="Trazado_624837" data-name="Trazado 624837" d="M605.792,60.531a2.548,2.548,0,0,1,2.291.251.813.813,0,0,1,.4.707c-.024.242-2.565,24.414-2.565,24.414l-3.237-.361s2.531-24.175,2.565-24.418A.818.818,0,0,1,605.792,60.531Z" transform="translate(-601.014 -56.214)" fill="#263238"/>
        <g id="Grupo_894611" data-name="Grupo 894611" transform="translate(0 25.904)">
          <path id="Trazado_624838" data-name="Trazado 624838" d="M600.431,95.31a3.2,3.2,0,1,1,3.938,2.225A3.2,3.2,0,0,1,600.431,95.31Z" transform="translate(-600.313 -91.254)" fill="#27debf"/>
          <path id="Trazado_624839" data-name="Trazado 624839" d="M604.259,92.534a.667.667,0,0,0-.463.52.749.749,0,0,0,.318.54,5.245,5.245,0,0,0,1.28.835,1.158,1.158,0,0,0,.918.114.785.785,0,0,0,.435-.721C606.748,92.6,605.2,92.135,604.259,92.534Z" transform="translate(-601.343 -91.591)" fill="#fff" opacity="0.35"/>
          <path id="Trazado_624840" data-name="Trazado 624840" d="M603.421,96.176a3.014,3.014,0,0,1-1.427-4.373,3.2,3.2,0,1,0,4.687,3.245A2.492,2.492,0,0,1,603.421,96.176Z" transform="translate(-600.313 -91.416)" opacity="0.1"/>
          <path id="Trazado_624841" data-name="Trazado 624841" d="M602.98,97.5a3.3,3.3,0,0,1-2.389-3.541A3.2,3.2,0,1,0,606.6,96.1a3.208,3.208,0,0,0,.084-.411C606.481,96.815,605.152,98.106,602.98,97.5Z" transform="translate(-600.314 -92.054)" opacity="0.1"/>
        </g>
      </g>
      <g id="Grupo_894615" data-name="Grupo 894615" transform="translate(585.861 83.756)">
        <g id="Grupo_894613" data-name="Grupo 894613" transform="translate(28.903)">
          <path id="Trazado_624842" data-name="Trazado 624842" d="M627.773,104.019a3.2,3.2,0,1,1,1.57,4.242A3.2,3.2,0,0,1,627.773,104.019Z" transform="translate(-627.48 -102.156)" fill="#27debf"/>
          <path id="Trazado_624843" data-name="Trazado 624843" d="M627.773,104.019a3.2,3.2,0,1,1,1.57,4.242A3.2,3.2,0,0,1,627.773,104.019Z" transform="translate(-627.48 -102.156)" opacity="0.4"/>
          <path id="Trazado_624844" data-name="Trazado 624844" d="M633.442,103.971a.667.667,0,0,0-.689.1.75.75,0,0,0-.106.618,5.246,5.246,0,0,0,.438,1.464,1.154,1.154,0,0,0,.627.679.785.785,0,0,0,.8-.269C635.3,105.63,634.421,104.276,633.442,103.971Z" transform="translate(-629.003 -102.678)" fill="#fff" opacity="0.35"/>
          <path id="Trazado_624845" data-name="Trazado 624845" d="M629.6,106.488a3.015,3.015,0,0,1,1.735-4.261,3.2,3.2,0,1,0,1.482,5.5A2.491,2.491,0,0,1,629.6,106.488Z" transform="translate(-627.48 -102.156)" opacity="0.1"/>
          <path id="Trazado_624846" data-name="Trazado 624846" d="M628.821,106.863a3.3,3.3,0,0,1,.463-4.246,3.2,3.2,0,1,0,3.2,5.511,3.136,3.136,0,0,0,.33-.26C631.936,108.6,630.089,108.728,628.821,106.863Z" transform="translate(-627.48 -102.292)" opacity="0.1"/>
        </g>
        <path id="Trazado_624847" data-name="Trazado 624847" d="M617.941,106.051a2.545,2.545,0,0,1,.684,2.2.813.813,0,0,1-.488.651c-.231.074-26.149,7.739-26.149,7.739l-.962-3.112s25.916-7.675,26.152-7.742A.817.817,0,0,1,617.941,106.051Z" transform="translate(-587.795 -103.224)" fill="#455a64"/>
        <g id="Grupo_894614" data-name="Grupo 894614" transform="translate(0 8.587)">
          <path id="Trazado_624848" data-name="Trazado 624848" d="M586.511,118.226a3.2,3.2,0,1,1,3.8,2.447A3.2,3.2,0,0,1,586.511,118.226Z" transform="translate(-586.438 -114.349)" fill="#27debf"/>
          <path id="Trazado_624849" data-name="Trazado 624849" d="M590.555,115.628c-.231.082-.469.248-.492.492a.747.747,0,0,0,.287.557,5.247,5.247,0,0,0,1.23.907,1.158,1.158,0,0,0,.91.166.785.785,0,0,0,.475-.7C593.036,115.836,591.52,115.283,590.555,115.628Z" transform="translate(-587.51 -114.697)" fill="#fff" opacity="0.35"/>
          <path id="Trazado_624850" data-name="Trazado 624850" d="M589.456,119.228a3.014,3.014,0,0,1-1.173-4.448,3.2,3.2,0,1,0,4.493,3.509A2.492,2.492,0,0,1,589.456,119.228Z" transform="translate(-586.438 -114.476)" opacity="0.1"/>
          <path id="Trazado_624851" data-name="Trazado 624851" d="M588.976,120.492a3.3,3.3,0,0,1-2.181-3.673,3.2,3.2,0,1,0,5.872,2.479,3.271,3.271,0,0,0,.108-.406C592.511,120.008,591.11,121.22,588.976,120.492Z" transform="translate(-586.438 -115.079)" opacity="0.1"/>
        </g>
      </g>
      <g id="Grupo_894618" data-name="Grupo 894618" transform="translate(585.474 104.952)">
        <g id="Grupo_894616" data-name="Grupo 894616" transform="translate(0)">
          <path id="Trazado_624852" data-name="Trazado 624852" d="M590.44,138.349a3.2,3.2,0,1,1,1.544-4.251A3.2,3.2,0,0,1,590.44,138.349Z" transform="translate(-585.888 -132.253)" fill="#27debf"/>
          <path id="Trazado_624853" data-name="Trazado 624853" d="M587.215,136.6a.666.666,0,0,0,.589.371.747.747,0,0,0,.48-.4,5.217,5.217,0,0,0,.612-1.4,1.158,1.158,0,0,0-.039-.923.785.785,0,0,0-.783-.31C586.87,134.131,586.666,135.732,587.215,136.6Z" transform="translate(-586.195 -132.746)" fill="#fff" opacity="0.35"/>
          <path id="Trazado_624854" data-name="Trazado 624854" d="M590.924,135.285a3.015,3.015,0,0,1-4.078,2.13,3.2,3.2,0,1,0,2.427-5.159A2.492,2.492,0,0,1,590.924,135.285Z" transform="translate(-586.171 -132.253)" opacity="0.1"/>
          <path id="Trazado_624855" data-name="Trazado 624855" d="M592.4,135.606a3.3,3.3,0,0,1-3.1,2.941,3.2,3.2,0,1,0,1.116-6.276,3.208,3.208,0,0,0-.42-.016C591.147,132.267,592.639,133.364,592.4,135.606Z" transform="translate(-586.898 -132.253)" opacity="0.1"/>
        </g>
        <path id="Trazado_624856" data-name="Trazado 624856" d="M591.257,137.709a2.546,2.546,0,0,1,.518-2.244.812.812,0,0,1,.75-.317c.237.052,28.3,6.57,28.3,6.57l-.737,3.173s-28.071-6.508-28.309-6.57A.817.817,0,0,1,591.257,137.709Z" transform="translate(-587.452 -133.105)" fill="#263238"/>
        <g id="Grupo_894617" data-name="Grupo 894617" transform="translate(28.862 5.606)">
          <circle id="Elipse_6383" data-name="Elipse 6383" cx="3.198" cy="3.198" r="3.198" transform="matrix(0.665, -0.747, 0.747, 0.665, 0, 4.778)" fill="#27debf"/>
          <circle id="Elipse_6384" data-name="Elipse 6384" cx="3.198" cy="3.198" r="3.198" transform="matrix(0.665, -0.747, 0.747, 0.665, 0, 4.778)" opacity="0.4"/>
          <path id="Trazado_624857" data-name="Trazado 624857" d="M634.557,143.809a.666.666,0,0,0-.682.137.746.746,0,0,0-.07.623,5.234,5.234,0,0,0,.522,1.437,1.158,1.158,0,0,0,.665.642.785.785,0,0,0,.781-.316C636.507,145.358,635.551,144.057,634.557,143.809Z" transform="translate(-628.913 -141.267)" fill="#fff" opacity="0.35"/>
          <path id="Trazado_624858" data-name="Trazado 624858" d="M630.929,146.476a3.014,3.014,0,0,1,1.487-4.353,3.2,3.2,0,1,0,1.8,5.411A2.493,2.493,0,0,1,630.929,146.476Z" transform="translate(-627.425 -140.768)" opacity="0.1"/>
          <path id="Trazado_624859" data-name="Trazado 624859" d="M630.164,146.931a3.3,3.3,0,0,1,.219-4.266,3.2,3.2,0,1,0,3.515,5.318,3.267,3.267,0,0,0,.315-.278C633.374,148.486,631.537,148.72,630.164,146.931Z" transform="translate(-627.425 -140.939)" opacity="0.1"/>
        </g>
      </g>
      <g id="Grupo_894621" data-name="Grupo 894621" transform="translate(584.489 97.359)">
        <path id="Trazado_624860" data-name="Trazado 624860" d="M620.771,127.052s-26.459,1.477-29.2,1.624a.14.14,0,0,0-.09-.023c-.458,0-.794-.737-.809-1.569-.015-.815.294-1.608.967-1.688.008,0,.02,0,.032,0,2.844-.158,28.935-1.593,28.935-1.593Z" transform="translate(-586.317 -122.16)" fill="#37474f"/>
        <g id="Grupo_894619" data-name="Grupo 894619" transform="translate(0 1.97)">
          <path id="Trazado_624861" data-name="Trazado 624861" d="M589.1,130.334a3.2,3.2,0,1,1,1.451-4.284A3.2,3.2,0,0,1,589.1,130.334Z" transform="translate(-584.489 -124.268)" fill="#27debf"/>
          <path id="Trazado_624862" data-name="Trazado 624862" d="M585.828,128.67a.667.667,0,0,0,.6.358.748.748,0,0,0,.471-.414,5.268,5.268,0,0,0,.582-1.413,1.16,1.16,0,0,0-.06-.923.785.785,0,0,0-.789-.293C585.428,126.212,585.26,127.817,585.828,128.67Z" transform="translate(-584.792 -124.772)" fill="#fff" opacity="0.35"/>
          <path id="Trazado_624863" data-name="Trazado 624863" d="M589.54,127.265a3.015,3.015,0,0,1-4.03,2.218,3.2,3.2,0,1,0,2.314-5.211A2.491,2.491,0,0,1,589.54,127.265Z" transform="translate(-584.791 -124.268)" opacity="0.1"/>
          <path id="Trazado_624864" data-name="Trazado 624864" d="M591.034,127.57A3.3,3.3,0,0,1,588,130.578a3.2,3.2,0,1,0,.56-6.3C589.707,124.26,591.223,125.324,591.034,127.57Z" transform="translate(-585.528 -124.268)" opacity="0.1"/>
        </g>
        <g id="Grupo_894620" data-name="Grupo 894620" transform="translate(32.422)">
          <path id="Trazado_624865" data-name="Trazado 624865" d="M630.864,123.245a3.2,3.2,0,1,1,1.439,4.289A3.2,3.2,0,0,1,630.864,123.245Z" transform="translate(-630.529 -121.471)" fill="#27debf"/>
          <path id="Trazado_624866" data-name="Trazado 624866" d="M630.864,123.245a3.2,3.2,0,1,1,1.439,4.289A3.2,3.2,0,0,1,630.864,123.245Z" transform="translate(-630.529 -121.471)" opacity="0.4"/>
          <path id="Trazado_624867" data-name="Trazado 624867" d="M636.567,123.339a.665.665,0,0,0-.692.076.747.747,0,0,0-.125.615,5.241,5.241,0,0,0,.393,1.477,1.156,1.156,0,0,0,.606.7.785.785,0,0,0,.806-.244C638.373,125.053,637.535,123.674,636.567,123.339Z" transform="translate(-632.07 -122.006)" fill="#fff" opacity="0.35"/>
          <path id="Trazado_624868" data-name="Trazado 624868" d="M632.616,125.77a3.014,3.014,0,0,1,1.865-4.2,3.2,3.2,0,1,0,1.312,5.548A2.492,2.492,0,0,1,632.616,125.77Z" transform="translate(-630.529 -121.472)" opacity="0.1"/>
          <path id="Trazado_624869" data-name="Trazado 624869" d="M631.828,126.1a3.3,3.3,0,0,1,.594-4.23,3.2,3.2,0,1,0,3.033,5.607,3.225,3.225,0,0,0,.338-.249C634.889,127.936,633.038,128.006,631.828,126.1Z" transform="translate(-630.529 -121.59)" opacity="0.1"/>
        </g>
      </g>
      <g id="Grupo_894624" data-name="Grupo 894624" transform="translate(591.512 44.412)">
        <g id="Grupo_894622" data-name="Grupo 894622" transform="translate(0 0)">
          <path id="Trazado_624870" data-name="Trazado 624870" d="M597.4,52.673a3.2,3.2,0,1,1,3.447-2.929A3.2,3.2,0,0,1,597.4,52.673Z" transform="translate(-594.462 -46.287)" fill="#27debf"/>
          <path id="Trazado_624871" data-name="Trazado 624871" d="M597.4,52.673a3.2,3.2,0,1,1,3.447-2.929A3.2,3.2,0,0,1,597.4,52.673Z" transform="translate(-594.462 -46.287)" opacity="0.4"/>
          <path id="Trazado_624872" data-name="Trazado 624872" d="M595.857,49.272a.665.665,0,0,0,.328.614.746.746,0,0,0,.617-.113,5.24,5.24,0,0,0,1.225-.913,1.158,1.158,0,0,0,.423-.823.786.786,0,0,0-.527-.657C596.778,46.959,595.808,48.249,595.857,49.272Z" transform="translate(-594.874 -46.586)" fill="#fff" opacity="0.35"/>
          <path id="Trazado_624873" data-name="Trazado 624873" d="M599.108,50.267a3.014,3.014,0,0,1-4.6-.169,3.2,3.2,0,1,0,4.663-3.28A2.49,2.49,0,0,1,599.108,50.267Z" transform="translate(-594.476 -46.444)" opacity="0.1"/>
          <path id="Trazado_624874" data-name="Trazado 624874" d="M600,50.917a3.3,3.3,0,0,1-4.148,1.021,3.2,3.2,0,1,0,4.078-4.9,3.07,3.07,0,0,0-.357-.22C600.56,47.4,601.313,49.087,600,50.917Z" transform="translate(-594.872 -46.444)" opacity="0.1"/>
        </g>
        <path id="Trazado_624875" data-name="Trazado 624875" d="M598.4,52.8a2.544,2.544,0,0,1,2.041-1.07.813.813,0,0,1,.729.363c.115.213,11.747,22.194,11.747,22.194l-2.887,1.508s-11.641-21.977-11.749-22.2A.819.819,0,0,1,598.4,52.8Z" transform="translate(-595.574 -47.896)" fill="#37474f"/>
        <g id="Grupo_894623" data-name="Grupo 894623" transform="translate(12.174 22.811)">
          <path id="Trazado_624876" data-name="Trazado 624876" d="M611.867,82.734a3.2,3.2,0,1,1,3.938,2.225A3.2,3.2,0,0,1,611.867,82.734Z" transform="translate(-611.749 -78.678)" fill="#27debf"/>
          <path id="Trazado_624877" data-name="Trazado 624877" d="M615.694,79.958a.666.666,0,0,0-.463.52.747.747,0,0,0,.318.54,5.246,5.246,0,0,0,1.28.834,1.157,1.157,0,0,0,.918.114.786.786,0,0,0,.435-.721C618.184,80.025,616.638,79.56,615.694,79.958Z" transform="translate(-612.779 -79.015)" fill="#fff" opacity="0.35"/>
          <path id="Trazado_624878" data-name="Trazado 624878" d="M614.857,83.6a3.014,3.014,0,0,1-1.427-4.373,3.2,3.2,0,1,0,4.687,3.246A2.492,2.492,0,0,1,614.857,83.6Z" transform="translate(-611.749 -78.84)" opacity="0.1"/>
          <path id="Trazado_624879" data-name="Trazado 624879" d="M614.416,84.925a3.3,3.3,0,0,1-2.389-3.541,3.2,3.2,0,1,0,6.006,2.137,3.121,3.121,0,0,0,.084-.411C617.916,84.239,616.588,85.53,614.416,84.925Z" transform="translate(-611.749 -79.478)" opacity="0.1"/>
        </g>
      </g>
      <g id="Grupo_894627" data-name="Grupo 894627" transform="translate(585.992 39.949)">
        <g id="Grupo_894625" data-name="Grupo 894625" transform="translate(0)">
          <path id="Trazado_624880" data-name="Trazado 624880" d="M586.656,43.6a3.2,3.2,0,1,1,3.622,2.708A3.2,3.2,0,0,1,586.656,43.6Z" transform="translate(-586.623 -39.949)" fill="#27debf"/>
          <path id="Trazado_624881" data-name="Trazado 624881" d="M586.656,43.6a3.2,3.2,0,1,1,3.622,2.708A3.2,3.2,0,0,1,586.656,43.6Z" transform="translate(-586.623 -39.949)" opacity="0.4"/>
          <path id="Trazado_624882" data-name="Trazado 624882" d="M590.951,41.236a.667.667,0,0,0-.526.456.749.749,0,0,0,.247.576,5.243,5.243,0,0,0,1.163.992,1.159,1.159,0,0,0,.9.23.785.785,0,0,0,.523-.66C593.411,41.619,591.937,40.961,590.951,41.236Z" transform="translate(-587.746 -40.311)" fill="#fff" opacity="0.35"/>
          <path id="Trazado_624883" data-name="Trazado 624883" d="M589.531,44.774a3.015,3.015,0,0,1-.858-4.52,3.2,3.2,0,1,0,4.235,3.817A2.492,2.492,0,0,1,589.531,44.774Z" transform="translate(-586.623 -40.039)" opacity="0.1"/>
          <path id="Trazado_624884" data-name="Trazado 624884" d="M589.007,45.957a3.3,3.3,0,0,1-1.918-3.817,3.2,3.2,0,1,0,5.684,2.886,3.1,3.1,0,0,0,.137-.4C592.566,45.723,591.084,46.834,589.007,45.957Z" transform="translate(-586.623 -40.597)" opacity="0.1"/>
        </g>
        <path id="Trazado_624885" data-name="Trazado 624885" d="M591.752,46.219a2.5,2.5,0,0,1,1.37-1.8.8.8,0,0,1,.8.02c.191.142,22.192,16.787,22.192,16.787l-1.94,2.536s-22.009-16.637-22.2-16.789A.8.8,0,0,1,591.752,46.219Z" transform="translate(-588.136 -41.244)" fill="#455a64"/>
        <g id="Grupo_894626" data-name="Grupo 894626" transform="translate(24.516 18.624)">
          <path id="Trazado_624886" data-name="Trazado 624886" d="M621.468,70.051a3.2,3.2,0,1,1,3.622,2.708A3.2,3.2,0,0,1,621.468,70.051Z" transform="translate(-621.435 -66.395)" fill="#27debf"/>
          <path id="Trazado_624887" data-name="Trazado 624887" d="M625.763,67.683a.664.664,0,0,0-.525.456.746.746,0,0,0,.246.576,5.245,5.245,0,0,0,1.164.991,1.157,1.157,0,0,0,.9.23.785.785,0,0,0,.523-.66C628.223,68.065,626.75,67.407,625.763,67.683Z" transform="translate(-622.558 -66.757)" fill="#fff" opacity="0.35"/>
          <path id="Trazado_624888" data-name="Trazado 624888" d="M624.343,71.221a3.015,3.015,0,0,1-.858-4.52,3.2,3.2,0,1,0,4.235,3.817A2.492,2.492,0,0,1,624.343,71.221Z" transform="translate(-621.435 -66.485)" opacity="0.1"/>
          <path id="Trazado_624889" data-name="Trazado 624889" d="M623.819,72.4a3.3,3.3,0,0,1-1.918-3.817,3.2,3.2,0,1,0,5.82,2.489C627.378,72.169,625.9,73.28,623.819,72.4Z" transform="translate(-621.435 -67.043)" opacity="0.1"/>
        </g>
      </g>
    </g>
  </g>
</svg>
