<svg xmlns="http://www.w3.org/2000/svg" width="137.602" height="119.166" viewBox="0 0 137.602 119.166">
  <g id="Grupo_894785" data-name="Grupo 894785" transform="translate(12678.093 12124.898)">
    <g id="Grupo_894781" data-name="Grupo 894781" transform="translate(-317.679 49.062)">
      <g id="Grupo_874817" data-name="Grupo 874817" transform="translate(-12393.688 -12500.793)">
        <path id="Trazado_251720" data-name="Trazado 251720" d="M152.529,339.23h-68.8l-34.4,59.588,34.4,59.578h68.8l34.4-59.578Z" transform="translate(-16.057 -12.396)" fill="#dbefec" opacity="0.8"/>
        <path id="Trazado_251721" data-name="Trazado 251721" d="M87.143,344.34h1.609v.788H87.37l-.084.145-.683-.394.2-.342.341.2Zm3.217,0h1.609v.788H90.36Zm3.217,0h1.609v.788H93.577Zm3.217,0H98.4v.788H96.795Zm3.217,0h1.609v.788h-1.609Zm3.217,0h1.609v.788h-1.609Zm3.217,0h1.609v.788h-1.609Zm3.217,0h1.609v.788h-1.609Zm3.217,0h1.609v.788h-1.609Zm3.217,0h1.609v.788H116.1Zm3.217,0h1.609v.788h-1.609Zm3.217,0h1.609v.788h-1.609Zm3.217,0h1.609v.788h-1.609Zm3.217,0h1.609v.788h-1.609Zm3.217,0h1.609v.788h-1.609Zm3.217,0h1.609v.788H135.4Zm3.217,0h1.609v.788H138.62Zm3.217,0h1.609v.788h-1.609Zm3.217,0h1.609v.788h-1.609Zm3.217,0h1.609v.788h-1.609Zm2.79,1.529.8,1.393-.683.394-.8-1.393Zm-65.262.4.683.394-.8,1.393L85,347.666Zm66.871,2.383.8,1.393-.683.394-.8-1.393Zm-68.48.4.683.394-.8,1.393-.683-.394Zm70.088,2.383.8,1.393-.683.394-.8-1.393Zm-71.7.4.683.394-.8,1.393-.683-.394Zm73.306,2.383.8,1.393-.683.394-.8-1.393Zm-74.914.4.683.394-.8,1.393-.683-.394Zm76.523,2.382.8,1.393-.683.394-.8-1.393Zm-78.131.4.683.394-.8,1.393-.683-.394Zm79.74,2.382.8,1.393-.683.394-.8-1.393Zm-81.349.4.683.394-.8,1.393-.683-.394Zm82.957,2.382.8,1.393-.683.394-.8-1.393Zm-84.566.4.683.394-.8,1.393-.683-.394Zm86.175,2.382.8,1.393-.683.394-.8-1.393Zm-87.783.4.683.394-.8,1.393-.683-.394Zm89.392,2.382.8,1.393-.683.394-.8-1.393Zm-91,.4.683.394-.8,1.393-.683-.394Zm92.609,2.381.8,1.393-.683.394-.8-1.393Zm-94.217.405.683.394-.8,1.393-.683-.394Zm95.826,2.381.8,1.393-.683.394-.8-1.393Zm-97.435.405.683.394-.8,1.393-.683-.394Zm99.043,2.381.8,1.393-.683.394-.8-1.393Zm-100.652.406.683.394-.8,1.393-.683-.394ZM170.367,379.3l.8,1.393-.683.394-.8-1.393ZM66.5,379.71l.683.394-.8,1.393-.683-.394Zm105.478,2.38.8,1.393-.683.394-.8-1.393ZM64.89,382.5l.683.394-.8,1.393-.683-.394Zm108.7,2.38.8,1.393-.683.394-.8-1.393Zm-110.3.406.683.394-.8,1.393-.683-.394Zm111.912,2.38.8,1.393-.683.394-.8-1.393Zm-113.521.406.683.394-.8,1.393-.683-.394Zm115.13,2.38.8,1.393-.683.394-.8-1.393Zm-116.738.407.683.394-.8,1.393-.683-.394Zm118.347,2.38.8,1.393-.683.394-.8-1.393Zm-119.955.407.683.394-.8,1.393-.683-.394Zm121.564,2.379.8,1.393-.683.394-.8-1.393Zm-123.172.407.683.394-.8,1.393-.683-.394Zm124.781,2.379.182.315-.85,1.472-.683-.394.736-1.275.205.118Zm-125.373.407.8,1.393-.683.394-.8-1.393Zm123.218,2.379.683.394-.8,1.393-.683-.394ZM57.864,402l.8,1.393-.683.394-.8-1.393Zm120,2.379.683.394-.8,1.393-.683-.394Zm-118.392.408.8,1.393-.683.394-.8-1.393Zm116.784,2.379.683.394-.8,1.393-.683-.394Zm-115.175.408.8,1.393-.683.394-.8-1.393Zm113.566,2.378.683.394-.8,1.393-.683-.394Zm-111.958.408.8,1.393-.683.394-.8-1.393Zm110.349,2.378.683.394-.8,1.393-.683-.394ZM64.3,413.148l.8,1.393-.683.394-.8-1.393Zm107.132,2.378.683.394-.8,1.393-.683-.394Zm-105.523.408.8,1.393-.683.394-.8-1.393Zm103.915,2.378.683.394-.8,1.393-.683-.394Zm-102.306.409.8,1.393-.683.394-.8-1.393Zm100.7,2.378.683.394-.8,1.393-.683-.394Zm-99.089.409.8,1.393-.683.394-.8-1.393Zm97.48,2.377.683.394-.8,1.393-.683-.394Zm-95.872.409.8,1.393-.683.394-.8-1.393Zm94.263,2.377.683.394-.8,1.393-.683-.394Zm-92.655.409.8,1.393-.683.394-.8-1.393Zm91.046,2.377.683.394-.8,1.393-.683-.394Zm-89.437.409.8,1.393-.683.394-.8-1.393Zm87.829,2.377.683.394-.8,1.393-.683-.394Zm-86.22.41.8,1.393-.683.394-.8-1.393Zm84.611,2.377.683.394-.8,1.393-.683-.394Zm-83,.41.8,1.393-.683.394-.8-1.393Zm81.394,2.376.683.394-.8,1.393-.683-.394Zm-79.786.41.8,1.393-.683.394-.8-1.393Zm78.177,2.376.683.394-.8,1.393-.683-.394Zm-76.568.41.8,1.393-.683.394-.8-1.393Zm74.96,2.376.683.394-.8,1.393-.683-.394Zm-73.351.411.8,1.393-.683.394-.8-1.393Zm71.742,2.376.683.394-.8,1.393-.683-.394Zm-70.134.411.8,1.393-.683.394-.8-1.393Zm68.525,2.376.683.394-.8,1.393-.683-.394Zm-66.917.411.8,1.393-.683.394-.8-1.393Zm65.308,2.375.683.394-.8,1.393-.683-.394Zm-63.7.411.554.96h.045v.078l.069.119-.069.04v.551h-.5l-.782-1.354Zm2.208.96h1.609v.788H89.024Zm3.217,0H93.85v.788H92.241Zm3.217,0h1.609v.788H95.459Zm3.217,0h1.609v.788H98.676Zm3.217,0H103.5v.788h-1.609Zm3.217,0h1.609v.788h-1.609Zm3.217,0h1.609v.788h-1.609Zm3.217,0h1.609v.788h-1.609Zm3.217,0h1.609v.788h-1.609Zm3.217,0h1.609v.788H117.98Zm3.217,0h1.609v.788H121.2Zm3.217,0h1.609v.788h-1.609Zm3.217,0h1.609v.788h-1.609Zm3.217,0h1.609v.788h-1.609Zm3.217,0h1.609v.788h-1.609Zm3.217,0h1.609v.788h-1.609Zm3.217,0h1.609v.788H140.5Zm3.217,0h1.609v.788h-1.609Zm3.217,0h1.609v.788h-1.609Z" transform="translate(-16.478 -12.702)" fill="#169788"/>
      </g>
      <g id="Grupo_894629" data-name="Grupo 894629" transform="translate(-13112.304 -12109.139)">
        <path id="Trazado_624890" data-name="Trazado 624890" d="M847.616-36.154a7.548,7.548,0,0,1,1.811-1.929c.535.054.545.539.689.882,1.025,2.44,1.984,4.907,3.008,7.348a3.959,3.959,0,0,0,.391.789c1.184-2.79,2.345-5.473,3.409-8.2.984-2.089,1.765-4.266,2.738-6.36a.776.776,0,0,1,.2-.125c1.909-.511,1.425-.826,2.375,1.112a37.279,37.279,0,0,1-1.811,4.564c-.72,1.8-1.475,3.578-2.233,5.358-.638,1.4-1.175,2.833-1.825,4.333a15.532,15.532,0,0,0,1.832-.759c2.24-.864,4.432-1.841,6.649-2.76a1.312,1.312,0,0,1,.534-.17,7.173,7.173,0,0,1,.006,2.933,9.6,9.6,0,0,1-2.534,1.208c-1.765.794-3.57,1.5-5.352,2.254a8.9,8.9,0,0,1-.893.379,3.5,3.5,0,0,0-2.68,2.7c-.39,1.2-.991,2.334-1.411,3.533-.78,1.541-1.249,3.221-2.119,4.722l-.881.376a33.4,33.4,0,0,1,3.293,11.969,34.348,34.348,0,0,1-4.919,21.367,34.829,34.829,0,0,1-25.692,16.85,3.422,3.422,0,0,0-1.538.293h-1.3a.88.88,0,0,0-.813,0h-1.137a1.661,1.661,0,0,0-1.138,0h-.65a.21.21,0,0,0-.325,0h-.813c-1.053-.242-2.139-.166-3.2-.365a35,35,0,0,1-17.364-8.494,35.466,35.466,0,0,1-10.553-17.03A32.707,32.707,0,0,1,782.3,4.341v-.65a.371.371,0,0,0,0-.488V2.716a4.06,4.06,0,0,0,0-1.788V-.209c.155-.179.054-.394.084-.591-.01-.132.035-.275-.084-.384v-.65a10.1,10.1,0,0,0,.441-2.417c.2-.946.663-1.412,1.415-1.32.776.095,1.187.746,1.032,1.713a32,32,0,0,0-.152,9.141,32.233,32.233,0,0,0,8.122,17.8A31.99,31.99,0,0,0,814.27,33.854a32.691,32.691,0,0,0,32.844-18.242,32.714,32.714,0,0,0-9.425-40.428c-.722-.567-1.5-1.061-2.254-1.588a9.336,9.336,0,0,1-2.475-.288c-1.569-.247-3.134-.52-4.7-.778-1.665-.344-3.346-.6-5.02-.9a1.51,1.51,0,0,0-1.268.37q-4.272,3.344-8.574,6.65c-1.582,1.22-3.152,2.454-4.743,3.661a1.589,1.589,0,0,1-.855.429,4.976,4.976,0,0,1-2.44-.93c-.212-.482.165-.69.45-.917,1.8-1.433,3.614-2.838,5.436-4.239,2.463-1.894,4.925-3.79,7.448-5.769-2.191-.378-4.306-.726-6.416-1.106-.718-.129-1.454-.187-2.156-.37a2.292,2.292,0,0,0-2.156.573c-2.857,2.271-5.76,4.482-8.657,6.7-.225.172-.408.46-.765.36a8.763,8.763,0,0,1-1.83-1.771c.11-.4.459-.587.755-.816,2.5-1.935,5.005-3.862,7.591-5.869-2.5-.4-4.9-.848-7.314-1.245-2.348-.387-4.694-.785-7.042-1.172a2.16,2.16,0,0,1-1.064-.357,2.725,2.725,0,0,1-.191-.25c-.78-1.3-.78-1.3.446-2.222a2.148,2.148,0,0,1,1.19-.073c4.446.75,8.89,1.518,13.339,2.249a1.647,1.647,0,0,0,.917.044c-1.021-1.456-2.126-2.811-3.187-4.2-.886-1.158-1.788-2.3-2.68-3.457-.221-.285-.546-.571-.278-1a10.322,10.322,0,0,1,2.128-.992,1.855,1.855,0,0,1,.887.8c2.336,3.014,4.656,6.041,6.992,9.055a1.7,1.7,0,0,0,1.03.731c2.836.54,5.69.971,8.636,1.478-3.093-3.962-6.088-7.858-9.122-11.724q-.7-.894-1.366-1.815c-.159-.222-.458-.43-.233-.778a11.975,11.975,0,0,1,2.768-.314c.655.357.97,1.026,1.426,1.565.221.262.416.546.655.8,3.219,4.176,6.465,8.329,9.69,12.5a1.426,1.426,0,0,0,1.014.6c.942.1,1.856.374,2.806.42,2.694.506,5.4.913,8.1,1.372a8.317,8.317,0,0,1,1.17.284,37.148,37.148,0,0,1,9.74,8.592c.5.059.49.52.607.832.438,1.177.936,2.326,1.44,3.474a5.024,5.024,0,0,0,.3.728,8.067,8.067,0,0,0,.441-1.085q1.578-3.78,3.17-7.552a2.47,2.47,0,0,0,.012-2.083C850.273-29.137,849.1-32.073,847.9-35A1.733,1.733,0,0,1,847.616-36.154Z" transform="translate(0 -0.15)" fill="#09a56d"/>
        <path id="Trazado_624891" data-name="Trazado 624891" d="M782.3,245.531a2.121,2.121,0,0,1,0,1.788Z" transform="translate(0 -244.752)" fill="#1bac77"/>
        <path id="Trazado_624892" data-name="Trazado 624892" d="M990.819,463.035a.938.938,0,0,1,1.138,0Z" transform="translate(-174.55 -426.665)" fill="#22ae7b"/>
        <path id="Trazado_624893" data-name="Trazado 624893" d="M1004.786,463.1a.551.551,0,0,1,.813,0Z" transform="translate(-186.242 -426.735)" fill="#31b484"/>
        <path id="Trazado_624894" data-name="Trazado 624894" d="M782.448,234.265c.006.231.1.48-.144.657v-.65Q782.371,234.166,782.448,234.265Z" transform="translate(0 -235.281)" fill="#5ac39d"/>
        <path id="Trazado_624895" data-name="Trazado 624895" d="M782.3,259.5c.2.163.239.325,0,.488Z" transform="translate(0 -256.444)" fill="#7bcfb0"/>
        <path id="Trazado_624896" data-name="Trazado 624896" d="M782.448,232.879l-.144.007v-.325C782.467,232.615,782.46,232.746,782.448,232.879Z" transform="translate(0 -233.895)" fill="#7ccfb0"/>
        <path id="Trazado_624897" data-name="Trazado 624897" d="M984.833,463.274c.108-.206.217-.182.325,0Z" transform="translate(-169.539 -426.905)" fill="#80d1b4"/>
        <path id="Trazado_624898" data-name="Trazado 624898" d="M856.108,114.845a11.759,11.759,0,0,0,2.437.9,6.232,6.232,0,0,1,1.8.257,15.785,15.785,0,0,0,4.825.324,1.493,1.493,0,0,1,.951.106c.29.513-.193.671-.451.865a30.826,30.826,0,0,0-3.273,2.527c-1.984,1.955-3.4,4.176-2.942,7.124.476,3.037,2.427,5.1,5.7,5.133a38.039,38.039,0,0,0,6.2-.716,6.949,6.949,0,0,1,1.129-.108,2.121,2.121,0,0,1,2.186,1.48,9.369,9.369,0,0,1,.67,3.733c-.055,2.762.186,5.513.2,8.272a10.179,10.179,0,0,0,.607,3.585,2.62,2.62,0,0,0,3.556,1.756,7.622,7.622,0,0,0,3.008-1.71,2.994,2.994,0,0,1,1.26-.853c.443.344.049.633-.1.886a25.085,25.085,0,0,1-3.084,4.26,27.581,27.581,0,0,1-14.4,8.565,4.135,4.135,0,0,0-1.327.285,27.3,27.3,0,0,1-10.764-3.8,9.821,9.821,0,0,1-1.981-1.4,2.234,2.234,0,0,1-.132-1.353,12.5,12.5,0,0,0-1.9-7.895,3.1,3.1,0,0,1-.277-2.431,21.967,21.967,0,0,1,1.646-4.054,24.97,24.97,0,0,0,1.345-3.3c.49-1.66.068-2.562-1.518-3.231a16.224,16.224,0,0,0-2.005-.654,4.212,4.212,0,0,1-2.614-1.913c-.969-1.6-1.831-3.254-2.752-4.877-.359-.633-1.06-1.025-1.2-1.794a26.815,26.815,0,0,1,8.7-12.017,2.861,2.861,0,0,0,.33-.351c.267-.155.469.022.661.152a19.761,19.761,0,0,0,2.921,1.708A1.354,1.354,0,0,1,856.108,114.845Z" transform="translate(-50.736 -133.293)" fill="#88c7fc"/>
        <path id="Trazado_624899" data-name="Trazado 624899" d="M978.645,234.277c-.088-.192-.05-.263.183-.3a26.113,26.113,0,0,0,12.381-5.8,27.286,27.286,0,0,0,6.243-7.377.778.778,0,0,0,.183-.518c-.063-.44.265-.681.5-.972a7.919,7.919,0,0,0,2.064-5.646,31.382,31.382,0,0,1,.467-3.125c.28-1.914.077-3.838.194-5.751a1.024,1.024,0,0,1,.049-.259,9.479,9.479,0,0,1,2.06-2.142,28.714,28.714,0,0,1,4.5-2.849c.228-.125.462-.3.756-.182a19.792,19.792,0,0,1,1.1,5.772,27.42,27.42,0,0,1-23.007,29.028A27.289,27.289,0,0,1,978.645,234.277Z" transform="translate(-164.322 -206.06)" fill="#60b5fe"/>
        <path id="Trazado_624900" data-name="Trazado 624900" d="M833.8,188.685c1.313,1.164,1.943,2.78,2.805,4.243.412.7.827,1.4,1.205,2.115a4.14,4.14,0,0,0,2.844,2.093,8.365,8.365,0,0,1,2.7,1.071,2.05,2.05,0,0,1,.925,2.167,14.136,14.136,0,0,1-1.3,3.654,29.981,29.981,0,0,0-1.868,4.485,3.11,3.11,0,0,0,.374,2.55,12.151,12.151,0,0,1,1.811,7.589c-.049.512-.064,1.027-.095,1.54a22.188,22.188,0,0,1-5.1-4.809,26.916,26.916,0,0,1-5.833-13.587,27.265,27.265,0,0,1,1.309-12.685A3.164,3.164,0,0,1,833.8,188.685Z" transform="translate(-41.621 -197.166)" fill="#b9ea6c"/>
        <path id="Trazado_624901" data-name="Trazado 624901" d="M1070.835,115.3a24.191,24.191,0,0,0-7.126,5.086c-.423,0-.357-.339-.385-.579a26.894,26.894,0,0,0-6.444-14.6,23.107,23.107,0,0,0-2.822-2.784,2.062,2.062,0,0,1-.652-.706c-.05-.275.155-.384.339-.492,1.167-.684,2.328-1.378,3.452-2.132.173-.116.357-.262.6-.147a29.908,29.908,0,0,1,6.97,5.508,27.657,27.657,0,0,1,6.022,10.443A2.159,2.159,0,0,1,1070.835,115.3Z" transform="translate(-226.935 -122.009)" fill="#95d529"/>
        <path id="Trazado_624902" data-name="Trazado 624902" d="M959.882-44.391a21.335,21.335,0,0,1-1.94-2.413c5.4-.36,10.036,1.581,14.2,4.836a43.627,43.627,0,0,1,10.666,12.7,3.829,3.829,0,0,1-1.944-.188c-2.492-.4-4.976-.856-7.463-1.29-.854-.946-1.486-2.055-2.238-3.076a39.118,39.118,0,0,0-9-9.032A17.832,17.832,0,0,1,959.882-44.391Z" transform="translate(-147.028)" fill="#07b028"/>
        <path id="Trazado_624903" data-name="Trazado 624903" d="M888.818,62.621a38.473,38.473,0,0,1-4.162-2.4c-.869-.774-1.871-1.392-2.667-2.253q4.889-3.789,9.774-7.584a1.527,1.527,0,0,1,1.273-.361c3.15.551,6.3,1.1,9.584,1.667-1.306,1.023-2.536,2-3.778,2.958q-4.829,3.734-9.666,7.459A.725.725,0,0,0,888.818,62.621Z" transform="translate(-83.446 -81.069)" fill="#49ca5c"/>
        <path id="Trazado_624904" data-name="Trazado 624904" d="M905.879-44.655a31.528,31.528,0,0,0,2.819,3.826c2.172,2.857,4.4,5.67,6.606,8.5l1.769,2.268c-2.182-.361-4.237-.7-6.29-1.041a20.063,20.063,0,0,0-2.387-.395c-1.093-.048-1.573-.835-2.124-1.546q-3.622-4.669-7.217-9.358A28.584,28.584,0,0,1,905.879-44.655Z" transform="translate(-97.733 -1.835)" fill="#49ca5c"/>
        <path id="Trazado_624905" data-name="Trazado 624905" d="M1167.5,17.881q2.195,5.358,4.392,10.714a.645.645,0,0,1,.01.541q-1.793,4.209-3.573,8.424c-.271.263-.529.561-.972.365a33.06,33.06,0,0,1-1.8-4.144c-.043-.1-.1-.184-.156-.276a36.516,36.516,0,0,0-.741-3.8c-.586-4.083-.135-7.931,2.407-11.342C1167.2,18.186,1167.354,18.039,1167.5,17.881Z" transform="translate(-319.883 -54.184)" fill="#49ca5c"/>
        <path id="Trazado_624906" data-name="Trazado 624906" d="M970.433,74.7l-4.361,2.692a.757.757,0,0,1-.4.381,28.8,28.8,0,0,1-10.064,3.338.7.7,0,0,1-.613-.1,21.222,21.222,0,0,1-5.17-.186c-.264-.048-.524-.124-.785-.186.055-.411.428-.367.681-.431,6.008-1.507,11.132-4.654,15.883-8.509a19.2,19.2,0,0,1,2.116-1.761,69.62,69.62,0,0,1,7.291,1.27C973.508,72.4,972.015,73.606,970.433,74.7Z" transform="translate(-139.575 -97.759)" fill="#07b028"/>
        <path id="Trazado_624907" data-name="Trazado 624907" d="M1207.316,64.233q3.764-1.565,7.529-3.128a4.171,4.171,0,0,1,.461-.133,12.793,12.793,0,0,1-4.1,8.651,26.365,26.365,0,0,1-10.893,6.148,24.821,24.821,0,0,1,1.345-3.491,11.026,11.026,0,0,1,.6-1.225c.138-.165.2-.381.373-.524a15.326,15.326,0,0,0,4.507-6.027A.844.844,0,0,1,1207.316,64.233Z" transform="translate(-349.922 -90.256)" fill="#07b028"/>
        <path id="Trazado_624908" data-name="Trazado 624908" d="M827.328,29.982c2.174.341,4.35.67,6.521,1.028,2.807.463,5.61.947,8.413,1.428.284.049.561.136.972.237L834.4,39.441A44.042,44.042,0,0,1,827.328,29.982Z" transform="translate(-37.69 -64.314)" fill="#49ca5c"/>
        <path id="Trazado_624909" data-name="Trazado 624909" d="M838.194-24.712c-.011.552.433.856.717,1.225,1.934,2.524,3.9,5.026,5.846,7.538.042.054.032.147.063.308-1.812-.3-3.577-.605-5.344-.9q-5.291-.873-10.583-1.737A48.657,48.657,0,0,1,838.194-24.712Z" transform="translate(-39 -18.529)" fill="#49ca5c"/>
        <path id="Trazado_624910" data-name="Trazado 624910" d="M1246.687-11.983c.845-2.382,1.9-4.681,2.874-7.009a14.886,14.886,0,0,1,1.326-2.912,27.731,27.731,0,0,1,3.145,10.566c-.261.447-.763.475-1.171.653-1.848.8-3.7,1.583-5.561,2.364a2.223,2.223,0,0,1-.471.088,2.133,2.133,0,0,1-.219-1.459A10.586,10.586,0,0,1,1246.687-11.983Z" transform="translate(-388.655 -20.88)" fill="#07b028"/>
        <path id="Trazado_624911" data-name="Trazado 624911" d="M1202.03-13.091a34.782,34.782,0,0,1-1.553,3.989c-.547,1.436-1.184,2.839-1.786,4.254a4.571,4.571,0,0,1-.3.471c-.51-1.229-.974-2.331-1.425-3.438-.744-1.823-1.477-3.652-2.225-5.473a4.665,4.665,0,0,0-.37-.617,23.7,23.7,0,0,1,6.013-3.881,16.654,16.654,0,0,1,1.706,4.145A.808.808,0,0,1,1202.03-13.091Z" transform="translate(-344.946 -24.327)" fill="#49ca5c"/>
        <path id="Trazado_624912" data-name="Trazado 624912" d="M1232.894-21.608a23.7,23.7,0,0,0-1.393-3.859,1.587,1.587,0,0,1-.251-.836,21.465,21.465,0,0,1,4.222-1.657c.154.467-.164.818-.325,1.191C1234.4-25.047,1233.808-23.258,1232.894-21.608Z" transform="translate(-375.811 -15.81)" fill="#07b028"/>
        <path id="Trazado_624913" data-name="Trazado 624913" d="M959.209,65.136a10.317,10.317,0,0,1-2.441,2.3,48.35,48.35,0,0,1-9.473,6.019,43.361,43.361,0,0,1-6.765,2.382l-1.656-.428a38.782,38.782,0,0,0,4-2.988c3.4-2.6,6.779-5.236,10.158-7.868a1.5,1.5,0,0,1,1.344-.305C955.985,64.563,957.616,64.744,959.209,65.136Z" transform="translate(-131.065 -92.96)" fill="#49ca5c"/>
        <path id="Trazado_624914" data-name="Trazado 624914" d="M969.852-31.773a19.39,19.39,0,0,1,4.494,2.963,44.622,44.622,0,0,1,8.763,10.091,3.828,3.828,0,0,1,.261.588c-1.059-.164-2.122-.306-3.176-.5-.6-.11-.786-.717-1.1-1.121-2.972-3.786-5.909-7.6-8.852-11.408C970.091-31.35,969.98-31.568,969.852-31.773Z" transform="translate(-156.998 -12.618)" fill="#49ca5c"/>
        <path id="Trazado_624915" data-name="Trazado 624915" d="M1217.321,80.989a9.105,9.105,0,0,1-1.957,3.768,13.071,13.071,0,0,1-3.1,3.054c.441-1.58,1.265-3.011,1.785-4.558a2.236,2.236,0,0,1,1.639-1.573A13.029,13.029,0,0,0,1217.321,80.989Z" transform="translate(-359.926 -107.012)" fill="#48ca5c"/>
        <path id="Trazado_624916" data-name="Trazado 624916" d="M1236.879,39a16.431,16.431,0,0,1,.143,3.75,9.747,9.747,0,0,1-2.152.951C1235.557,42.037,1236.1,40.472,1236.879,39Z" transform="translate(-378.847 -71.864)" fill="#48ca5c"/>
        <path id="Trazado_624917" data-name="Trazado 624917" d="M1182.377,139.058l.972-.365a1.807,1.807,0,0,1-.179.521c-.162.219-.05.725-.422.655C1182.445,139.812,1182.379,139.391,1182.377,139.058Z" transform="translate(-334.904 -155.317)" fill="#0ab12e"/>
        <path id="Trazado_624918" data-name="Trazado 624918" d="M949.6,119.306a33.134,33.134,0,0,0,11.077-3.619,27.026,27.026,0,0,1,9.484,14.75,17.829,17.829,0,0,1,.61,3.566.528.528,0,0,0,.183.429,1.063,1.063,0,0,1-.031.154,10.5,10.5,0,0,0-.785,7.319c.122.638-.041,1.292.126,1.925a8.1,8.1,0,0,1-2.115,5.622c-.216.276-.437.548-.656.822a10.676,10.676,0,0,1-4.546,2.853,2.776,2.776,0,0,1-3.545-1.869,11.8,11.8,0,0,1-.651-3.816c-.09-2.757-.107-5.516-.193-8.272a10.641,10.641,0,0,0-.581-3.419c-.464-1.243-1.016-1.66-2.328-1.506-1.633.192-3.249.533-4.882.719-1.919.218-3.845.3-5.565-.851-2.376-1.588-3.315-5.4-2.033-8.237a12.8,12.8,0,0,1,4.729-5.22A6.7,6.7,0,0,0,949.6,119.306Z" transform="translate(-134.179 -136.058)" fill="#b9ea6c"/>
        <path id="Trazado_624919" data-name="Trazado 624919" d="M1109.066,240.952A17.1,17.1,0,0,1,1108.6,234a4.559,4.559,0,0,1,1.123-2.29,31.707,31.707,0,0,1-.626,8.517A3.286,3.286,0,0,0,1109.066,240.952Z" transform="translate(-272.982 -233.181)" fill="#89c7fc"/>
      </g>
    </g>
  </g>
</svg>
