<svg xmlns="http://www.w3.org/2000/svg" width="146.446" height="126.825" viewBox="0 0 146.446 126.825">
  <g id="Grupo_894786" data-name="Grupo 894786" transform="translate(12667.254 11981.891)">
    <g id="Grupo_894782" data-name="Grupo 894782" transform="translate(-291 483.282)">
      <g id="Grupo_894360" data-name="Grupo 894360">
        <path id="Trazado_251618" data-name="Trazado 251618" d="M115.238,69.769l-.435-.749h-.872v-.98h1.436l.719,1.236Z" transform="translate(-12381.789 -12533.213)" fill="#28965a"/>
        <path id="Trazado_251621" data-name="Trazado 251621" d="M53.211,178.194H51.774l-.718-1.25.85-.488.436.758h.871Z" transform="translate(-12391.413 -12516.542)" fill="#28965a"/>
        <path id="Línea_476" data-name="Línea 476" d="M65.01.49H63.04V-.49h1.97Zm-3.94,0H59.1V-.49h1.97Zm-3.94,0H55.16V-.49h1.97Zm-3.94,0H51.22V-.49h1.97Zm-3.94,0H47.28V-.49h1.97Zm-3.94,0H43.34V-.49h1.97Zm-3.94,0H39.4V-.49h1.97Zm-3.94,0H35.46V-.49h1.97Zm-3.94,0H31.52V-.49h1.97Zm-3.94,0H27.58V-.49h1.97Zm-3.94,0H23.64V-.49h1.97Zm-3.94,0H19.7V-.49h1.97Zm-3.94,0H15.76V-.49h1.97Zm-3.94,0H11.82V-.49h1.97ZM9.85.49H7.88V-.49H9.85ZM5.91.49H3.94V-.49H5.91ZM1.97.49H0V-.49H1.97Z" transform="translate(-12335.939 -12338.838)" fill="#fefefe"/>
        <path id="Trazado_251622" data-name="Trazado 251622" d="M115.368,178.194H113.93v-.98h.871l.436-.758.85.488Z" transform="translate(-12381.789 -12516.542)" fill="#28965a"/>
        <path id="Línea_477" data-name="Línea 477" d="M.424,58.216l-.849-.49L.561,56.02l.849.49ZM2.394,54.8l-.849-.49.985-1.706.849.49Zm1.97-3.412-.849-.49L4.5,49.2l.849.49Zm1.97-3.412-.849-.49.985-1.706.849.49ZM8.3,44.568l-.849-.49.985-1.706.849.49Zm1.97-3.412-.849-.49.985-1.706.849.49Zm1.97-3.412-.849-.49.985-1.706.849.49Zm1.97-3.412-.849-.49.985-1.706.849.49Zm1.97-3.412-.849-.49.985-1.706.849.49Zm1.97-3.412-.849-.49.985-1.706.849.49Zm1.97-3.412-.849-.49L20.26,21.9l.849.49Zm1.97-3.412-.849-.49.985-1.706.849.49Zm1.97-3.412-.849-.49.985-1.706.849.49Zm1.97-3.412-.849-.49.985-1.706.849.49ZM28,10.446l-.849-.49L28.14,8.25l.849.49Zm1.97-3.412-.849-.49.985-1.706.849.49Zm1.97-3.412-.849-.49.985-1.706.849.49Z" transform="translate(-12264.985 -12399.775)" fill="#28965a"/>
        <path id="Trazado_251623" data-name="Trazado 251623" d="M146.334,124.423l-.847-.493.435-.748-.436-.759.85-.488.718,1.25Z" transform="translate(-12376.86 -12524.944)" fill="#28965a"/>
        <path id="Línea_478" data-name="Línea 478" d="M33.045,58.228l-.985-1.706.849-.49.985,1.706Zm-1.97-3.412-.985-1.706.849-.49.985,1.706ZM29.106,51.4,28.121,49.7l.849-.49.985,1.706Zm-1.97-3.412-.985-1.706.849-.49.985,1.706Zm-1.97-3.412-.985-1.706.849-.49.985,1.706ZM23.2,41.166l-.985-1.706.849-.49.985,1.706Zm-1.97-3.412-.985-1.706.849-.49.985,1.706Zm-1.97-3.412-.985-1.706.849-.49.985,1.706Zm-1.97-3.412L16.3,29.223l.849-.49.985,1.706Zm-1.97-3.412-.985-1.706.849-.49.985,1.706ZM13.348,24.1,12.363,22.4l.849-.49.985,1.706Zm-1.97-3.412-.985-1.706.849-.49.985,1.706ZM9.409,17.28l-.985-1.706.849-.49.985,1.706Zm-1.97-3.412-.985-1.706.849-.49.985,1.706Zm-1.97-3.412L4.484,8.749l.849-.49.985,1.706ZM3.5,7.043,2.515,5.337l.849-.49.985,1.706ZM1.53,3.631.545,1.924l.849-.49.985,1.706Z" transform="translate(-12265.551 -12462.709)" fill="#fefefe"/>
        <g id="Grupo_874819" data-name="Grupo 874819" transform="translate(-12375.688 -12479.098)">
          <path id="Trazado_251617" data-name="Trazado 251617" d="M125.151,73.67H59.344l-32.9,56.99,32.9,56.99h65.808l32.892-56.99Z" transform="translate(-19.585 -53.323)" fill="rgba(254,254,254,0.15)"/>
          <path id="Trazado_251617_-_Contorno" data-name="Trazado 251617 - Contorno" d="M59.087,73.225h66.321l33.149,57.435L125.408,188.1H59.087L25.926,130.66l.128-.223Zm65.808.89H59.6L26.954,130.66,59.6,187.205h65.294L157.53,130.66Z" transform="translate(-19.585 -53.323)" fill="#fefefe"/>
          <path id="Línea_473" data-name="Línea 473" d="M66.95.49H64.98V-.49h1.97Zm-3.94,0H61.04V-.49h1.97Zm-3.94,0H57.1V-.49h1.97Zm-3.94,0H53.16V-.49h1.97Zm-3.94,0H49.22V-.49h1.97Zm-3.94,0H45.28V-.49h1.97Zm-3.94,0H41.34V-.49h1.97Zm-3.94,0H37.4V-.49h1.97Zm-3.94,0H33.46V-.49h1.97Zm-3.94,0H29.52V-.49h1.97Zm-3.94,0H25.58V-.49h1.97Zm-3.94,0H21.64V-.49h1.97Zm-3.94,0H17.7V-.49h1.97Zm-3.94,0H13.76V-.49h1.97Zm-3.94,0H9.82V-.49h1.97ZM7.85.49H5.88V-.49H7.85ZM3.91.49H1.94V-.49H3.91Z" transform="translate(38.616 14.415)" fill="#fefefe"/>
          <path id="Trazado_251619" data-name="Trazado 251619" d="M51.9,69.769l-.847-.493.719-1.236h1.436v.98h-.872Z" transform="translate(-15.726 -54.115)" fill="#28965a"/>
          <path id="Línea_474" data-name="Línea 474" d="M1.389,56.545l-.849-.49.985-1.706.849.49Zm1.97-3.412-.849-.49L3.5,50.937l.849.49Zm1.97-3.412-.849-.49.985-1.706.849.49ZM7.3,46.309l-.849-.49.985-1.706.849.49ZM9.269,42.9l-.849-.49L9.405,40.7l.849.49Zm1.97-3.412-.849-.49.985-1.706.849.49Zm1.97-3.412-.849-.49.985-1.706.849.49Zm1.97-3.412-.849-.49.985-1.706.849.49Zm1.97-3.412-.849-.49.985-1.706.849.49Zm1.97-3.412-.849-.49.985-1.706.849.49Zm1.97-3.412-.849-.49.985-1.706.849.49Zm1.97-3.412-.849-.49.985-1.706.849.49Zm1.97-3.412-.849-.49.985-1.706.849.49ZM27,12.188l-.849-.49.985-1.706.849.49Zm1.97-3.412-.849-.49L29.1,6.579l.849.49Zm1.97-3.412-.849-.49.985-1.706.849.49Zm1.97-3.412-.849-.49.985-1.706.849.49Z" transform="translate(1.143 17.381)" fill="#fefefe"/>
          <path id="Trazado_251620" data-name="Trazado 251620" d="M20.653,124.423l-.719-1.237.718-1.25.85.488-.436.759.435.748Z" transform="translate(-20.5 -45.847)" fill="#28965a"/>
          <path id="Línea_475" data-name="Línea 475" d="M32.089,56.541,31.1,54.835l.849-.49.985,1.706Zm-1.97-3.412-.985-1.706.849-.49.985,1.706Zm-1.971-3.412-.985-1.706.849-.49L29,49.227Zm-1.97-3.412L25.192,44.6l.849-.49.985,1.706Zm-1.97-3.412-.985-1.706.849-.49.985,1.706Zm-1.971-3.412-.985-1.706.849-.49.985,1.706Zm-1.97-3.412-.985-1.706.849-.49.985,1.706ZM18.3,32.658l-.985-1.706.849-.49.985,1.706Zm-1.97-3.412L15.34,27.54l.849-.49.985,1.706Zm-1.97-3.412-.985-1.706.849-.49.985,1.706Zm-1.97-3.412L11.4,20.716l.849-.49.985,1.706Zm-1.97-3.412L9.428,17.3l.849-.49.985,1.706ZM8.443,15.6l-.985-1.706.849-.49.985,1.706Zm-1.97-3.412-.985-1.706.849-.49L7.321,11.7ZM4.5,8.775,3.517,7.069l.849-.49.985,1.706ZM2.531,5.363,1.546,3.657l.849-.49L3.38,4.873ZM.561,1.951-.424.245l.849-.49L1.41,1.461Z" transform="translate(1.708 80.303)" fill="#fefefe"/>
        </g>
      </g>
      <g id="Grupo_894602" data-name="Grupo 894602" transform="translate(-12434.883 -12531.742)">
        <path id="Rectángulo_296679" data-name="Rectángulo 296679" d="M0,0H13.534A16.657,16.657,0,0,1,30.191,16.657V30.191a0,0,0,0,1,0,0H16.659A16.659,16.659,0,0,1,0,13.533V0A0,0,0,0,1,0,0Z" transform="translate(136.087 120.291) rotate(-135)" fill="#28965a"/>
        <line id="Línea_835" data-name="Línea 835" y2="104.783" transform="translate(136.087 77.591)" fill="none" stroke="#202c23" stroke-linecap="round" stroke-miterlimit="10" stroke-width="0.419"/>
        <path id="Trazado_624799" data-name="Trazado 624799" d="M128.973,81.53,123.6,86.907l-5.489-5.489" transform="translate(12.581 2.734)" fill="none" stroke="#202c23" stroke-linecap="round" stroke-miterlimit="10" stroke-width="0.419"/>
        <path id="Trazado_624800" data-name="Trazado 624800" d="M133.716,86.39,125,95.1l-8.861-8.861" transform="translate(11.176 6.181)" fill="none" stroke="#202c23" stroke-linecap="round" stroke-miterlimit="10" stroke-width="0.419"/>
        <path id="Trazado_624801" data-name="Trazado 624801" d="M134.14,93.049l-8.993,8.993-9.211-9.211" transform="translate(11.03 10.887)" fill="none" stroke="#202c23" stroke-linecap="round" stroke-miterlimit="10" stroke-width="0.419"/>
        <path id="Rectángulo_296680" data-name="Rectángulo 296680" d="M0,0H13.536A16.657,16.657,0,0,1,30.194,16.657V30.194a0,0,0,0,1,0,0H16.657A16.657,16.657,0,0,1,0,13.536V0A0,0,0,0,1,0,0Z" transform="translate(130.688 135.99) rotate(-180)" fill="#28965a"/>
        <line id="Línea_836" data-name="Línea 836" x2="35.626" y2="35.626" transform="translate(100.495 105.796)" fill="none" stroke="#202c23" stroke-linecap="round" stroke-miterlimit="10" stroke-width="0.419"/>
        <path id="Trazado_624802" data-name="Trazado 624802" d="M108.736,94.541v7.6h-7.762" transform="translate(0.342 12.108)" fill="none" stroke="#202c23" stroke-linecap="round" stroke-miterlimit="10" stroke-width="0.419"/>
        <path id="Trazado_624803" data-name="Trazado 624803" d="M115.526,96.59v12.325H102.994" transform="translate(1.786 13.572)" fill="none" stroke="#202c23" stroke-linecap="round" stroke-miterlimit="10" stroke-width="0.419"/>
        <path id="Trazado_624804" data-name="Trazado 624804" d="M120.535,101.163v12.719H107.509" transform="translate(5.011 16.839)" fill="none" stroke="#202c23" stroke-linecap="round" stroke-miterlimit="10" stroke-width="0.419"/>
        <path id="Rectángulo_296681" data-name="Rectángulo 296681" d="M0,0H13.536A16.658,16.658,0,0,1,30.194,16.658V30.194a0,0,0,0,1,0,0H16.657A16.657,16.657,0,0,1,0,13.536V0A0,0,0,0,1,0,0Z" transform="translate(130.688 167.318) rotate(180)" fill="#28965a"/>
        <line id="Línea_837" data-name="Línea 837" x2="35.626" y2="35.627" transform="translate(100.495 137.125)" fill="none" stroke="#202c23" stroke-linecap="round" stroke-miterlimit="10" stroke-width="0.419"/>
        <path id="Trazado_624805" data-name="Trazado 624805" d="M108.736,112.815v7.6h-7.762" transform="translate(0.342 25.162)" fill="none" stroke="#202c23" stroke-linecap="round" stroke-miterlimit="10" stroke-width="0.419"/>
        <path id="Trazado_624806" data-name="Trazado 624806" d="M115.526,114.864v12.325H102.994" transform="translate(1.786 26.626)" fill="none" stroke="#202c23" stroke-linecap="round" stroke-miterlimit="10" stroke-width="0.419"/>
        <path id="Trazado_624807" data-name="Trazado 624807" d="M120.535,119.437v12.718H107.509" transform="translate(5.011 29.893)" fill="none" stroke="#202c23" stroke-linecap="round" stroke-miterlimit="10" stroke-width="0.419"/>
        <path id="Rectángulo_296682" data-name="Rectángulo 296682" d="M16.657,0H30.194a0,0,0,0,1,0,0V13.536A16.657,16.657,0,0,1,13.536,30.194H0a0,0,0,0,1,0,0V16.657A16.657,16.657,0,0,1,16.657,0Z" transform="translate(141.016 118.559)" fill="#28965a"/>
        <line id="Línea_838" data-name="Línea 838" x1="35.089" y2="35.089" transform="translate(136.121 118.559)" fill="none" stroke="#202c23" stroke-linecap="round" stroke-miterlimit="10" stroke-width="0.419"/>
        <path id="Trazado_624808" data-name="Trazado 624808" d="M136.736,101.986v7.6H144.5" transform="translate(25.89 17.426)" fill="none" stroke="#202c23" stroke-linecap="round" stroke-miterlimit="10" stroke-width="0.419"/>
        <path id="Trazado_624809" data-name="Trazado 624809" d="M131.934,104.035V116.36h12.532" transform="translate(22.459 18.89)" fill="none" stroke="#202c23" stroke-linecap="round" stroke-miterlimit="10" stroke-width="0.419"/>
        <path id="Trazado_624810" data-name="Trazado 624810" d="M127.131,108.608v12.718h13.027" transform="translate(19.028 22.157)" fill="none" stroke="#202c23" stroke-linecap="round" stroke-miterlimit="10" stroke-width="0.419"/>
      </g>
    </g>
  </g>
</svg>
