<svg xmlns="http://www.w3.org/2000/svg" width="167" height="167" viewBox="0 0 167 167">
  <g id="Grupo_894792" data-name="Grupo 894792" transform="translate(-297 -3100.332)">
    <circle id="Elipse_5243" data-name="Elipse 5243" cx="83.5" cy="83.5" r="83.5" transform="translate(297 3100.332)" fill="#fff"/>
    <g id="Grupo_894662" data-name="Grupo 894662" transform="translate(741.019 5239.734)">
      <path id="Trazado_625233" data-name="Trazado 625233" d="M-407.281-2001.134q-3.1-3.054-6.207-6.108a2.368,2.368,0,0,1-.539-1.865q0-7.5,0-15,0-32.356,0-64.711c0-4.7,2.295-8.134,6.3-9.5a11,11,0,0,1,3.606-.467c6.889,0,13.778-.023,20.666.026,1.012.007,1.227-.287,1.209-1.247-.058-3.187-.067-6.377,0-9.564a12.8,12.8,0,0,1,12.384-12.445q20.96-.16,41.923,0c7,.053,12.438,5.935,12.493,13.217.042,5.471.022,10.943-.008,16.414a1.383,1.383,0,0,0,.825,1.461,4.4,4.4,0,0,1,2.275,4.227c0,4.881.009,9.762-.013,14.643,0,.73.051,1.131.957,1.348a5.865,5.865,0,0,1,4.392,5.738,5.829,5.829,0,0,1-4.392,5.73c-.869.221-.962.616-.96,1.365.02,11.1.008,22.2.025,33.3a4.375,4.375,0,0,1-.564,2.483,20.366,20.366,0,0,0-3.177,13.776c.049.427-.035.87.013,1.3a5.431,5.431,0,0,1-2.874,5.882h-3.307a4.34,4.34,0,0,1-3.164-4.419c-.047-2.825-.026-5.651-.005-8.477a5.413,5.413,0,0,0-.64-2.711c-1-1.827-1.738-3.779-2.694-5.626a3.919,3.919,0,0,1-.446-1.811c-.01-2.433-.036-4.867.01-7.3a2.225,2.225,0,0,1,2.038-2.55c1.418.283,1.883.772,1.93,2.213.067,2.043.037,4.089.014,6.133a6.129,6.129,0,0,0,.689,2.946c.79,1.538,1.546,3.094,2.284,4.659a8.653,8.653,0,0,1,.83,3.988c-.052,2.4-.038,4.8,0,7.2.011.69-.232,1.755.847,1.743.985-.011.763-1.034.771-1.692.034-2.673.025-5.348.008-8.021a5.638,5.638,0,0,1,.629-2.723c.949-1.811,1.678-3.729,2.652-5.529a4.645,4.645,0,0,0,.507-2.275q-.006-15.807-.006-31.615c0-1.543-.088-1.628-1.576-1.635-2.123-.009-4.248.016-6.37-.011-.9-.011-1.286.337-1.263,1.247.027,1.061.048,2.124-.018,3.184-.089,1.412-.588,1.916-2.018,2.115a2.232,2.232,0,0,1-1.957-2.295,21.91,21.91,0,0,1-.016-2.832,1.417,1.417,0,0,0-1.245-1.667,5.891,5.891,0,0,1-4.213-3.795,6.21,6.21,0,0,1,3.511-8.091,2.056,2.056,0,0,0,1.481-2.284c-.048-4.487.013-8.974-.034-13.46a4.971,4.971,0,0,1,2.283-4.627,1.724,1.724,0,0,0,.8-1.6c0-5.235.039-10.47-.022-15.7-.02-1.7-.718-2.361-2.414-2.363q-19.72-.03-39.44,0c-1.832,0-2.478.672-2.5,2.517-.028,2.6-.019,5.2,0,7.793.008,1.344.128,1.463,1.509,1.465,6.849.01,13.7.14,20.545-.042a9.773,9.773,0,0,1,9.621,9.574q-.1,39.969-.013,79.938a4.475,4.475,0,0,1-1.461,3.567c-1.187,1.091-2.3,2.26-3.429,3.416a5.354,5.354,0,0,1-2.105,1.461Z"/>
      <path id="Trazado_625234" data-name="Trazado 625234" d="M-336.065-1998.393c0,11.1-.015,22.2.025,33.3,0,1.132-.193,1.531-1.457,1.528q-32.474-.068-64.947-.007c-1.153,0-1.421-.325-1.419-1.446q.05-32.767.028-65.533c0-2.409.5-4.613,2.7-6.056a5.684,5.684,0,0,1,3.221-.956q27.987.019,55.973.012a5.611,5.611,0,0,1,5.874,5.862Q-336.052-2015.042-336.065-1998.393Z" transform="translate(-6.956 -57.847)" fill="#3f344d"/>
      <path id="Trazado_625235" data-name="Trazado 625235" d="M-369.811-1792.824c10.86,0,21.719.014,32.579-.023,1,0,1.364.184,1.317,1.272-.1,2.239-.063,4.485-.011,6.726a2.254,2.254,0,0,1-.788,1.846c-1.316,1.241-2.377,3.036-3.924,3.669-1.59.65-3.636.2-5.483.206q-25.792.008-51.583.022a2.634,2.634,0,0,1-2.15-.9c-1.035-1.13-2.138-2.2-3.248-3.261a1.817,1.817,0,0,1-.593-1.457c.025-2.321.06-4.644-.013-6.963-.031-.97.308-1.155,1.2-1.152Q-386.16-1792.8-369.811-1792.824Z" transform="translate(-7.059 -225.315)" fill="#c73c50"/>
      <path id="Trazado_625236" data-name="Trazado 625236" d="M-139.111-1897l-.013-5.262c1.306-.824,1.432-2.088,1.311-3.458a6.719,6.719,0,0,1,0-1.29c.143-1.356-.068-2.546-1.4-3.261.223-1.761.044-3.53.1-5.3a1.754,1.754,0,0,0,1.66-2.028c-.032-1.218.042-2.441-.024-3.657-.043-.808.265-.98,1.012-.969,2.635.041,5.271.045,7.906,0,.783-.014,1,.229.984,1-.042,2.831-.017,5.663-.017,8.5q0,12.212.009,24.424a3.556,3.556,0,0,1-.462,2.027,21.13,21.13,0,0,0-3.285,14.236c.083.738,0,1.493.014,2.24.012.922.107,1.916-1.183,2.043-.862.085-1.233-.556-1.234-1.987,0-2.91-.013-5.821.009-8.731a3.548,3.548,0,0,0-.469-2.033,21.308,21.308,0,0,1-3.273-14.349A1.73,1.73,0,0,0-139.111-1897Z" transform="translate(-188.064 -136.781)" fill="#b0cd01"/>
      <path id="Trazado_625237" data-name="Trazado 625237" d="M-273.082-2111.527q9.918,0,19.836,0c6.168,0,10.279,4.107,10.29,10.275.01,5.273-.023,10.547.026,15.82.009.9-.235,1.162-1.108,1.081-1.009-.094-2.34.313-2.961-.195-.652-.533-.192-1.912-.2-2.919-.022-4.6,0-9.209-.012-13.813-.006-3.781-2.234-6-6.023-6q-19.9,0-39.79,0c-3.675,0-5.894,2.2-5.9,5.848-.009,2.952-.034,5.9.019,8.854.015.845-.243,1.115-1.057,1.027-1.045-.112-2.447.444-3.048-.236-.516-.583-.16-1.95-.164-2.971q-.014-3.365,0-6.729a9.649,9.649,0,0,1,10.022-10.043C-286.463-2111.539-279.772-2111.527-273.082-2111.527Z" transform="translate(-75.781 -7.229)" fill="#ebf8fa"/>
      <path id="Trazado_625238" data-name="Trazado 625238" d="M-135.338-2006.16c0-2.44.029-4.88-.013-7.319-.019-1.069.459-1.517,1.472-1.517h7.437a1.343,1.343,0,0,1,1.5,1.539c0,4.919-.015,9.837.015,14.756,0,.8-.284,1-1.035.986q-4.19-.054-8.382,0c-.769.01-1.027-.233-1.014-1.009C-135.313-2001.2-135.338-2003.681-135.338-2006.16Z" transform="translate(-190.706 -73.291)" fill="#3f344d"/>
      <path id="Trazado_625239" data-name="Trazado 625239" d="M-141.964-1944.307c-2.514,0-5.028.01-7.542,0-1.819-.01-2.972-1.021-3.009-2.6a2.676,2.676,0,0,1,2.977-2.765q7.6-.036,15.2,0a2.762,2.762,0,0,1,3.039,2.734c-.033,1.591-1.246,2.624-3.125,2.631C-136.936-1944.3-139.45-1944.307-141.964-1944.307Z" transform="translate(-178.961 -117.982)" fill="#feb021"/>
      <path id="Trazado_625240" data-name="Trazado 625240" d="M-142.583-1884.361c1.379.227,1.737.624,1.752,2,.014,1.294-.031,2.59.013,3.883a1.787,1.787,0,0,1-1.676,2.123,1.807,1.807,0,0,1-1.643-2.043c.015-1.327.007-2.654,0-3.981A1.734,1.734,0,0,1-142.583-1884.361Z" transform="translate(-184.694 -162.689)" fill="#010101"/>
      <path id="Trazado_625241" data-name="Trazado 625241" d="M-376.036-2018.516c.222-.3.357-.633.872-.612,1.294.052,2.593.048,3.888,0,.5-.018.678.271.886.6a8.382,8.382,0,0,0,4.456.8q17.707-.024,35.414-.008c2.739,0,2.8.062,2.8,2.74q0,13.928,0,27.857c0,2.413-.117,2.528-2.53,2.528q-24.081,0-48.163,0c-.2,0-.394,0-.59,0-1.794-.037-2.147-.361-2.15-2.161q-.025-14.459,0-28.919c0-1.754.241-2.031,1.954-2.022A7.56,7.56,0,0,0-376.036-2018.516Z" transform="translate(-22.489 -70.463)" fill="#ebf8fa"/>
      <path id="Trazado_625242" data-name="Trazado 625242" d="M-382.3-2021.9c-.365,1.047-1.254,1.047-2.132,1.06-2.5.036-2.5.034-2.5,2.517,0,9.561.013,19.122-.021,28.683,0,.922.223,1.182,1.167,1.18q25.144-.045,50.288,0c1.022,0,1.194-.322,1.19-1.258q-.052-14.99,0-29.981c0-.9-.2-1.169-1.142-1.166q-19.418.051-38.837.021c-.941,0-1.939.09-2.362-1.07-.16-1.706.252-2.16,2-2.16q20.779,0,41.558,0c1.638,0,2.046.4,2.047,1.993q0,17.413,0,34.826c0,1.427-.315,1.812-1.7,2.063a7.294,7.294,0,0,1-1.29.084q-26.682.005-53.364,0c-2.317,0-2.915-.605-2.915-2.946q0-16.645,0-33.292c0-2.282.456-2.733,2.746-2.733,1.1,0,2.2,0,3.306,0C-382.485-2024.065-382.128-2023.667-382.3-2021.9Z" transform="translate(-16.226 -67.078)"/>
      <path id="Trazado_625243" data-name="Trazado 625243" d="M-364.544-1864.224c-5.679.257-10.4-4.886-10.283-10.3a10.356,10.356,0,0,1,10.276-10.276,10.329,10.329,0,0,1,10.341,10.446C-354.153-1869.139-358.749-1863.946-364.544-1864.224Z" transform="translate(-26.825 -162.389)"/>
      <path id="Trazado_625244" data-name="Trazado 625244" d="M-272.81-1864.2a10.051,10.051,0,0,1-10.276-10.214,10.208,10.208,0,0,1,10.331-10.353,10.331,10.331,0,0,1,10.342,10.459A10.2,10.2,0,0,1-272.81-1864.2Z" transform="translate(-89.607 -162.409)"/>
      <path id="Trazado_625245" data-name="Trazado 625245" d="M-352.19-1776.335q11.628,0,23.255,0a5.9,5.9,0,0,1,1.177.037,1.521,1.521,0,0,1,1.337,1.557,1.539,1.539,0,0,1-1.34,1.674,4.983,4.983,0,0,1-1.059.037q-23.433,0-46.865,0a5.38,5.38,0,0,1-.942-.028,1.556,1.556,0,0,1-1.411-1.627,1.549,1.549,0,0,1,1.413-1.623,6.31,6.31,0,0,1,1.06-.028Z" transform="translate(-24.629 -236.609)"/>
      <path id="Trazado_625246" data-name="Trazado 625246" d="M-360.177-1990.193c0-3.462-.006-6.924,0-10.386,0-1.8.53-2.324,2.317-2.327,3.541-.005,7.082-.012,10.622,0,3.62.013,5.855,2.271,5.868,5.906,0,1.023.016,2.046-.006,3.068a5.386,5.386,0,0,1-5.417,5.382c-2.99.034-5.981.041-8.97-.012-.85-.015-1.147.151-1.124,1.077.069,2.713.043,5.429.013,8.143a1.684,1.684,0,0,1-1.581,1.853c-.95.041-1.647-.7-1.72-1.847-.017-.274-.005-.551-.005-.826Z" transform="translate(-36.848 -81.56)"/>
      <path id="Trazado_625247" data-name="Trazado 625247" d="M-291.907-1990.186q0-5.078,0-10.156c0-1.7.523-2.515,1.619-2.53,1.138-.015,1.693.835,1.694,2.6,0,2.086.056,4.175-.025,6.258-.036.93.281,1.072,1.121,1.076a50.338,50.338,0,0,1,7.427.137,8.093,8.093,0,0,1,6.926,7.9c.047,1.849.03,3.7.012,5.55a1.694,1.694,0,0,1-1.654,1.888,1.725,1.725,0,0,1-1.644-1.926c-.026-1.692.007-3.385-.01-5.078a4.951,4.951,0,0,0-5.2-5.18c-1.968-.023-3.938.034-5.9-.023-.812-.023-1.075.192-1.06,1.035.052,2.873.021,5.747.018,8.621a6.65,6.65,0,0,1-.043,1.059,1.56,1.56,0,0,1-1.7,1.468,1.519,1.519,0,0,1-1.556-1.6c-.035-1.534-.019-3.07-.021-4.605Q-291.91-1986.938-291.907-1990.186Z" transform="translate(-83.569 -81.588)"/>
      <path id="Trazado_625248" data-name="Trazado 625248" d="M-364.335-1867.365a6.992,6.992,0,0,1,7.123-6.957,7,7,0,0,1,6.876,7.085,6.95,6.95,0,0,1-7.125,6.935A6.932,6.932,0,0,1-364.335-1867.365Z" transform="translate(-34.006 -169.559)" fill="#b0cd01"/>
      <path id="Trazado_625249" data-name="Trazado 625249" d="M-265.613-1860.3a7.008,7.008,0,0,1-6.992-6.984,7.054,7.054,0,0,1,7.067-7.044,7.05,7.05,0,0,1,6.992,7A7.029,7.029,0,0,1-265.613-1860.3Z" transform="translate(-96.78 -169.556)" fill="#feb021"/>
      <path id="Trazado_625250" data-name="Trazado 625250" d="M-344.368-1984.685c-1.531,0-3.064-.023-4.594.013-.574.013-.738-.176-.73-.736q.042-3.121,0-6.243c-.009-.622.205-.8.815-.794,3.023.027,6.048-.012,9.071.025a2.135,2.135,0,0,1,2.306,2.381c.017,1.021.021,2.042,0,3.063a2.108,2.108,0,0,1-2.271,2.285C-341.3-1984.663-342.836-1984.685-344.368-1984.685Z" transform="translate(-44.026 -88.723)" fill="#ebf8fa"/>
    </g>
  </g>
</svg>
