<svg xmlns="http://www.w3.org/2000/svg" xmlns:xlink="http://www.w3.org/1999/xlink" width="146" height="147" viewBox="0 0 146 147">
  <defs>
    <clipPath id="clip-path">
      <ellipse id="Elipse_156" data-name="Elipse 156" cx="73" cy="73.5" rx="73" ry="73.5" transform="translate(0.171 -0.274)" fill="#fff" stroke="#707070" stroke-width="1"/>
    </clipPath>
  </defs>
  <g id="Grupo_894466" data-name="Grupo 894466" transform="translate(-0.171 0.274)">
    <g id="Grupo_894656" data-name="Grupo 894656">
      <g id="Enmascarar_grupo_16" data-name="Enmascarar grupo 16" transform="translate(0)" clip-path="url(#clip-path)">
        <rect id="_95da3c9cb84d7a8c336853e8faf60a4e" data-name="95da3c9cb84d7a8c336853e8faf60a4e" width="157.338" height="174.997" transform="translate(-11.234 -13.667)" fill="#f3f9ff"/>
      </g>
      <g id="Grupo_894655" data-name="Grupo 894655" transform="translate(-2776.571 1953.262)">
        <path id="Trazado_625102" data-name="Trazado 625102" d="M2835.891-1863.18a14.29,14.29,0,0,1-4.211,11.1c-.343.346-.235.71-.174,1.073.991,5.944,1.981,11.888,3.007,17.827.133.771-.057.936-.823.933q-11.656-.043-23.312,0c-.885,0-.949-.26-.817-1.021,1.029-5.97,2.008-11.949,3.033-17.92a3.273,3.273,0,0,0-.246-1.945c-.345-.792-.693-1.586-.959-2.406-.275-.848-.535-1.128-1.474-.579a5.035,5.035,0,0,1-5.789-.3,5.355,5.355,0,0,1,.209-8.768,22.141,22.141,0,0,1,2.184-1.208.7.7,0,0,0,.425-.908,14.7,14.7,0,0,1,8.035-16.335c2.68-1.368,5.379-2.7,8.076-4.034.4-.2.638-.366.609-.915a36.491,36.491,0,0,1,9.089-26.591c.041-.048.073-.1.145-.208a1.824,1.824,0,0,0-1-.1c-9.633-.006-19.266-.019-28.9.019-.867,0-1.05-.223-1.024-1.047.063-2.058.02-2.06,2.106-2.06q15.6,0,31.21.01a2.1,2.1,0,0,0,1.466-.517,36.4,36.4,0,0,1,25.6-8.7A37.025,37.025,0,0,1,2897-1897.126a36.941,36.941,0,0,1-28.345,42.357c-.637.147-1.008.224-.837,1.126,1.105,5.857,2.138,11.729,3.139,17.606.188,1.1.932.581,1.46.674.687.121.47-.437.472-.76.013-2.568.029-5.137-.009-7.705-.009-.631.162-.792.789-.788,2.31.014,2.31-.011,2.31,2.332,0,2.087.02,4.174-.013,6.261-.008.552.158.68.693.685,2.4.026,2.4.044,2.4-2.334,0-3.082.02-6.165-.017-9.247-.008-.645.184-.783.8-.779,2.3.013,2.3-.01,2.3,2.242,0,3.114.021,6.229-.017,9.343-.008.652.195.778.8.775,2.3-.013,2.3.01,2.3-2.245,0-2.087.016-4.174-.011-6.261-.007-.535.05-.776.7-.777,2.392,0,2.392-.033,2.392,2.351,0,2.055.017,4.11-.011,6.164-.008.542.061.772.706.772,2.388,0,2.388.032,2.388-2.354,0-3.082.012-6.165-.011-9.247,0-.548.07-.769.71-.769,2.384,0,2.384-.03,2.384,2.358,0,3.05.019,6.1-.015,9.15-.008.641.1.917.815.859s1.719-.256,2.126.118c.483.444.083,1.45.164,2.206.061.565-.086.759-.713.758q-13.823-.036-27.646,0c-.594,0-.721-.2-.815-.735-1.18-6.724-2.394-13.442-3.585-20.164-.1-.583-.172-.958-.979-.891a36.3,36.3,0,0,1-27.573-8.918A3.575,3.575,0,0,0,2835.891-1863.18Z" transform="translate(-0.047)"/>
        <path id="Trazado_625103" data-name="Trazado 625103" d="M2809.774-1844.082c2.344,0,4.687.017,7.031-.013.542-.007.686.141.692.686.028,2.409.047,2.409-2.328,2.409-4.109,0-8.219-.014-12.328.015-.625,0-.794-.154-.791-.785.015-2.312-.011-2.312,2.33-2.312Z" transform="translate(-0.123 -62.169)"/>
        <path id="Trazado_625104" data-name="Trazado 625104" d="M2804.977-1864.934c-.834,0-1.67-.023-2.5.009-.427.016-.519-.129-.541-.542-.135-2.551-.148-2.55,2.375-2.55,1.091,0,2.183.019,3.273-.009.427-.011.519.129.541.542.135,2.551.148,2.55-2.376,2.55Z" transform="translate(0 -44.4)"/>
        <path id="Trazado_625105" data-name="Trazado 625105" d="M2840.821-1864.926h-.77c-2.55,0-2.54,0-2.32-2.605.031-.374.128-.488.5-.484q2.6.024,5.2,0c.38,0,.531.122.48.493a.529.529,0,0,0,0,.1c.119,2.5.119,2.5-2.317,2.5Z" transform="translate(-26.548 -44.407)"/>
        <path id="Trazado_625106" data-name="Trazado 625106" d="M2966.837-1886.64a26.939,26.939,0,0,1,12.646-5.023,27.717,27.717,0,0,1,27.75,14.029c9.008,15.967-.175,36.619-18,40.518-.652.143-.842.039-.893-.61-.058-.731-.47-1.526-.28-2.159s1.164-.65,1.767-.994a10.8,10.8,0,0,0,4.5-13.915,10.724,10.724,0,0,0-13.582-5.541c-.655.25-.973.27-1.013-.544a4.754,4.754,0,0,0-.6-1.914c-.292-.567-.643-1.1-1-1.708a12.446,12.446,0,0,0,4.1-2.211,10.732,10.732,0,0,0,1.927-14.335,10.73,10.73,0,0,0-14.16-3.27c-.549.312-.856.344-1.262-.169C2968.166-1885.213,2967.514-1885.881,2966.837-1886.64Z" transform="translate(-122.478 -26.692)" fill="#69d5f3"/>
        <path id="Trazado_625107" data-name="Trazado 625107" d="M2970.959-1915.876c17.265.014,31.167,11.42,34.382,27.312a34.038,34.038,0,0,1-25.845,39.7c-.6.134-.89.09-1.021-.6-.416-2.2-.443-2.2,1.7-2.78a30.912,30.912,0,0,0,22.49-25.867,30.866,30.866,0,0,0-26.8-34.432,29.918,29.918,0,0,0-21.331,5.314c-.581.4-.844.359-1.3-.156-1.535-1.749-1.567-1.741.374-3A32.931,32.931,0,0,1,2970.959-1915.876Z" transform="translate(-111.551 -8.871)" fill="#cbd0d8"/>
        <path id="Trazado_625108" data-name="Trazado 625108" d="M2854.308-1613.179c-2.7,0-5.391-.022-8.085.016-.671.009-.885-.132-.765-.834q1.192-6.962,2.322-13.935c.084-.515.291-.673.81-.67q5.727.031,11.454,0c.527,0,.72.172.8.679q1.131,6.924,2.306,13.84c.113.663.057.947-.759.928C2859.7-1613.217,2857-1613.179,2854.308-1613.179Z" transform="translate(-32.33 -222.173)" fill="#b3dc7f"/>
        <path id="Trazado_625109" data-name="Trazado 625109" d="M2857.376-1717.7c-.032,1.2.536,1.17,1.344.96,1.9-.493,1.9-.459,1.461-2.406q-1-4.4-1.973-8.815a2.187,2.187,0,0,1,1.32-2.747,2.015,2.015,0,0,1,2.606,1.028,103.635,103.635,0,0,1,4.276,11c1.134,4.025-.015,7.588-2.852,10.629a1.342,1.342,0,0,1-1.08.474q-6.212-.027-12.424,0a.853.853,0,0,1-.969-.66c-.375-1.055-.8-2.094-1.238-3.123-.177-.414-.192-.659.26-.921C2851.158-1714.041,2854.191-1715.832,2857.376-1717.7Z" transform="translate(-34.042 -146.258)" fill="#efcfb3"/>
        <path id="Trazado_625110" data-name="Trazado 625110" d="M2935.279-1845.136a7.75,7.75,0,0,0-4.079,5.5.914.914,0,0,1-.457.684c-2.091,1.239-4.173,2.494-6.4,3.831a6.275,6.275,0,0,0,.439-3.579,5.178,5.178,0,0,0-2.368-3.359,1.046,1.046,0,0,1-.6-1.05,27.659,27.659,0,0,1,8.605-19.821c.444-.436.7-.484,1.106.035.573.73,1.49,1.3,1.781,2.111.314.876-.755,1.53-1.139,2.325a10.8,10.8,0,0,0,2.323,12.617C2934.719-1845.628,2934.96-1845.42,2935.279-1845.136Z" transform="translate(-89.044 -47.929)" fill="#69d5f3"/>
        <path id="Trazado_625111" data-name="Trazado 625111" d="M2832.3-1752.779a11.321,11.321,0,0,1,5.636-12.141c4.621-2.479,9.354-4.747,14.049-7.085a2.092,2.092,0,0,1,2.56.441,2.109,2.109,0,0,1,.393,2.491c-.68,1.412-1.374,2.817-2.1,4.2a1.482,1.482,0,0,1-2.051.683,5.18,5.18,0,0,0-7.375,4.658c-.009.384.031.709-.417.949C2839.439-1756.676,2835.905-1754.742,2832.3-1752.779Z" transform="translate(-22.394 -115.509)" fill="#efcfb3"/>
        <path id="Trazado_625112" data-name="Trazado 625112" d="M2966.853-1721.394a27.579,27.579,0,0,1-20.434-9.845c-.412-.473-.458-.689.146-1.038q3.578-2.073,7.093-4.254a3.329,3.329,0,0,1,1.859-.28c.928-.026,2.085-.38,2.714-.037.585.319.06,1.659.152,2.552a10.822,10.822,0,0,0,10.391,9.777c.633.024.821.259.884.8C2969.946-1721.234,2970.791-1721.481,2966.853-1721.394Z" transform="translate(-107.088 -141.69)" fill="#69d5f3"/>
        <path id="Trazado_625113" data-name="Trazado 625113" d="M2932.565-1774.932a4.763,4.763,0,0,0-3.515,1.014c-3.737,2.3-7.524,4.525-11.273,6.809-.593.361-.849.329-1.048-.368a9.955,9.955,0,0,0-.783-1.958c-.359-.671-.128-.953.469-1.307,4.193-2.478,8.356-5.008,12.546-7.492a1.289,1.289,0,0,0,.728-1.278,4.592,4.592,0,0,1,4.614-4.663,4.641,4.641,0,0,1,4.612,4.588,4.64,4.64,0,0,1-4.643,4.655C2933.789-1774.925,2933.307-1774.932,2932.565-1774.932Z" transform="translate(-84.564 -106.659)" fill="#fee9a6"/>
        <path id="Trazado_625114" data-name="Trazado 625114" d="M3005.66-1752.644a7.721,7.721,0,0,1,6.631-7.576,7.746,7.746,0,0,1,8.348,5.088,7.729,7.729,0,0,1-3.538,9.271c-.611.342-1.06.482-1.052-.478a1.424,1.424,0,0,0-.065-.379,2.3,2.3,0,0,1,.721-2.814,4.214,4.214,0,0,0,.692-5.3,4.659,4.659,0,0,0-4.8-2.323,4.708,4.708,0,0,0-3.825,3.947,4.349,4.349,0,0,0,2.591,4.7,2.171,2.171,0,0,1,1.557,2.054c.263,1.713.283,1.737-1.385,1.334A7.729,7.729,0,0,1,3005.66-1752.644Z" transform="translate(-151.305 -124.377)" fill="#fe816e"/>
        <path id="Trazado_625115" data-name="Trazado 625115" d="M2973.563-1854.842a7.6,7.6,0,0,1,9.437,1.291,7.676,7.676,0,0,1,.945,9.415,7.721,7.721,0,0,1-9,3.191,7.739,7.739,0,0,1-5.2-7.922,7.954,7.954,0,0,1,1.1-3.349c.315-.543.553-.514.883-.054a2.67,2.67,0,0,0,.386.429,2.328,2.328,0,0,1,.811,2.861c-.606,1.748.549,3.825,2.255,4.776a4.571,4.571,0,0,0,5.428-.7,4.564,4.564,0,0,0,.945-5.39,4.4,4.4,0,0,0-4.771-2.479,1.724,1.724,0,0,1-2.076-.773C2974.387-1853.979,2973.995-1854.361,2973.563-1854.842Z" transform="translate(-124.62 -53.389)" fill="#fe816e"/>
        <path id="Trazado_625116" data-name="Trazado 625116" d="M2952.373-1694.818a33.805,33.805,0,0,1-26.188-12.583c-.517-.62-.6-1,.223-1.454,1.713-.952,1.679-.987,2.958.419a30.71,30.71,0,0,0,24.342,10.481c1.8-.035,1.724-.031,2.15,1.788.222.95.026,1.248-.918,1.23C2954.108-1694.952,2953.275-1694.864,2952.373-1694.818Z" transform="translate(-92.002 -162.08)" fill="#cbd0d8"/>
        <path id="Trazado_625117" data-name="Trazado 625117" d="M2897.851-1854.153c-.114-10.075,3.24-18.587,10.325-25.591a1.055,1.055,0,0,1,1.722.059c1.234,1.329,1.236,1.319-.027,2.622a30.462,30.462,0,0,0-8.907,20.991c-.015.52-.117.754-.684.9A18.526,18.526,0,0,0,2897.851-1854.153Z" transform="translate(-71.253 -35.389)" fill="#cbd0d8"/>
        <path id="Trazado_625118" data-name="Trazado 625118" d="M2830.615-1707.611c.261,1.177.479,2.309.775,3.419a.692.692,0,0,1-.393.919c-4.535,2.642-9.057,5.307-13.6,7.941a2.275,2.275,0,0,1-3.193-.718,2.3,2.3,0,0,1,.948-3.211q7.532-4.13,15.085-8.223A2.9,2.9,0,0,1,2830.615-1707.611Z" transform="translate(-8.915 -163.509)" fill="#fee9a6"/>
        <path id="Trazado_625119" data-name="Trazado 625119" d="M2996.765-1830.5a1.547,1.547,0,0,1-1.529,1.518,1.547,1.547,0,0,1-1.541-1.6,1.547,1.547,0,0,1,1.577-1.47A1.547,1.547,0,0,1,2996.765-1830.5Z" transform="translate(-142.419 -71.109)" fill="#f86c50"/>
        <path id="Trazado_625120" data-name="Trazado 625120" d="M3032.683-1734.768a1.55,1.55,0,0,1-1.489,1.559,1.55,1.55,0,0,1-1.582-1.466,1.545,1.545,0,0,1,1.536-1.606A1.546,1.546,0,0,1,3032.683-1734.768Z" transform="translate(-169.088 -142.222)" fill="#f86c50"/>
        <path id="Trazado_625121" data-name="Trazado 625121" d="M3059.725-1855.653a6.182,6.182,0,0,1-6.175-6.174,6.175,6.175,0,0,1,6.2-6.151,6.176,6.176,0,0,1,6.128,6.124A6.18,6.18,0,0,1,3059.725-1855.653Z" transform="translate(-186.863 -44.435)"/>
        <path id="Trazado_625122" data-name="Trazado 625122" d="M3098.71-1779.531a4.643,4.643,0,0,1-4.6,4.6,4.641,4.641,0,0,1-4.643-4.648,4.639,4.639,0,0,1,4.695-4.594A4.64,4.64,0,0,1,3098.71-1779.531Z" transform="translate(-213.532 -106.658)"/>
        <path id="Trazado_625123" data-name="Trazado 625123" d="M3104.512-1818.515c0,1.5,0,1.5-1.492,1.5-1.591,0-1.591,0-1.591-1.588,0-1.495,0-1.495,1.491-1.495C3104.512-1820.1,3104.512-1820.1,3104.512-1818.515Z" transform="translate(-222.413 -79.984)"/>
        <path id="Trazado_625124" data-name="Trazado 625124" d="M3055.168-1796.159c1.453,0,1.453,0,1.453,1.438,0,1.645,0,1.645-1.629,1.645-1.453,0-1.453,0-1.453-1.438C3053.539-1796.159,3053.539-1796.159,3055.168-1796.159Z" transform="translate(-186.855 -97.762)"/>
        <path id="Trazado_625125" data-name="Trazado 625125" d="M2935.273-1805.047c-1.459,0-1.459,0-1.459-1.431,0-1.651,0-1.651,1.623-1.651,1.459,0,1.459,0,1.459,1.431C2936.9-1805.047,2936.9-1805.047,2935.273-1805.047Z" transform="translate(-97.958 -88.873)"/>
        <path id="Trazado_625126" data-name="Trazado 625126" d="M3071.682-1852.967a3.106,3.106,0,0,1-3.017,3.12,3.1,3.1,0,0,1-3.143-3.089,3.093,3.093,0,0,1,3.063-3.07A3.1,3.1,0,0,1,3071.682-1852.967Z" transform="translate(-195.753 -53.325)" fill="#fe816d"/>
        <path id="Trazado_625127" data-name="Trazado 625127" d="M3102.971-1769.127a1.546,1.546,0,0,1-1.52-1.528,1.545,1.545,0,0,1,1.6-1.544,1.55,1.55,0,0,1,1.472,1.575A1.55,1.55,0,0,1,3102.971-1769.127Z" transform="translate(-222.43 -115.551)" fill="#fb806c"/>
      </g>
    </g>
  </g>
</svg>
