<svg xmlns="http://www.w3.org/2000/svg" width="167" height="167" viewBox="0 0 167 167">
  <g id="Grupo_894793" data-name="Grupo 894793" transform="translate(-717 -3100.332)">
    <circle id="Elipse_6350" data-name="Elipse 6350" cx="83.5" cy="83.5" r="83.5" transform="translate(717 3100.332)" fill="#fff"/>
    <g id="Grupo_894661" data-name="Grupo 894661" transform="translate(451.096 5696.681)">
      <path id="Trazado_625214" data-name="Trazado 625214" d="M327.544-2578.278c1.606.315,3.22.595,4.817.95a35.07,35.07,0,0,1,26.435,28.563,34.909,34.909,0,0,1-27.02,39.577,20.1,20.1,0,0,1-4.02.609c-.836.023-1.183.244-1.171,1.2.059,4.932.049,9.865.007,14.8-.007.82.2,1.013,1.014,1.011q16.487-.045,32.976-.02c6.37,0,12.74-.017,19.11.021.824,0,1.044-.2,1.008-1.018-.07-1.59-.048-3.185-.015-4.776.054-2.6-1.264-4.478-3.086-6.124-.381-.344-.808-.219-1.214-.213a21.936,21.936,0,0,1-8.7-1.151,16.413,16.413,0,0,1-10.3-14.656c-.027-1.965.83-2.858,2.816-2.838,2.941.03,5.915-.287,8.781.672,6.462,2.165,10.348,6.576,11.494,13.319a2.855,2.855,0,0,0,1.363,2.375,20.557,20.557,0,0,1,3.351-5.478c.313-.353.158-.826.145-1.239-.119-3.875.14-7.693,1.865-11.251,3.684-7.6,9.768-11.693,18.179-12.386a3.04,3.04,0,0,1,3.269,1.63v7.923a18.344,18.344,0,0,1-3.572,9.671,20.5,20.5,0,0,1-14.252,8.768,4.257,4.257,0,0,0-3.478,2.472,14.066,14.066,0,0,0-1.678,6.932c.022,1.552,0,3.1,0,4.657.01,2.49-.232,2.36,2.3,2.36h16.883c.388,0,.777-.009,1.164.01a2.378,2.378,0,0,1,2.625,1.951v29.363c-.519,1.493-.839,1.741-2.447,1.741q-23.3.008-46.6,0c-1.782,0-2.411-.551-2.758-2.318a2.713,2.713,0,0,1,2.818-2.785c.543-.039,1.087-.02,1.631-.02h39.848c.349,0,.7,0,1.049,0,1.326-.024,1.435-.119,1.439-1.494.012-3.417,0-6.835,0-10.253,0-.078-.007-.156,0-.233.078-.945-.35-1.313-1.3-1.3-2.951.027-5.9.013-8.855.008a7.109,7.109,0,0,1-1.624-.106,2.634,2.634,0,0,1-2.136-2.567,2.643,2.643,0,0,1,2.114-2.584,6.448,6.448,0,0,1,1.507-.108c2.952,0,5.9.008,8.855-.006,1.291-.006,1.4-.13,1.437-1.385.073-2.564.073-2.564-2.475-2.564q-6.932,0-13.865,0c-1.528,0-1.486.066-1.613,1.556a13.484,13.484,0,0,0,1.94,8.449,38.6,38.6,0,0,1,2.44,4.9,2.566,2.566,0,0,1-.89,3.2,2.612,2.612,0,0,1-3.237-.187,3.67,3.67,0,0,1-.8-1.138c-.5-.967-.964-1.95-1.47-2.913-.17-.323-.215-.855-.682-.838-.374.015-.448.489-.6.789-.519,1-.995,2.021-1.522,3.017-.833,1.573-2.272,2.139-3.659,1.46a2.653,2.653,0,0,1-1.066-3.787c1.043-2.17,2.1-4.335,3.236-6.458a7.5,7.5,0,0,0,.969-4.126c-.064-.967-.007-1.941-.02-2.912a.884.884,0,0,0-.994-1c-.349,0-.7-.01-1.048-.01h-49.4c-.194,0-.388,0-.582,0-1.188.033-1.291.139-1.321,1.371-.009.388.037.782-.01,1.165a2.577,2.577,0,0,0,1.439,2.747,7.138,7.138,0,0,1,2.852,8.186,7.276,7.276,0,0,1-7,5.161,7.279,7.279,0,0,1-6.922-5.113,7.353,7.353,0,0,1,2.777-8.242c.528-.365,1.29-.553,1.4-1.3a11.564,11.564,0,0,0-.01-3.478c-.05-.315-.32-.413-.6-.456a6.976,6.976,0,0,0-1.047-.04q-11.826,0-23.652,0c-1.845,0-1.849.006-1.85,1.9,0,3.3-.009,6.6,0,9.9,0,1.346.119,1.459,1.47,1.466,2.835.014,5.67,0,8.505,0a11.538,11.538,0,0,1,1.4.042,2.674,2.674,0,0,1,2.543,2.688,2.674,2.674,0,0,1-2.627,2.607c-.581.056-1.164.029-1.747.03-2.758,0-5.515.015-8.272-.008-.864-.007-1.282.274-1.279,1.2.009,3.185-.127,2.753,2.636,2.756q19.865.018,39.731.006c.5,0,1.01-.014,1.515.014a2.728,2.728,0,0,1,2.912,2.575c-.235,1.885-.929,2.534-2.791,2.535q-23.237.008-46.474,0c-2,0-2.646-.655-2.647-2.67q-.008-13.628,0-27.255c0-2.339.776-3.138,3.158-3.144,8.153-.019,16.307-.006,24.46-.008,1.2,0,2.408-.022,3.61.006.841.02,1.179-.323,1.176-1.171q-.023-6.872,0-13.744c0-.978-.388-1.326-1.355-1.45-11.58-1.486-20.364-7.343-26.425-17.243a29.669,29.669,0,0,1-4.426-12.777c-.713-7.633-.026-15.02,3.866-21.87a35.9,35.9,0,0,1,14.248-14.178,31.229,31.229,0,0,1,10.277-3.605c.99-.151,2-.077,2.982-.319Z"/>
      <path id="Trazado_625215" data-name="Trazado 625215" d="M357.192-2259.686h-5.757c-.386-1.767-1.077-2.332-2.9-2.333q-21.38,0-42.76.027c-1.054,0-1.342-.277-1.234-1.274a11.819,11.819,0,0,0,0-2.443c-.087-.863.264-1,1.041-.99,3.378.043,6.758.023,10.136.016,1.76,0,2.849-.933,2.815-2.382-.032-1.409-1.084-2.272-2.8-2.275-3.379-.006-6.758-.041-10.136.024-.915.017-1.064-.271-1.054-1.1q.066-5.941,0-11.884c-.008-.778.135-1.047.99-1.044q12.991.053,25.982,0c.794,0,1.156.159,1.02,1a3.717,3.717,0,0,0,0,.93c.174,1.855-.058,3.245-2.017,4.4-2.583,1.526-3.278,5.066-2.161,7.9a7.048,7.048,0,0,0,7.114,4.407,6.977,6.977,0,0,0,6.193-5.467,6.737,6.737,0,0,0-3.341-7.513,1.816,1.816,0,0,1-1.145-2.041c.079-1.155-.388-2.723.2-3.366.674-.739,2.261-.224,3.449-.225,16.389-.013,32.779,0,49.168-.039,1.112,0,1.213.36,1.3,1.339a14.95,14.95,0,0,1-2.313,9.721,36.982,36.982,0,0,0-1.778,3.526c-.9,1.8-.667,3.128.659,3.817s2.575.1,3.476-1.689q1.046-2.073,2.1-4.146c.016-.031.056-.049.21-.177.754,1.49,1.5,2.949,2.231,4.413a3.75,3.75,0,0,0,.907,1.335,2.272,2.272,0,0,0,2.8.082,2.212,2.212,0,0,0,.737-2.89c-1.12-2.34-2.18-4.724-3.5-6.948-1.083-1.821-.889-3.713-.9-5.629-.017-2.726,0-2.726,2.759-2.726,4.932,0,9.865.019,14.8-.019.817-.006,1.21.112,1.1,1.047-.14,1.18.489,2.774-.251,3.447-.645.587-2.21.177-3.368.182-2.563.01-5.126-.005-7.69.006-1.616.007-2.653.9-2.682,2.278-.03,1.416,1.038,2.373,2.7,2.377,3.456.01,6.913.021,10.369-.011.676-.006.933.108.925.871q-.064,6.116,0,12.233c.011.848-.327.906-1.008.905q-14.331-.026-28.662-.012-7.165,0-14.331,0c-1.825,0-2.518.567-2.9,2.333h-5.757c-.335-.189-.4-.556-.554-.859a1.943,1.943,0,0,0-1.869-1.14,1.939,1.939,0,0,0-1.754,1.141C357.592-2260.241,357.527-2259.875,357.192-2259.686Z" transform="translate(-10.573 -201.6)" fill="#fed98e"/>
      <path id="Trazado_625216" data-name="Trazado 625216" d="M334.924-2563.312a30.341,30.341,0,0,1,30.314,30.274,30.351,30.351,0,0,1-30.277,30.316A30.347,30.347,0,0,1,304.65-2533,30.343,30.343,0,0,1,334.924-2563.312Z" transform="translate(-10.662 -10.305)" fill="#b2f0fe"/>
      <path id="Trazado_625217" data-name="Trazado 625217" d="M612.961-2409.662A16.492,16.492,0,0,1,626-2427.771c.5-.093.821-.189.862.57a16.514,16.514,0,0,1-13.108,17.43C613.5-2409.715,613.227-2409.7,612.961-2409.662Z" transform="translate(-222.864 -103.589)" fill="#d7eb83"/>
      <path id="Trazado_625218" data-name="Trazado 625218" d="M537.513-2374.491c-6.811.541-12.03-3.024-13.377-9.1A11.608,11.608,0,0,1,537.513-2374.491Z" transform="translate(-161.79 -133.937)" fill="#d7eb83"/>
      <path id="Trazado_625219" data-name="Trazado 625219" d="M399.1-2252.644a2.351,2.351,0,0,1-2.431,2.276,2.351,2.351,0,0,1-2.217-2.373,2.346,2.346,0,0,1,2.43-2.275A2.35,2.35,0,0,1,399.1-2252.644Z" transform="translate(-72.497 -222.581)" fill="#ecf8fd"/>
      <path id="Trazado_625220" data-name="Trazado 625220" d="M473.64-2207.79c.328-1.53,1.088-2.3,2.306-2.328,1.263-.032,2.081.754,2.424,2.328-.347,1.57-1.165,2.353-2.423,2.321C474.733-2205.5,473.973-2206.265,473.64-2207.79Z" transform="translate(-127.021 -253.496)" fill="#010101"/>
      <path id="Trazado_625221" data-name="Trazado 625221" d="M465.026-2270c2.676,0,5.351-.008,8.027,0,1.653.007,2.725.969,2.691,2.38a2.38,2.38,0,0,1-2.682,2.274q-8.027.013-16.053,0c-1.656,0-2.723-.967-2.69-2.382.032-1.372,1.068-2.266,2.681-2.273C459.675-2270.01,462.35-2270,465.026-2270Z" transform="translate(-113.716 -212.262)"/>
      <path id="Trazado_625222" data-name="Trazado 625222" d="M446.983-2235.418c-1.667,0-3.333.012-5,0a2.369,2.369,0,0,1-2.629-2.324,2.359,2.359,0,0,1,2.621-2.329q5.058-.02,10.115,0a2.365,2.365,0,0,1,2.63,2.322,2.371,2.371,0,0,1-2.623,2.331C450.393-2235.406,448.688-2235.418,446.983-2235.418Z" transform="translate(-103.414 -232.864)"/>
      <path id="Trazado_625223" data-name="Trazado 625223" d="M509.061-2235.444c-1.007,0-2.015.031-3.02-.009a2.314,2.314,0,0,1-2.338-2.373,2.3,2.3,0,0,1,2.326-2.263q3.019-.062,6.041,0a2.306,2.306,0,0,1,2.338,2.369,2.349,2.349,0,0,1-2.327,2.275c-.077,0-.155,0-.232,0Z" transform="translate(-147.721 -232.839)"/>
      <path id="Trazado_625224" data-name="Trazado 625224" d="M339.3-2265.385c-.813,0-1.628.036-2.438-.009a2.317,2.317,0,0,1-2.264-2.327,2.294,2.294,0,0,1,2.282-2.3q2.379-.073,4.761,0a2.3,2.3,0,0,1,2.264,2.321,2.321,2.321,0,0,1-2.283,2.309C340.85-2265.351,340.074-2265.385,339.3-2265.385Z" transform="translate(-31.283 -212.224)"/>
      <path id="Trazado_625225" data-name="Trazado 625225" d="M540.462-2269.976a2.346,2.346,0,0,1,2.306,2.284,2.345,2.345,0,0,1-2.343,2.364,2.346,2.346,0,0,1-2.3-2.4A2.342,2.342,0,0,1,540.462-2269.976Z" transform="translate(-171.418 -212.282)" fill="#010101"/>
      <path id="Trazado_625226" data-name="Trazado 625226" d="M632.56-2237.777a2.347,2.347,0,0,1-2.327,2.379,2.347,2.347,0,0,1-2.32-2.27,2.341,2.341,0,0,1,2.326-2.378A2.346,2.346,0,0,1,632.56-2237.777Z" transform="translate(-233.245 -232.89)" fill="#010101"/>
      <path id="Trazado_625227" data-name="Trazado 625227" d="M343.109-2533.82c1.683,1.643,3.263,3.127,4.775,4.677a2.3,2.3,0,0,1-.34,3.772,2.353,2.353,0,0,1-3.045-.582c-1.687-1.66-3.38-3.317-5.01-5.033-.548-.577-.852-.491-1.346.02a12.067,12.067,0,0,0-2.688,4.172,2.477,2.477,0,0,1-2.574,1.757c-3.027-.017-6.055.01-9.082-.012-1.906-.014-2.873-1.287-2.459-3.166a25.628,25.628,0,0,1,24.945-20.132,25.663,25.663,0,0,1,25.1,20.094c.434,1.943-.534,3.194-2.522,3.206-2.872.017-5.744.005-8.616,0-1.858,0-2.379-.346-3.09-2.031a11.639,11.639,0,0,0-13.342-7.015A6.737,6.737,0,0,0,343.109-2533.82Z" transform="translate(-22.091 -20.609)"/>
      <path id="Trazado_625228" data-name="Trazado 625228" d="M423.375-2449.17c0,2.212.013,4.424,0,6.636a2.37,2.37,0,0,1-2.335,2.624,2.372,2.372,0,0,1-2.318-2.64c-.014-1.94-.025-3.881.009-5.821.011-.61-.083-.914-.8-.87a26.55,26.55,0,0,1-3.142,0c-.667-.039-.751.248-.743.806.026,1.94.019,3.881.007,5.821-.01,1.659-.962,2.732-2.373,2.7a2.377,2.377,0,0,1-2.282-2.676q-.014-6.636,0-13.272c0-1.612.9-2.651,2.275-2.681,1.412-.032,2.36,1.04,2.382,2.7.027,1.959.027,1.961,1.891,1.958.853,0,1.9.294,2.509-.095.678-.435.165-1.563.263-2.383a2.37,2.37,0,0,1,2.431-2.176,2.318,2.318,0,0,1,2.216,2.385C423.4-2453.827,423.374-2451.5,423.375-2449.17Z" transform="translate(-82.781 -82.444)"/>
      <path id="Trazado_625229" data-name="Trazado 625229" d="M349.526-2449.357c0-2.212-.014-4.424,0-6.635a2.343,2.343,0,0,1,2.6-2.588c1.513-.017,3.027-.03,4.54.006a6.987,6.987,0,0,1,6.832,6.973,7.025,7.025,0,0,1-6.819,7c-.8.027-1.854-.354-2.336.167-.4.429-.121,1.464-.174,2.228a2.335,2.335,0,0,1-2.346,2.257,2.293,2.293,0,0,1-2.288-2.308c-.042-2.366-.012-4.734-.012-7.1Z" transform="translate(-41.558 -82.406)"/>
      <path id="Trazado_625230" data-name="Trazado 625230" d="M398.611-2519.309h-.684a14.882,14.882,0,0,1-3.822-.071c-1.259-.346-1.459-1.926-2.218-2.9a16.339,16.339,0,0,0-18.8-5.222,1.388,1.388,0,0,1-1.788-.39c-.852-.893-1.8-1.693-2.756-2.577C380.306-2537.225,394.783-2530.965,398.611-2519.309Z" transform="translate(-54.656 -31.003)" fill="#edf9fe"/>
      <path id="Trazado_625231" data-name="Trazado 625231" d="M338.491-2506.957a20.826,20.826,0,0,1,5.2-8.116c.337-.332.572-.313.839.035a1.831,1.831,0,0,0,.163.166c.823.825,2.072,1.526,2.355,2.506.314,1.09-1.356,1.608-1.863,2.607-.226.445-.668.8-.824,1.259-.467,1.379-1.406,1.715-2.755,1.563A29.038,29.038,0,0,0,338.491-2506.957Z" transform="translate(-33.964 -43.356)" fill="#edf9fe"/>
      <path id="Trazado_625232" data-name="Trazado 625232" d="M366.047-2443.542a7.674,7.674,0,0,1,1.159.009,2.344,2.344,0,0,1,1.951,2.149,2.353,2.353,0,0,1-1.675,2.372,2.447,2.447,0,0,1-.338.077c-2.457.391-2.638.239-2.638-2.222v-.929C364.505-2443.573,364.505-2443.573,366.047-2443.542Z" transform="translate(-51.876 -92.76)" fill="#b2f0fe"/>
    </g>
  </g>
</svg>
