<svg xmlns="http://www.w3.org/2000/svg" xmlns:xlink="http://www.w3.org/1999/xlink" width="181" height="182" viewBox="0 0 181 182">
  <defs>
    <clipPath id="clip-path">
      <ellipse id="Elipse_156" data-name="Elipse 156" cx="90.5" cy="91" rx="90.5" ry="91" transform="translate(0.271 0.12)" fill="#fff" stroke="#707070" stroke-width="1"/>
    </clipPath>
  </defs>
  <g id="Grupo_874760" data-name="Grupo 874760" transform="translate(-404 -3670)">
    <g id="Enmascarar_grupo_16" data-name="Enmascarar grupo 16" transform="translate(403.729 3669.88)" clip-path="url(#clip-path)">
      <rect id="_95da3c9cb84d7a8c336853e8faf60a4e" data-name="95da3c9cb84d7a8c336853e8faf60a4e" width="195" height="216.886" transform="translate(-13.729 -17.152)" fill="#f3f9ff"/>
    </g>
    <g id="Grupo_894644" data-name="Grupo 894644" transform="translate(-619.17 5645.57)">
      <path id="Trazado_624952" data-name="Trazado 624952" d="M1174.851-1650.269a2.705,2.705,0,0,1-2.53,1.207q-58.654-.033-117.308-.019a7.106,7.106,0,0,1-.835-.015,1.815,1.815,0,0,1-1.689-1.832,1.763,1.763,0,0,1,1.785-1.722c1.551-.045,3.105-.015,4.658-.016a1.882,1.882,0,0,1,1.348-.37c2.743,0,5.487-.045,8.23.021,1.351-.076,2.7-.032,4.056-.032q19.091-.007,38.182,0a13.316,13.316,0,0,1,1.43.034c2.418-.043,4.837-.048,7.256,0,.676-.065,1.353-.034,2.029-.034q22.382,0,44.765,0a3.322,3.322,0,0,1,2.191.363c1.31.005,2.622.07,3.928,0a2.487,2.487,0,0,1,2.5,1.22Z" transform="translate(0 -189.125)" fill="#f5a86c"/>
      <path id="Trazado_624953" data-name="Trazado 624953" d="M1145.4-1841.728l-43.742-.01a5.923,5.923,0,0,1,.636-5.568,5.727,5.727,0,0,0,.91-3.243q-.023-33.991-.005-67.982a4.133,4.133,0,0,1,.3-2.333,3.4,3.4,0,0,1,2.2-.346q21.922-.014,43.843-.007c.518,0,1.036.014,1.553-.015,1.226-.069,1.9-.552,1.933-1.364.029-.845-.686-1.361-1.989-1.425-.517-.025-1.035-.012-1.553-.012q-22.519,0-45.038,0a6.735,6.735,0,0,1-2.134-.154,1.326,1.326,0,0,1-.759-1,11.39,11.39,0,0,1-.124-4.26,1.689,1.689,0,0,1,1.184-1.376c2.628-.01,5.255-.03,7.883-.031q24.015,0,48.028,0c2.049,0,2.425.379,2.427,2.432,0,.677,0,1.354,0,2.031a4.445,4.445,0,0,1-1.677,3.657,2.256,2.256,0,0,0-.122,1.281c-.009,8.914-.026,17.829.018,26.743a2.1,2.1,0,0,1-1.306,2.13c-7.214,3.822-10.781,9.929-10.878,18.006-.106,8.754-.031,17.51-.015,26.265a4.747,4.747,0,0,1-.776,3.052,3.163,3.163,0,0,0-.431,1.95A2.207,2.207,0,0,1,1145.4-1841.728Z" transform="translate(-33.173 -0.06)" fill="#d78955"/>
      <path id="Trazado_624954" data-name="Trazado 624954" d="M1310.12-1775.48l-49,.009a3.974,3.974,0,0,1,.314-4.07,4.833,4.833,0,0,0,.768-2.8q-.027-13.6-.01-27.2a20.033,20.033,0,0,1,15.922-19.081c1.3-.245,2.625-.037,3.9-.4a42.207,42.207,0,0,1,4.643-.094c1.8-.024,1.761-.012,1.823-1.775.031-.875-.32-1.838.429-2.6a14.167,14.167,0,0,1,.146,3.781c.015.7.189.947.93,1a19.667,19.667,0,0,1,13.118,6.02,18.955,18.955,0,0,1,5.556,13.418c.042,9.2.016,18.391.007,27.586a3.041,3.041,0,0,0,.623,2.083C1310.233-1778.413,1310.067-1776.9,1310.12-1775.48Z" transform="translate(-141.702 -66.327)" fill="#ecc8b0"/>
      <path id="Trazado_624955" data-name="Trazado 624955" d="M1083.161-1930.892c-1.633,2.027-.99,4.222-.472,6.407-.283.343-.725.28-1.086.423a1.419,1.419,0,0,0-1.019,1.563,1.418,1.418,0,0,0,1.361,1.271c.725.115,1.521-.214,2.175.344q0,35.81.007,71.621c0,.352.113.767-.172,1.031-1.924,1.787-1.76,4.128-1.746,6.434l-9.553.006c.008-.915,0-1.831.025-2.746a4.023,4.023,0,0,1,1.087-2.945,2.814,2.814,0,0,0,.811-2.337q-.018-35.7,0-71.4a2.683,2.683,0,0,0-.733-2.128,5.1,5.1,0,0,1-1.187-3.757c-.056-3.828.121-3.908,3.817-3.829C1078.7-1930.89,1080.933-1930.906,1083.161-1930.892Z" transform="translate(-13.723 0)" fill="#c47a44"/>
      <path id="Trazado_624956" data-name="Trazado 624956" d="M1267.44-1877.649c-1.5.332-3.047.2-4.564.584a19.857,19.857,0,0,0-14.585,15.93,15.391,15.391,0,0,0-.2,2.482q-.006,14.088.005,28.177a2.438,2.438,0,0,1-.632,1.827c-1.106,1.209-.776,2.759-.792,4.214l-7.188.01c.037-1.607-.3-3.286,1.054-4.612.323-.315.146-.844.146-1.274.006-8.921-.009-17.842.01-26.764a20.127,20.127,0,0,1,3.829-12.4,18.767,18.767,0,0,1,7.508-6.262,1.59,1.59,0,0,0,1.08-1.719q-.049-13.322-.01-26.644c0-.45-.2-.967.255-1.341q-.022,12.229-.044,24.457c0,1.5,0,3,0,4.638a22.641,22.641,0,0,1,7.228-1.392c.849-.6,1.818-.291,2.735-.346a15.036,15.036,0,0,1,1.993.014C1266.008-1878.018,1266.817-1878.315,1267.44-1877.649Z" transform="translate(-127.256 -17.363)" fill="#e3ae89"/>
      <path id="Trazado_624957" data-name="Trazado 624957" d="M1318.676-1878.487c2.744-.009,5.489,0,8.233-.035,1.009-.013,1.433.359,1.382,1.412-.185,3.88-.989,7.539-3.513,10.641a1.067,1.067,0,0,0-.117.333c-.763.633-1.62.388-2.465.269a4.288,4.288,0,0,1-1.671-1.956c-1.8-2.881-2.293-6.131-2.585-9.43A1.142,1.142,0,0,1,1318.676-1878.487Z" transform="translate(-180.656 -35.683)" fill="#ecc8b0"/>
      <path id="Trazado_624958" data-name="Trazado 624958" d="M1309.144-1878.466c-1.009,1.126-.268,2.406-.146,3.536a16.308,16.308,0,0,0,3.522,8.809c-.478.535-1.117.385-1.717.406-1.025-.145-2.143.383-3.08-.416a16.843,16.843,0,0,1-3.574-9.057c-.086-.709-.179-1.418-.219-2.13-.043-.784.371-1.177,1.157-1.173Q1307.115-1878.48,1309.144-1878.466Z" transform="translate(-171.123 -35.705)" fill="#e3ae8a"/>
      <path id="Trazado_624959" data-name="Trazado 624959" d="M1321.112-1839.685l1.687-.079,2.609.007c1.5-.034,2.773.3,3.2,1.994,0,1.235-.056,2.471,0,3.7.04.818-.192,1.108-1.051,1.086-1.989-.049-3.981.009-5.972.023l-2.143-.1a8.555,8.555,0,0,1,.053-5.4A2.036,2.036,0,0,1,1321.112-1839.685Z" transform="translate(-181.402 -62.061)" fill="#09a66d"/>
      <path id="Trazado_624960" data-name="Trazado 624960" d="M1311.831-1839.708a3.4,3.4,0,0,0-1.68,3.411c.082,1.067.013,2.145.011,3.218l-4.759.017c0-1.066-.008-2.132-.009-3.2,0-2.777.548-3.36,3.327-3.539Z" transform="translate(-172.122 -62.038)" fill="#02905d"/>
      <path id="Trazado_624961" data-name="Trazado 624961" d="M1160.424-1832.727c.349,9.408-8.032,17.8-17.846,17.626a17.718,17.718,0,0,1-17.517-18.285,17.6,17.6,0,0,1,17.8-17.262A17.505,17.505,0,0,1,1160.424-1832.727Z" transform="translate(-49.386 -54.654)" fill="#e99a58"/>
      <path id="Trazado_624962" data-name="Trazado 624962" d="M1100.068-1907.123c-.631,0-1.261,0-1.892-.008-1.208-.02-2.031-.672-2.088-1.647a1.951,1.951,0,0,1,2.076-1.938c.157-.006.315,0,.473-.007l48.628.007a5.922,5.922,0,0,1,1.192.028,1.726,1.726,0,0,1,1.549,1.825,1.722,1.722,0,0,1-1.552,1.7,6.311,6.311,0,0,1-1.192.027Z" transform="translate(-29.671 -13.761)" fill="#e99a58"/>
      <path id="Trazado_624963" data-name="Trazado 624963" d="M1156.1-1715.571q-4.653,0-9.307,0c-1.4,0-2.235-.651-2.275-1.733-.041-1.121.84-1.847,2.28-1.848,6.165,0,12.33.005,18.495-.01a1.988,1.988,0,0,1,2.1,1.235,1.765,1.765,0,0,1-.743,2.089,1.858,1.858,0,0,1-1.247.267Q1160.753-1715.567,1156.1-1715.571Z" transform="translate(-62.631 -144.139)" fill="#f5a86c"/>
      <path id="Trazado_624964" data-name="Trazado 624964" d="M1303.2-1702.682c3.026,0,6.053,0,9.079,0,1.51,0,2.3.643,2.28,1.823-.016,1.122-.8,1.756-2.225,1.757q-9.2.01-18.4,0c-1.435,0-2.127-.612-2.112-1.823.014-1.184.712-1.756,2.177-1.758Q1298.6-1702.688,1303.2-1702.682Z" transform="translate(-162.887 -155.354)" fill="#e99a58"/>
      <path id="Trazado_624965" data-name="Trazado 624965" d="M1292.03-1752.6a8.623,8.623,0,0,1-6.5-1.76,4.158,4.158,0,0,1-1.038-5.821,4.172,4.172,0,0,1,5.9-1.073,8.107,8.107,0,0,1,3.864,6.009C1294.923-1753.4,1294.114-1752.436,1292.03-1752.6Z" transform="translate(-157.371 -114.973)" fill="#09a66d"/>
      <path id="Trazado_624966" data-name="Trazado 624966" d="M1337.614-1755.266a8.037,8.037,0,0,1,3.946-6.061,4.159,4.159,0,0,1,5.724,1.012,4.134,4.134,0,0,1-.765,5.752,8.4,8.4,0,0,1-6.648,1.949C1337.769-1752.45,1337.054-1753.29,1337.614-1755.266Z" transform="translate(-193.924 -114.961)" fill="#09a66d"/>
      <path id="Trazado_624967" data-name="Trazado 624967" d="M1316.711-1775.439a8.265,8.265,0,0,1-2.429-6.37,4.05,4.05,0,0,1,3.726-4.079,3.924,3.924,0,0,1,4.489,3.469,7.75,7.75,0,0,1-2.242,6.86,3.5,3.5,0,0,0-.255.456C1318.7-1773.776,1317.825-1773.865,1316.711-1775.439Z" transform="translate(-178.157 -98.716)" fill="#09a66d"/>
      <path id="Trazado_624968" data-name="Trazado 624968" d="M1311.831-1681.215c-1.631,0-3.264.034-4.894-.01-1.772-.048-2.481-.706-2.386-2.091a1.368,1.368,0,0,1,1.41-1.46c3.859-.032,7.719-.027,11.579-.009a1.49,1.49,0,0,1,1.594,1.451,1.615,1.615,0,0,1-1.127,1.871,10.99,10.99,0,0,1-3.549.243C1313.582-1681.192,1312.706-1681.214,1311.831-1681.215Z" transform="translate(-171.541 -167.526)" fill="#e99b58"/>
      <path id="Trazado_624969" data-name="Trazado 624969" d="M1320.919-1753.141a1.753,1.753,0,0,1,.207.114c1.55,1.158,1.55,1.158,3.106-.014.018.035.053.072.051.106-.159,2.527.448,5,.566,7.5a2.7,2.7,0,0,1-.378,1.713c0,.872.013,1.744-.014,2.615a1.946,1.946,0,0,1-1.8,2.127c-1.055,0-1.754-.813-1.776-2.1-.015-.872-.005-1.744-.007-2.615a6.394,6.394,0,0,1,0-4.59Q1320.9-1750.711,1320.919-1753.141Z" transform="translate(-182.365 -121.015)" fill="#c47a44"/>
      <path id="Trazado_624970" data-name="Trazado 624970" d="M1332.466-1743.977c.131-3.112-.405-6.208-.238-9.321l.23-.221v4.836c.719.01,1.063-.584,1.593-.787.069,1.89.069,1.89,2.257,2.654Z" transform="translate(-190.361 -120.757)" fill="#d68a55"/>
      <path id="Trazado_624971" data-name="Trazado 624971" d="M1313.581-1739.9q0,2.295,0,4.589l-3.849-2.87a2.471,2.471,0,0,1,.317-.144c1.854-.556,1.854-.556,1.911-2.5C1312.573-1740.643,1312.9-1739.96,1313.581-1739.9Z" transform="translate(-175.073 -129.397)" fill="#d78a55"/>
      <path id="Trazado_624972" data-name="Trazado 624972" d="M1163.013-1839.174c5.722.261,10.968,4.861,12.385,10.862a14.146,14.146,0,0,1-11.719,17.158,9.053,9.053,0,0,1-2.127.177,5.232,5.232,0,0,1-2.718-1.324,16.008,16.008,0,0,1-6.005-9.785c-.09-.471-.354-1.017.29-1.346.857.864,1.451,1.941,2.348,2.788a8,8,0,0,0,4.364,2.2,6.883,6.883,0,0,0,3.059.076,8.9,8.9,0,0,0,7.66-8.524,2.777,2.777,0,0,0-.18-1.622c-1.2-.981-2.572-.582-3.845-.335a7.819,7.819,0,0,0-3.838,2.025,1.773,1.773,0,0,1-1.084.668c-1.12-.6-2-1.553-3.2-2.055a8.661,8.661,0,0,0-3.212-.819,3.893,3.893,0,0,1-1.686-.18c-.357-.277-.259-.644-.15-.976a15.063,15.063,0,0,1,6.906-8.715A3.984,3.984,0,0,1,1163.013-1839.174Z" transform="translate(-68.201 -62.386)" fill="#f4e1d3"/>
      <path id="Trazado_624973" data-name="Trazado 624973" d="M1151.829-1839.319c-3.086-.263-4.763,1.969-6.525,3.863a13.282,13.282,0,0,0-3.058,5.935c-.989,1.435-.654,3-.442,4.548.066.483.445.942.121,1.457a4.291,4.291,0,0,0,.364,2.749,15.576,15.576,0,0,0,8.081,9.643,14.322,14.322,0,0,1-13.914-11.833,14.244,14.244,0,0,1,8.238-15.26A11.758,11.758,0,0,1,1151.829-1839.319Z" transform="translate(-57.017 -62.24)" fill="#ecc9b1"/>
      <path id="Trazado_624974" data-name="Trazado 624974" d="M1176.483-1797.041c-1.116.495-2.22.074-3.328-.041-.977-.9-.48-2.066-.572-3.125a10.863,10.863,0,0,1,1.4-3.955c.255-.439.509-.89,1.062-1.026a9.409,9.409,0,0,1,7.906-3.074c.518.049,1.063.03,1.184.72.281,1.826.24,1.86-1.352,2.418a8.47,8.47,0,0,0-5.948,6.97A1.812,1.812,0,0,1,1176.483-1797.041Z" transform="translate(-81.701 -83.469)" fill="#02905d"/>
      <path id="Trazado_624975" data-name="Trazado 624975" d="M1158.765-1800.345a11.788,11.788,0,0,0,.272,3.3,8.929,8.929,0,0,1-6.546-5.2,10.113,10.113,0,0,1-.665-4.739,1.2,1.2,0,0,1,.985-1.267l1.906.067a1.1,1.1,0,0,1,.294.759,9.039,9.039,0,0,0,3.129,6.364A7.725,7.725,0,0,1,1158.765-1800.345Z" transform="translate(-67.584 -83.504)" fill="#96d629"/>
      <path id="Trazado_624976" data-name="Trazado 624976" d="M1184.892-1795.41a8.435,8.435,0,0,1,6.079-8.3c1.318-.375,1.774-.945,1.573-2.2.791,2.657-.618,6.966-3.7,9.02A7.758,7.758,0,0,1,1184.892-1795.41Z" transform="translate(-90.11 -85.1)" fill="#09a66d"/>
      <path id="Trazado_624977" data-name="Trazado 624977" d="M1164.943-1800.2a7,7,0,0,1-3.194-3.616,8.663,8.663,0,0,1-.854-4.228,8.882,8.882,0,0,1,6.21,3.036A11.553,11.553,0,0,0,1164.943-1800.2Z" transform="translate(-73.762 -83.648)" fill="#a1e52e"/>
    </g>
  </g>
</svg>
