<svg xmlns="http://www.w3.org/2000/svg" xmlns:xlink="http://www.w3.org/1999/xlink" width="181" height="182" viewBox="0 0 181 182">
  <defs>
    <clipPath id="clip-path">
      <ellipse id="Elipse_6209" data-name="Elipse 6209" cx="90.5" cy="91" rx="90.5" ry="91" transform="translate(0.271 0.12)" fill="#fff" stroke="#707070" stroke-width="1"/>
    </clipPath>
  </defs>
  <g id="Grupo_874761" data-name="Grupo 874761" transform="translate(-1017 -3670)">
    <g id="Enmascarar_grupo_130554" data-name="Enmascarar grupo 130554" transform="translate(1016.729 3669.88)" clip-path="url(#clip-path)">
      <rect id="_95da3c9cb84d7a8c336853e8faf60a4e" data-name="95da3c9cb84d7a8c336853e8faf60a4e" width="315" height="236.25" transform="translate(-13.729 -36.516)" fill="#f3f9ff"/>
    </g>
    <g id="Grupo_894645" data-name="Grupo 894645" transform="translate(-782.105 5550.235)">
      <path id="Trazado_624978" data-name="Trazado 624978" d="M1880.839-1853.828c.757-1.537,1.578-1.9,3.127-1.363a11.716,11.716,0,0,1,1.27.567c2.268,1.111,2.267,1.113,3.645-1.073.52-.825,1.085-1.626,1.546-2.483a6.806,6.806,0,0,1,3.66-2.951h4.776a6.719,6.719,0,0,1,4.291,4.392,1.655,1.655,0,0,0,1.916,1.247c2.89-.3,5.254.552,6.8,3.176a1.566,1.566,0,0,0,1.557.746c.7-.042,1.4-.027,2.105,0a5.222,5.222,0,0,1,4.97,4,40.812,40.812,0,0,1,.673,4.432c.093.833.362,1.188,1.279,1.127,1.4-.092,2.807-.045,4.21-.017a5.427,5.427,0,0,1,5.443,5.149,10.352,10.352,0,0,1-.158,3.353,5.554,5.554,0,0,1-5.288,4.065c-.782.036-1.566.006-2.612.006a28.989,28.989,0,0,1,6.024,11.308,59.5,59.5,0,0,1,1.79,18.206c-.19,6.232-1.276,12.369-1.862,18.557a73.247,73.247,0,0,0,5.257,35.549,43.13,43.13,0,0,1,2.754,8.651,10.217,10.217,0,0,1-6.229,11.464c-1.165.475-2.377.831-3.551,1.285a2.371,2.371,0,0,1-3.24-1.04,1.868,1.868,0,0,1,.062-2.21,4.468,4.468,0,0,1,1.75-1.138c.972-.338,1.957-.639,2.912-1.021a5.74,5.74,0,0,0,3.684-6.879,29.556,29.556,0,0,0-1.716-5.626,77.392,77.392,0,0,1-6.051-22.115,86.13,86.13,0,0,1,.158-20.979c.668-5.1,1.235-10.194,1.4-15.346a53.6,53.6,0,0,0-1.484-15.831,22.739,22.739,0,0,0-5.876-10.533,5.354,5.354,0,0,0-4.743-1.815c-17.135-.006-34.27.018-51.4-.024a5.524,5.524,0,0,0-4.123,1.675,22.373,22.373,0,0,0-5.9,10.055,46.286,46.286,0,0,0-1.6,9.955c-.546,7.8.609,15.485,1.484,23.193a78.848,78.848,0,0,1-5.068,39.4,45.078,45.078,0,0,0-2.617,7.7c-.728,3.44.615,6.089,3.893,7.258a139.138,139.138,0,0,0,29.4,7.21,89.891,89.891,0,0,0,27.793-1.067c3.639-.676,7.219-1.6,10.822-2.435a4.1,4.1,0,0,1,2.278.246,1.577,1.577,0,0,1,.926,1.679,2.279,2.279,0,0,1-1.946,2.508c-15.3,4.174-30.738,5.7-46.483,2.756a160.109,160.109,0,0,1-24.57-6.621,10.224,10.224,0,0,1-6.754-11.915,47.524,47.524,0,0,1,3-9.158,73.68,73.68,0,0,0,4.7-37.279c-.987-7.892-2.042-15.771-1.513-23.765.525-7.924,2.238-15.409,7.568-21.676a2.27,2.27,0,0,0-1.4-.166c-4.5-.022-6.6-2.154-6.531-6.665.056-3.726,2.252-5.908,5.966-5.924,1.357-.006,2.718-.06,4.07.02a1.285,1.285,0,0,0,1.546-1.02c.037-.134.106-.26.147-.394,1.256-4.177,4.019-6.015,8.366-5.389a2.409,2.409,0,0,0,2.482-1.188c.889-1.259,1.836-2.484,2.84-3.654,1.332-1.553,2.642-1.479,3.927.128a1.386,1.386,0,0,1,.173,1.9,67.852,67.852,0,0,1-4.646,5.916,4.286,4.286,0,0,1-1.161.77,9.809,9.809,0,0,1-4.925.834c-.647,0-1.353-.053-1.781.588-.355.531-.374.98.441,1.045.327.026.655.017.982.017h48.988c.094,0,.187,0,.281,0,1.681-.025,1.784-.137,1.613-1.766-.02-.186-.055-.37-.082-.553-.258-2.182-.274-2.249-2.511-2.195a6.3,6.3,0,0,1-5.675-2.74,2.587,2.587,0,0,0-2.515-1.207c-3.314.315-5.392-1.291-6.7-4.211a2.737,2.737,0,0,0-4.7-.359c-.684,1-1.288,2.064-1.948,3.086-2.059,3.192-4.644,3.929-8.065,2.31-.635-.3-1.3-.542-1.929-.844C1880.771-1851.635,1880.49-1852.23,1880.839-1853.828Z" transform="translate(0 0)" fill="#f0f0f0"/>
      <path id="Trazado_624979" data-name="Trazado 624979" d="M1920.964-1838.632c2.078-1.787,3.417-4.194,5.2-6.227a2.064,2.064,0,0,0,.149-1.885c1.5.166,3.026.692,4.45-.294a2.2,2.2,0,0,0,1.715,2.633,16.213,16.213,0,0,1,2.014.966,5.263,5.263,0,0,0,7.083-1.973c.825-1.243,1.579-2.534,2.4-3.78,1.029-1.561,4.282-1.38,4.961.354,1.265,3.226,3.516,4.7,6.961,4.337a2.041,2.041,0,0,1,2.149.975c1.427,2.327,3.552,3.107,6.2,2.965,2.008-.109,2.2.169,2.239,2.235a2.339,2.339,0,0,1-1.85.451q-20.9.019-41.8-.01C1922.156-1837.888,1921.293-1837.654,1920.964-1838.632Z" transform="translate(-49.93 -6.79)" fill="#859fae"/>
      <path id="Trazado_624980" data-name="Trazado 624980" d="M2048.991-1502.486c-.469-1.512-1.567-1.868-2.989-1.631,0-.447.363-.542.669-.551,1.855-.056,3.51-.854,5.244-1.359.475-.138.97-.4,1.448.013a3.431,3.431,0,0,0-.352,2.181A15.985,15.985,0,0,0,2048.991-1502.486Z" transform="translate(-128.02 -221.644)" fill="#e5a461"/>
      <path id="Trazado_624981" data-name="Trazado 624981" d="M1932.375-1675.145c-2.461.6-4.789,1.724-7.361,1.9-13.663,3.805-27.481,5.426-41.626,3.24a144.53,144.53,0,0,1-26.558-6.806c-3.641-1.3-5.1-3.872-4.368-7.639a39.438,39.438,0,0,1,2.464-7.43,78.942,78.942,0,0,0,5-41.684,105.971,105.971,0,0,1-1.213-22.241,35.284,35.284,0,0,1,3.33-13.524,22.735,22.735,0,0,1,2.4-3.781,8.992,8.992,0,0,1,7.9-3.933c16.051.247,32.108.106,48.163.11.56,0,1.119.043,1.679.067,2.7,1.573,4.1,4.207,5.368,6.854a38.692,38.692,0,0,1,3.468,15.647,150.338,150.338,0,0,1-1.57,23.493,74.875,74.875,0,0,0,5.544,39.13,34.567,34.567,0,0,1,2.327,7.494,8.732,8.732,0,0,1-1.552,6.652,7.012,7.012,0,0,1-2.047,1.644Z" transform="translate(-7.033 -52.512)" fill="#ebb67f"/>
      <path id="Trazado_624982" data-name="Trazado 624982" d="M2050.015-1675.851a9.882,9.882,0,0,0,3.193-5.241,10.322,10.322,0,0,0-.284-4.409c-.956-4.11-2.921-7.861-4.231-11.847a71.557,71.557,0,0,1-3.509-16.755,63.707,63.707,0,0,1-.474-8.072,123.711,123.711,0,0,1,1.268-13.592,98.075,98.075,0,0,0,.865-20.376,36.591,36.591,0,0,0-3.139-13.24,26.142,26.142,0,0,0-5.225-7.382,4.738,4.738,0,0,1,4.529,1.5c4.322,4.1,6.333,9.288,7.258,14.99,1.341,8.266.8,16.538-.422,24.745-2.284,15.332-1.013,30.206,5.1,44.552a35.3,35.3,0,0,1,2.237,7.065,6,6,0,0,1-3.331,6.753A17.327,17.327,0,0,1,2050.015-1675.851Z" transform="translate(-123.321 -52.618)" fill="#e6a461"/>
      <path id="Trazado_624983" data-name="Trazado 624983" d="M1906.228-1794.944h-35.817c-2.164,0-3.013-1.222-2.284-3.271a1.217,1.217,0,0,1,1.148-.873c.373-.024.749-.012,1.123-.012q35.957,0,71.914-.03c2.331,0,2.574.61,2.306,3.137-.077.726-.656.988-1.311,1.033-.559.039-1.123.017-1.685.017Z" transform="translate(-16.771 -38.721)" fill="#e6a460"/>
      <path id="Trazado_624984" data-name="Trazado 624984" d="M1907.737-1819.291c.5.534,1.149.289,1.727.29q21.9.023,43.8.014c.406.775.21,1.661.457,2.468.123.4-.062.616-.492.611-.374,0-.748,0-1.122,0q-25.4,0-50.792-.024c-.526,0-1.6.432-1.522-.4.085-.86.342-2.139,1.776-2.14,1.076,0,2.151,0,3.227-.01A7.9,7.9,0,0,0,1907.737-1819.291Z" transform="translate(-36.703 -26.131)" fill="#728a94"/>
      <path id="Trazado_624985" data-name="Trazado 624985" d="M1918.856-1677.7c-.13-1.9.2-2.46,1.94-3.026,1.108-.359,2.249-.618,3.614-.986-1.253-.858-2.378-1.615-3.49-2.391-1.3-.91-1.625-2.01-.925-3.092.717-1.106,1.953-1.245,3.313-.366.612.4,1.221.8,1.967,1.284v-10.172a11.927,11.927,0,0,1-10.548-1.791,8.99,8.99,0,0,1-2.6-12.385,9.05,9.05,0,0,1,12.353-2.8c.234.136.417.4.8.3.025-.237.036-.515.085-.786a2.087,2.087,0,0,1,2.189-1.946,2.057,2.057,0,0,1,1.99,2.259c.025,3.543.008,7.087.008,10.808a14.461,14.461,0,0,1,3.685-1.631,9.048,9.048,0,0,1,10.026,4.706,8.9,8.9,0,0,1-2.118,10.86,11.821,11.821,0,0,1-10.858,2.7c-.216-.051-.432-.1-.662-.152-.021,1.42-.432,2.939.047,4.086.51,1.221,2.279.769,3.468,1.142a21.027,21.027,0,0,1,12.219,9.509,1.9,1.9,0,0,0,1.983,1.135,33.223,33.223,0,0,1,3.65-.006,2,2,0,0,1,2.128,1.962,2.059,2.059,0,0,1-1.919,2.193,8.574,8.574,0,0,1-1.261.042q-22.476,0-44.951,0c-.328,0-.657.018-.983-.01a2.2,2.2,0,0,1-2.215-2.236,2.111,2.111,0,0,1,2.3-1.958c1.263-.031,2.531-.061,3.792.01a1.454,1.454,0,0,0,1.541-.895,20.2,20.2,0,0,1,2.527-3.531,2.245,2.245,0,0,1,3.22-.564c1.332.934,1.436,1.8.418,3.309-.227.337-.727.633-.547,1.065.192.46.743.269,1.138.27q11.447.017,22.893,0c.312,0,.661.1,1.007-.278a15.7,15.7,0,0,0-9.122-5.777c-.986-.216-1.015.536-1.191,1.163a2.3,2.3,0,0,1-2.2,1.851,2.373,2.373,0,0,1-2.383-1.63,2.349,2.349,0,0,1-.18-.531c-.137-.8-.618-.95-1.333-.759a20.914,20.914,0,0,1-2.306.611A1.982,1.982,0,0,1,1918.856-1677.7Z" transform="translate(-37.957 -90.727)"/>
      <path id="Trazado_624986" data-name="Trazado 624986" d="M1941.725-1758.716q7.222,0,14.444,0c1.723,0,2.729.817,2.692,2.139-.036,1.286-1.007,2.068-2.651,2.07q-14.513.011-29.027,0c-1.738,0-2.687-.8-2.659-2.171.027-1.331.909-2.034,2.618-2.037Q1934.433-1758.725,1941.725-1758.716Z" transform="translate(-52.153 -63.961)"/>
      <path id="Trazado_624987" data-name="Trazado 624987" d="M1941.591-1564.267c-4.861,0-9.723.009-14.584,0-1.587,0-2.452-.743-2.482-2.036s.866-2.147,2.373-2.165c2.431-.028,4.861-.008,7.292-.008q10.938,0,21.875-.006a2.7,2.7,0,0,1,2.2.685,1.94,1.94,0,0,1,.431,2.2,2.007,2.007,0,0,1-1.958,1.324c-2.524.011-5.048.01-7.572.011S1944.115-1564.266,1941.591-1564.267Z" transform="translate(-52.153 -182.766)"/>
      <path id="Trazado_624988" data-name="Trazado 624988" d="M1939.168-1614.234a2.369,2.369,0,0,0,3.254.992,9.95,9.95,0,0,1,1.065-.344c1.765-.485,1.758-.479,2.253,1.262a2.008,2.008,0,0,0,2.147,1.646,1.863,1.863,0,0,0,1.935-1.991c-.064-1.422.56-1.335,1.608-1.084a16.846,16.846,0,0,1,9.913,6.681h-27.027c.845-1.605,3.108-2.814,1.175-4.885A26.845,26.845,0,0,0,1939.168-1614.234Z" transform="translate(-58.27 -154.196)" fill="#9c6a6a"/>
      <path id="Trazado_624989" data-name="Trazado 624989" d="M1953.017-1541.815c2.57,0,5.14-.012,7.709,0,1.727.01,2.582.7,2.6,2.052s-.885,2.147-2.532,2.152q-7.709.026-15.417,0c-1.6,0-2.59-.874-2.569-2.153s.994-2.042,2.64-2.052C1947.971-1541.826,1950.494-1541.815,1953.017-1541.815Z" transform="translate(-63.572 -199.422)" fill="#010000"/>
      <path id="Trazado_624990" data-name="Trazado 624990" d="M1978.6-1664.4a13.814,13.814,0,0,1,3.92-2.922c1.368-.688,1.818-1.844,1.234-2.978-.574-1.115-1.779-1.416-3.15-.778a22.271,22.271,0,0,0-4.753,3.322,8.274,8.274,0,0,1,2.4-5.778,4.755,4.755,0,0,1,6.6.114,4.792,4.792,0,0,1,.213,6.6A7.987,7.987,0,0,1,1978.6-1664.4Z" transform="translate(-84.208 -116.364)" fill="#77cfb0"/>
      <path id="Trazado_624991" data-name="Trazado 624991" d="M1944.372-1691.376a8.3,8.3,0,0,1-5.963-1.935,4.724,4.724,0,0,1-.427-6.872,4.743,4.743,0,0,1,6.987-.118,8.148,8.148,0,0,1,2.174,5.558,22.933,22.933,0,0,0-4.436-3.131,3.547,3.547,0,0,0-1.577-.525,2,2,0,0,0-2.055,1.579,1.9,1.9,0,0,0,1.058,2.345A14.024,14.024,0,0,1,1944.372-1691.376Z" transform="translate(-59.759 -99.521)" fill="#77cfb0"/>
    </g>
  </g>
</svg>
