<svg xmlns="http://www.w3.org/2000/svg" xmlns:xlink="http://www.w3.org/1999/xlink" width="145" height="147" viewBox="0 0 145 147">
  <defs>
    <clipPath id="clip-path">
      <ellipse id="Elipse_156" data-name="Elipse 156" cx="72.5" cy="73.5" rx="72.5" ry="73.5" transform="translate(0.499 -0.274)" fill="#fff" stroke="#707070" stroke-width="1"/>
    </clipPath>
  </defs>
  <g id="Grupo_894462" data-name="Grupo 894462" transform="translate(-0.499 0.274)">
    <g id="Enmascarar_grupo_16" data-name="Enmascarar grupo 16" transform="translate(0 0)" clip-path="url(#clip-path)">
      <rect id="_95da3c9cb84d7a8c336853e8faf60a4e" data-name="95da3c9cb84d7a8c336853e8faf60a4e" width="157.338" height="174.997" transform="translate(-11.837 -13.667)" fill="#f3f9ff"/>
    </g>
    <g id="Grupo_894654" data-name="Grupo 894654" transform="translate(-2454.668 2397.103)">
      <path id="Trazado_625083" data-name="Trazado 625083" d="M2535.811-2278h-16.289c-3.032-.711-4.535-2.618-4.546-5.785-.006-1.8.078-1.658-1.632-1.66-1.7,0-3.39-.008-5.085,0-.926.006-.993.086-1.013,1.034a12.992,12.992,0,0,1-.063,1.781c-.415,2.607-1.927,4.107-4.665,4.627H2486.23a4.862,4.862,0,0,1-3.27-1.8,5.144,5.144,0,0,1-1.116-3.408c.007-6.414.044-12.828-.013-19.242a5.4,5.4,0,0,1,5.3-5.511c1.8-.091,1.731-.111,2.343-1.856a12.719,12.719,0,0,1,9.329-8.561,23.344,23.344,0,0,1,5.969-.316,2.185,2.185,0,0,0,1.9-.893,16.231,16.231,0,0,1,13.339-6.284c1.581,0,3.162-.016,4.743.009.678.011.969-.229.967-.932-.016-4.415.025-8.831-.025-13.245a5.169,5.169,0,0,0-2.138-3.968,1.9,1.9,0,0,0-1.27-.331,23.48,23.48,0,0,1-3.747-.177,12.925,12.925,0,0,1-6.174-2.866,2.155,2.155,0,0,0-1.465-.54c-5.787,0-11.574.014-17.361-.011a1.668,1.668,0,0,0-1.528,1,5.605,5.605,0,0,1-9.458-.047,5.778,5.778,0,0,1,1.706-7.687,5.56,5.56,0,0,1,7.761,1.718,1.773,1.773,0,0,0,1.729.96c4.713-.029,9.426-.014,14.139-.015.936,0,.919,0,.635-.925a12.826,12.826,0,0,1-.7-3.859,2.106,2.106,0,0,1,2.315-2.357,31.125,31.125,0,0,1,5.534.189,12.87,12.87,0,0,1,10.3,10.178c.052.278.05.563.1.82a12.31,12.31,0,0,1,2.393-5.315,5.141,5.141,0,0,0,1-2.434c1.114-6.868,5.039-11.349,11.611-13.54a13.158,13.158,0,0,1,4.065-.486c1.312-.015,2.625-.009,3.938,0,1.466.007,2.135.639,2.178,2.114a15.777,15.777,0,0,1-.54,3.978c-.19.832-.159.894.668.9,3.55.009,7.1-.01,10.649.016.761.006,1.091-.42,1.447-.977a5.618,5.618,0,0,1,9.516.08,7.738,7.738,0,0,1,.573,2.033v1.969c-.366,3.91-5.345,5.907-8.7,3.443a5.124,5.124,0,0,1-1.525-1.729,1.317,1.317,0,0,0-1.3-.75q-6.349.015-12.7,0a1.66,1.66,0,0,0-1.437.719,16.291,16.291,0,0,1-10.054,6.17,18.776,18.776,0,0,1-4.541.264,1.879,1.879,0,0,0-1.834,1.006,10.552,10.552,0,0,0-1.687,5.484c-.036,2.5.12,5-.165,7.5-.035.243.079.51.04.564a3.71,3.71,0,0,1-.034-.518,9.882,9.882,0,0,1,2.7-6.373,12.631,12.631,0,0,1,10.349-4.572c.924.022,1.85-.025,2.773.015a2.089,2.089,0,0,1,2.22,2.27,11.523,11.523,0,0,1-.8,4.2c-.229.617-.061.7.507.693q3.713-.034,7.426,0a1.509,1.509,0,0,0,1.438-.833,5.505,5.505,0,0,1,6.579-2.435,5.592,5.592,0,0,1,3.825,5.647,5.5,5.5,0,0,1-4.764,5.171,5.2,5.2,0,0,1-5.471-2.428,2.072,2.072,0,0,0-2.035-1.072c-3.19.047-6.382.028-9.573.01a2.615,2.615,0,0,0-1.785.644,12.706,12.706,0,0,1-7.9,2.943c-.3.008-.6-.017-.895,0-.839.062-1.722-.212-2.47.472a5.377,5.377,0,0,0-1.927,3.428c-.112,1.038-.029,2.086-.039,3.13-.005.563.328.7.81.7,1.342,0,2.684.009,4.026,0a16.674,16.674,0,0,1,11.691,4.61,12.529,12.529,0,0,1,1.571,1.831,1.684,1.684,0,0,0,1.524.729c1.431-.025,2.863-.009,4.294-.008a12.809,12.809,0,0,1,12.547,9.685c.272,1.026.3,1.062,1.416,1.052a5.842,5.842,0,0,1,5.228,2.543,6.059,6.059,0,0,1,.673,2.184v2.864a1.793,1.793,0,0,1-1.986,1.47,2.1,2.1,0,0,1-1.859-2.258c-.13-2.492-.349-2.7-2.881-2.7q-6.083,0-12.167,0c-1.805,0-2.306.491-2.309,2.271q-.013,8.723,0,17.446c0,1.8.495,2.282,2.293,2.285q6.4.01,12.793,0c1.747,0,2.224-.488,2.263-2.231.039-1.766.428-2.337,1.85-2.721a1.794,1.794,0,0,1,2,1.47v3.043a4.825,4.825,0,0,1-4.475,4.3h-16.288c-3.032-.711-4.535-2.618-4.546-5.785-.006-1.8.078-1.658-1.632-1.66-1.7,0-3.39-.008-5.085,0-.925.006-.993.086-1.013,1.034a13.031,13.031,0,0,1-.063,1.781C2540.061-2280.024,2538.548-2278.524,2535.811-2278Z"/>
      <path id="Trazado_625084" data-name="Trazado 625084" d="M2853.51-2055.276v1.074a1.767,1.767,0,0,1-1.845,1.47c-1.285-.26-1.969-.979-1.949-2.045.02-1.039.682-1.713,1.932-1.971A1.77,1.77,0,0,1,2853.51-2055.276Z" transform="translate(-279.932 -238.123)" fill="#010101"/>
      <path id="Trazado_625085" data-name="Trazado 625085" d="M2598.108-2156.034c-2.84,0-5.613,0-8.385,0a5.381,5.381,0,0,0-5.707,5.717c0,1.641-.019,3.281.01,4.922.009.5-.121.656-.636.65q-3.489-.041-6.979,0c-.51.006-.649-.143-.641-.646.03-1.73.025-3.46.008-5.19a5.346,5.346,0,0,0-5.434-5.447q-7.114-.03-14.228,0a5.338,5.338,0,0,0-5.39,5.4q-.029,2.64.005,5.28c.006.458-.111.609-.59.6q-3.534-.037-7.069,0c-.473,0-.6-.137-.594-.6.025-1.73.022-3.46.007-5.19a5.359,5.359,0,0,0-5.479-5.494c-2.861-.017-5.723,0-8.592,0a8.808,8.808,0,0,1,8.656-7.151c7.278-.03,14.556-.009,21.834-.01.3,0,.6.017.894-.012a1.8,1.8,0,0,0,1.657-1.788,1.8,1.8,0,0,0-1.675-1.77c-.237-.022-.477-.01-.716-.01h-12.778a12.338,12.338,0,0,1,6.622-3.39,11.547,11.547,0,0,1,1.955-.18c5.25-.014,10.5-.04,15.749,0a12.206,12.206,0,0,1,8.4,3.42c-.267.254-.546.138-.792.139-2.476.011-4.951,0-7.427.008-1.371,0-2.19.7-2.17,1.82.019,1.083.829,1.757,2.144,1.758,6.234,0,12.468-.022,18.7.012A8.845,8.845,0,0,1,2598.108-2156.034Z" transform="translate(-35.496 -151.686)" fill="#fed98e"/>
      <path id="Trazado_625086" data-name="Trazado 625086" d="M2795.479-2082.411v4.422c-1.322.285-1.78.829-1.793,2.133,0,.357.012.716-.006,1.073a1.757,1.757,0,0,1-1.8,1.822q-7.151.03-14.3,0a1.726,1.726,0,0,1-1.782-1.835q-.022-9.431,0-18.863a1.741,1.741,0,0,1,1.872-1.837q7.062-.023,14.123,0a1.78,1.78,0,0,1,1.893,1.914c.009.3,0,.6,0,.894.008,1.4.437,1.927,1.793,2.224v4.422c-1.182.254-1.765.831-1.789,1.771C2793.666-2083.3,2794.27-2082.675,2795.479-2082.411Z" transform="translate(-223.687 -208.634)" fill="#d7eb83"/>
      <path id="Trazado_625087" data-name="Trazado 625087" d="M2636.622-2084.236q0-4.56,0-9.121c0-1.477.656-2.139,2.119-2.141q6.84-.009,13.68,0a1.831,1.831,0,0,1,2.095,2.076q.009,9.166,0,18.332c0,1.476-.659,2.141-2.12,2.143q-6.84.009-13.68,0a1.832,1.832,0,0,1-2.094-2.078C2636.616-2078.1,2636.622-2081.166,2636.622-2084.236Z" transform="translate(-117.815 -208.639)" fill="#fe9156"/>
      <path id="Trazado_625088" data-name="Trazado 625088" d="M2497.459-2084.26q0-4.516,0-9.033c0-1.58.634-2.2,2.237-2.2q6.707,0,13.414,0c1.643,0,2.246.615,2.246,2.284q0,8.988,0,17.976c0,1.7-.6,2.293-2.328,2.293q-6.617,0-13.235,0c-1.763,0-2.334-.583-2.335-2.375Q2497.457-2079.789,2497.459-2084.26Z" transform="translate(-11.944 -208.643)" fill="#b2f0fe"/>
      <path id="Trazado_625089" data-name="Trazado 625089" d="M2698.969-2343.808c-1.741.015-1.741.015-1.282-1.592a12.677,12.677,0,0,1,13.2-9.163c.534.037.474.267.415.615a12.643,12.643,0,0,1-9.344,9.774A12.426,12.426,0,0,1,2698.969-2343.808Z" transform="translate(-164.076 -11.528)" fill="#d7eb83"/>
      <path id="Trazado_625090" data-name="Trazado 625090" d="M2618.053-2302.383c-5.222.44-9.641-2.616-10.254-7.06C2612.965-2309.882,2616.984-2307.14,2618.053-2302.383Z" transform="translate(-95.889 -45.844)" fill="#d7eb83"/>
      <path id="Trazado_625091" data-name="Trazado 625091" d="M2697.533-2257.482c.714-4.51,5.075-7.517,10.235-7.058C2707.052-2260.023,2702.68-2257.008,2697.533-2257.482Z" transform="translate(-164.156 -80.005)" fill="#d7eb83"/>
      <path id="Trazado_625092" data-name="Trazado 625092" d="M2591.053-2048.735c1.19,0,2.38.016,3.569-.009.422-.009.615.114.549.548a.678.678,0,0,0,0,.089c-.016.948.324,2.188-.147,2.762-.491.6-1.781.163-2.719.181-1.576.03-3.153-.01-4.729.019-.5.009-.676-.126-.648-.64.051-.946-.314-2.187.157-2.762.491-.6,1.781-.135,2.719-.185C2590.219-2048.753,2590.637-2048.735,2591.053-2048.735Z" transform="translate(-79.944 -244.127)" fill="#c0afb4"/>
      <path id="Trazado_625093" data-name="Trazado 625093" d="M2730.2-2045.18c-1.19,0-2.38-.016-3.569.009-.423.009-.614-.117-.548-.549a.72.72,0,0,0,0-.089c.016-.948-.324-2.188.147-2.762.491-.6,1.781-.163,2.72-.181,1.576-.03,3.153.011,4.729-.019.5-.01.675.129.647.641-.051.946.314,2.188-.158,2.761-.491.6-1.781.135-2.72.185C2731.033-2045.162,2730.616-2045.18,2730.2-2045.18Z" transform="translate(-185.797 -244.101)" fill="#c0afb4"/>
      <path id="Trazado_625094" data-name="Trazado 625094" d="M2839.238-2337.588a1.805,1.805,0,0,1-1.872,1.742,1.807,1.807,0,0,1-1.7-1.828,1.8,1.8,0,0,1,1.872-1.741A1.806,1.806,0,0,1,2839.238-2337.588Z" transform="translate(-269.245 -23.076)" fill="#b2effd"/>
      <path id="Trazado_625095" data-name="Trazado 625095" d="M2501.053-2292.751a1.8,1.8,0,0,1-1.809,1.806,1.8,1.8,0,0,1-1.76-1.766,1.8,1.8,0,0,1,1.809-1.8A1.8,1.8,0,0,1,2501.053-2292.751Z" transform="translate(-11.964 -57.235)" fill="#b2effd"/>
      <path id="Trazado_625096" data-name="Trazado 625096" d="M2809.311-2247.849a1.8,1.8,0,0,1-1.816,1.8,1.8,1.8,0,0,1-1.754-1.772,1.8,1.8,0,0,1,1.815-1.8A1.8,1.8,0,0,1,2809.311-2247.849Z" transform="translate(-246.478 -91.391)" fill="#b2effd"/>
      <path id="Trazado_625097" data-name="Trazado 625097" d="M2681.494-2234.764a.14.14,0,0,0,.132,0,1.136,1.136,0,0,1-.066.768A1.135,1.135,0,0,1,2681.494-2234.764Z" transform="translate(-151.924 -102.693)" fill="#6f6f6f"/>
      <path id="Trazado_625098" data-name="Trazado 625098" d="M2794.318-2067.557c0,.745.03,1.309-.007,1.868a1.781,1.781,0,0,1-1.823,1.711,1.739,1.739,0,0,1-1.727-1.711q-.043-5.457,0-10.914a1.73,1.73,0,0,1,1.749-1.685,1.783,1.783,0,0,1,1.8,1.735c.033.555.006,1.113.006,1.841,1.43-1.072,2.735-2.043,4.031-3.024a1.981,1.981,0,0,1,1.732-.51,1.741,1.741,0,0,1,1.359,1.393,1.719,1.719,0,0,1-.716,1.807c-1.519,1.153-3.031,2.317-4.582,3.426-.572.409-.5.613.019.988,1.475,1.062,2.921,2.164,4.368,3.265a1.806,1.806,0,0,1,.566,2.7,1.8,1.8,0,0,1-2.692.174C2797.089-2065.465,2795.787-2066.454,2794.318-2067.557Z" transform="translate(-235.065 -221.729)"/>
      <path id="Trazado_625099" data-name="Trazado 625099" d="M2651.576-2071.236c0-1.638-.005-3.277,0-4.915.006-1.481.653-2.142,2.106-2.152,1.1-.008,2.2-.017,3.306,0a5.369,5.369,0,0,1,5.323,5.371,5.4,5.4,0,0,1-5.337,5.369c-.585.015-1.353-.27-1.7.136-.286.332-.09,1.073-.122,1.632a1.8,1.8,0,0,1-1.827,1.8,1.766,1.766,0,0,1-1.737-1.794c-.03-1.816-.008-3.634-.008-5.451Z" transform="translate(-129.19 -221.717)"/>
      <path id="Trazado_625100" data-name="Trazado 625100" d="M2516-2070.33c0,1.42.007,2.84,0,4.26-.008,1.276-.738,2.1-1.822,2.079a1.826,1.826,0,0,1-1.753-2.057q-.011-5.1,0-10.2a1.85,1.85,0,0,1,1.311-1.993,1.838,1.838,0,0,1,2.11.955c1.2,1.778,2.382,3.565,3.736,5.594v-3.01c0-.566-.012-1.134,0-1.7a1.8,1.8,0,0,1,1.82-1.9,1.782,1.782,0,0,1,1.749,1.877c.021,2.028.007,4.056.007,6.084,0,1.461.009,2.923,0,4.384a1.8,1.8,0,0,1-1.317,1.9,1.778,1.778,0,0,1-2.058-.875q-1.807-2.715-3.619-5.426Z" transform="translate(-23.324 -221.714)"/>
      <path id="Trazado_625101" data-name="Trazado 625101" d="M2667.73-2063.272a5.916,5.916,0,0,1,.888.007,1.793,1.793,0,0,1,1.51,1.726,1.812,1.812,0,0,1-1.53,1.8c-1.864.315-2.044.166-2.044-1.691v-.712C2666.555-2063.3,2666.555-2063.3,2667.73-2063.272Z" transform="translate(-140.589 -233.148)" fill="#fe9156"/>
    </g>
  </g>
</svg>
