<svg xmlns="http://www.w3.org/2000/svg" xmlns:xlink="http://www.w3.org/1999/xlink" width="146" height="147" viewBox="0 0 146 147">
  <defs>
    <clipPath id="clip-path">
      <ellipse id="Elipse_156" data-name="Elipse 156" cx="73" cy="73.5" rx="73" ry="73.5" transform="translate(-0.084 -0.274)" fill="#fff" stroke="#707070" stroke-width="1"/>
    </clipPath>
  </defs>
  <g id="Grupo_894478" data-name="Grupo 894478" transform="translate(0.084 0.274)">
    <g id="Enmascarar_grupo_16" data-name="Enmascarar grupo 16" transform="translate(0 0)" clip-path="url(#clip-path)">
      <rect id="_95da3c9cb84d7a8c336853e8faf60a4e" data-name="95da3c9cb84d7a8c336853e8faf60a4e" width="157.338" height="174.997" transform="translate(-11.425 -13.667)" fill="#f3f9ff"/>
    </g>
    <g id="Grupo_894659" data-name="Grupo 894659" transform="translate(-1378.279 2749.913)">
      <path id="Trazado_625178" data-name="Trazado 625178" d="M1439.425-2736.537a10.658,10.658,0,0,1,4.839,3.146,5.349,5.349,0,0,0,4.811,1.576,12.607,12.607,0,0,1,3.356-.233,6.556,6.556,0,0,1,4.866,9.543c-1.413,2.9-2.939,5.745-4.413,8.615-.125.243-.241.49-.365.742,4.159,1.185,5.795,2.957,5.728,6.169-.057,2.742-1.891,4.856-4.894,5.6a2.451,2.451,0,0,0,.725,1.216,109.387,109.387,0,0,0,8.145,8.842,91.027,91.027,0,0,1,8.049,9.2,1.33,1.33,0,0,0,1.245.57c2.075-.027,4.151-.018,6.226-.008,1.32.006,1.726.335,2.066,1.615a1.5,1.5,0,0,1-1.249,1.739,6.144,6.144,0,0,1-1.367.075q-7.864,0-15.728,0a6.592,6.592,0,0,0-1.988.192c-.994.309-1.258.913-.814,1.86a4.307,4.307,0,0,0,1.207,1.451,4.445,4.445,0,0,1,1.441,5.289,52.818,52.818,0,0,0-2.293,12.319,42.484,42.484,0,0,0,.786,10.284,53.35,53.35,0,0,0,1.64,6.656,4.2,4.2,0,0,1-1.486,4.715,5.351,5.351,0,0,0-1.143,1.231c-.739,1.227-.362,2.036,1.046,2.226a11.03,11.03,0,0,0,1.476.042h33.883c.387,0,.774-.018,1.16.013,1.2-.007,2.393.024,3.589-.015.645-.021,1.313-.108,1.614-.784s-.088-1.221-.464-1.744a4.288,4.288,0,0,0-.794-.844,4.5,4.5,0,0,1-1.5-5.383,53.537,53.537,0,0,0,2.049-9.8,40.656,40.656,0,0,0-.456-12.276,55.335,55.335,0,0,0-1.672-6.978,4.234,4.234,0,0,1,1.482-4.9,3.915,3.915,0,0,0,1.332-1.735,1.119,1.119,0,0,0-.807-1.637,5.958,5.958,0,0,0-1.881-.2c-4.223-.033-8.447.017-12.67-.032-1.143-.383-1.448-.775-1.375-1.767.387-1.3.771-1.613,2.077-1.615q6.484-.011,12.969,0a5.49,5.49,0,0,1,4.207,1.594,3.694,3.694,0,0,1,1.082,2.339,6.279,6.279,0,0,1,.069,1.432,4.774,4.774,0,0,1-1.894,3.833,2.244,2.244,0,0,0-.68,2.689,55.44,55.44,0,0,1,2.166,12.32,50.858,50.858,0,0,1-2.258,17.346,1.9,1.9,0,0,0,.646,2.285,5.248,5.248,0,0,1,2.02,3.906q0,.825,0,1.649a3.96,3.96,0,0,1-3.578,3.775,13.652,13.652,0,0,1-1.787.114c-27.916,0-55.832-.053-83.748.035-6.076.02-10.458-2.7-13.687-7.507s-4.648-10.3-5.127-16.025a49.272,49.272,0,0,1,.211-11.777,42.6,42.6,0,0,1,9.42-20.253,1.932,1.932,0,0,1,2.472-.831c1.314.97,1.488,1.77.49,3.111a59.535,59.535,0,0,0-4.733,7.115,35.747,35.747,0,0,0-4.352,15.083,43.047,43.047,0,0,0,2.2,16.308,18.666,18.666,0,0,0,4.721,7.778,11.62,11.62,0,0,0,8.2,3.377c12.464.051,24.927.021,37.391.02,1.2,0,1.176-.01,1.272-1.185a6.016,6.016,0,0,1,1.916-4.23,2.674,2.674,0,0,0,.83-3.507,31.189,31.189,0,0,1-1.006-3.856,8.812,8.812,0,0,0-1.478,1.127,25.309,25.309,0,0,1-14.971,6.123,24.822,24.822,0,0,1-19.6-7.191,24.529,24.529,0,0,1-7.572-15.642,24.938,24.938,0,0,1,5.673-18.891,24.432,24.432,0,0,1,16.056-9.1,24.8,24.8,0,0,1,21.354,6.8c.306.289.595.67,1.084.388a9.121,9.121,0,0,1,5.024-.889c1.335.028,2.672.016,4.13.014a16.1,16.1,0,0,0-2.119-2.606c-1.533-1.742-3.171-3.388-4.779-5.061-2.459-2.559-5-5.047-7.226-7.823a29.628,29.628,0,0,1-2.021-2.834,1.559,1.559,0,0,0-1.49-.792c-1.2.029-2.392-.007-3.59.026-5.48,0-10.959.023-16.438-.014a2.26,2.26,0,0,0-2.164,1.147,41.176,41.176,0,0,1-5.2,6.342c-1.8,1.875-3.542,3.8-5.415,5.6a2.166,2.166,0,0,1-2.758.553,1.944,1.944,0,0,1,.027-3.045c2.508-2.662,5.109-5.236,7.546-7.966.516-.579,1-1.187,1.47-1.8.729-.941.719-.954-.374-1.441a6.079,6.079,0,0,1-2.248-9.535,5.839,5.839,0,0,1,3.3-1.959c.747-.16.833-.466.47-1.091-1.451-2.5-2.587-5.157-3.988-7.683a6.936,6.936,0,0,1-.317-6.592,6.308,6.308,0,0,1,7.142-3.795,6.855,6.855,0,0,0,7.1-2.317,5.61,5.61,0,0,1,3.932-1.973Z"/>
      <path id="Trazado_625179" data-name="Trazado 625179" d="M1779.906-2372.932a.237.237,0,0,0,.194.011v1.69l-.085.037-.091-.016Q1779.915-2372.07,1779.906-2372.932Z" transform="translate(-274.762 -260.948)" fill="#959595"/>
      <path id="Trazado_625180" data-name="Trazado 625180" d="M1780.115-2526.369a.621.621,0,0,0-.187.016l.01-1.517a.28.28,0,0,1,.178.022Z" transform="translate(-274.778 -149.75)" fill="#909090"/>
      <path id="Trazado_625181" data-name="Trazado 625181" d="M1651.484-2487.717c-4.153.012-8.307.031-12.46.033q-11.406.009-22.813,0c-.211,0-.422.005-.634,0-.911-.027-1.962.1-2.386-.934-.442-1.073.314-1.861.981-2.594.282-.311.63-.561.94-.848a3.482,3.482,0,0,0,1.131-3.717,82.985,82.985,0,0,1-1.969-8.405,45.983,45.983,0,0,1,1.624-20.95,8.849,8.849,0,0,0,.491-2.259,3.638,3.638,0,0,0-1.457-2.913,5.038,5.038,0,0,1-1.749-2.2,1.286,1.286,0,0,1,.963-1.858,7.194,7.194,0,0,1,1.673-.162c5.633-.011,11.266,0,16.9-.009,1.4,0,1.733-.256,2.112-1.549h5.016a1.836,1.836,0,0,0,1.3,1.548c3.125.134,6.251.024,9.377.057,1.254.013,1.475.223,1.468,1.452a4.532,4.532,0,0,1-1.935,3.7,2.759,2.759,0,0,0-.956,3.44,48.848,48.848,0,0,1,2.227,17.894,46.925,46.925,0,0,1-1.942,10.77c-.145.47-.278.944-.409,1.418a2.389,2.389,0,0,0,.858,2.726,5.725,5.725,0,0,1,1.919,2.6A2.468,2.468,0,0,1,1651.484-2487.717Z" transform="translate(-155.022 -143.863)" fill="#fedf7c"/>
      <path id="Trazado_625182" data-name="Trazado 625182" d="M1418-2594.79c.789-.191,1.117-.909,1.6-1.435a10.932,10.932,0,0,1,1.77-1.773,1.955,1.955,0,0,0,2.541-.514c3.158-3.358,6.556-6.495,9.371-10.167.619-.808,1.177-1.666,1.719-2.528a.957.957,0,0,1,.915-.54q8.765.044,17.53.057c1.149.957,1.8,2.316,2.79,3.413,1.691,1.881,3.355,3.784,5.167,5.55a118.712,118.712,0,0,1,8.142,8.823c.445.531,1.145.985,1.02,1.855-1.462.124-3.03-.212-4.346.565-1.016.6-1.532.35-2.35-.381-7.289-6.506-15.741-8.5-24.995-5.461-9.551,3.132-15.37,9.942-17.115,19.865a25.181,25.181,0,0,0,22.018,29.3,24.911,24.911,0,0,0,20.5-6.938c.2-.188.324-.459.6-.639.624,2.2,1.167,4.314,1.806,6.4.162.529-.321.738-.624,1a7.022,7.022,0,0,0-2.566,4.123,4.274,4.274,0,0,0-.091.836c.009.444.063.886.1,1.329-.524.022-1.048.064-1.572.064-11.971,0-23.943-.109-35.911.047-6.509.085-10.786-2.936-13.555-8.546a37.7,37.7,0,0,1-3.386-13.736c-.869-10.272,2.349-19.255,8.649-27.257.174-.221.348-.443.514-.67C1419.053-2593.256,1419-2593.823,1418-2594.79Z" transform="translate(-8.532 -89.559)" fill="#a6e8a5"/>
      <path id="Trazado_625183" data-name="Trazado 625183" d="M1487.358-2509.853a20.676,20.676,0,0,1-12.731-3.241,22.164,22.164,0,0,1-10.045-23.263,22.275,22.275,0,0,1,18.047-17.41,12.593,12.593,0,0,1,3.46-.242,2.545,2.545,0,0,1,1.02.882,35.456,35.456,0,0,1,6.3,14.58,1.352,1.352,0,0,1-.1,1.119.828.828,0,0,1-.54.305,9.937,9.937,0,0,0-4.369,1.425c-.7.411-1.005.156-1.12-.775a8.256,8.256,0,0,0-4.214-6.451,8.867,8.867,0,0,0-3.732-1.03c-1.329-.129-2.655-.281-3.984-.417a2.392,2.392,0,0,0-2.868,2.366,35.456,35.456,0,0,0,.008,5.376,8.285,8.285,0,0,0,7.664,7.681c1.082.116,2.172.165,3.247.358,1.144.206,1.275.314,1.284,1.5.021,2.743.005,5.486.008,8.229a6.223,6.223,0,0,0,.073,1.261c.151.732.538,1.249,1.343,1.228.855-.022,1.109-.624,1.142-1.365.039-.879.011-1.758.021-2.637.01-.843.4-1.353,1.251-1.383a25.641,25.641,0,0,1,3.361-.238c.794.034,1.057.459.853,1.2a34.2,34.2,0,0,1-4.667,10.334A3.915,3.915,0,0,1,1487.358-2509.853Z" transform="translate(-48.143 -130.964)" fill="#f8f5f5"/>
      <path id="Trazado_625184" data-name="Trazado 625184" d="M1543.166-2509.751a35.354,35.354,0,0,0,5.115-10.992c.155-.572.14-.872-.517-.889.137-.506.589-.422.946-.488a8.238,8.238,0,0,0,6.654-7.228,44.1,44.1,0,0,0,.187-4.52,6.658,6.658,0,0,0-.253-1.873,2.047,2.047,0,0,0-1.971-1.607,11.052,11.052,0,0,0-2.416.1,2.241,2.241,0,0,1-1.828-.174,34.22,34.22,0,0,0-2.818-9.432,32.2,32.2,0,0,0-4.368-7.05,21.581,21.581,0,0,1,16.585,7.17,1.039,1.039,0,0,1,.344.731,6.231,6.231,0,0,0,2.529,4.884,1.563,1.563,0,0,1,.545,1.981,51.512,51.512,0,0,0-2.444,15.863c.01,1.4.158,2.807.28,4.207a1.2,1.2,0,0,1-.222.974A21.617,21.617,0,0,1,1543.166-2509.751Z" transform="translate(-103.951 -131.066)" fill="#dcd9eb"/>
      <path id="Trazado_625185" data-name="Trazado 625185" d="M1506.338-2705.074c-.245.019-.489.044-.734.055-.207.009-.414,0-.624,0-.172-.432.1-.714.215-1.013,1.1-2.773,2.223-5.537,3.313-8.313a1.549,1.549,0,0,0-.808-2.191,1.565,1.565,0,0,0-2.112,1c-.1.223-.189.453-.281.681-1.177,2.931-2.393,5.847-3.506,8.8a1.417,1.417,0,0,1-1.6,1.062,1.353,1.353,0,0,1-1.529-1.015c-1.191-3.15-2.491-6.26-3.743-9.387-.353-.881-.928-1.433-1.93-1.232a1.576,1.576,0,0,0-1.033,2.325c1.077,2.744,2.185,5.476,3.273,8.216a1.683,1.683,0,0,1,.267,1.061c-1.854,0-3.715-.009-5.576.007-.4,0-.543-.224-.695-.521-1.758-3.438-3.538-6.866-5.277-10.314a3.532,3.532,0,0,1,.344-3.883,3.133,3.133,0,0,1,3.413-1.085c3.577.7,6.7-.035,9.2-2.825a7.7,7.7,0,0,1,.927-.861,3.711,3.711,0,0,1,4.759,0,8.124,8.124,0,0,1,.929.859,9.04,9.04,0,0,0,7,3.121c1.3-.139,1.506.031,1.587,1.257a6.351,6.351,0,0,1-.518,3.188c-1.633,3.458-3.171,6.96-4.835,10.4A2.23,2.23,0,0,1,1506.338-2705.074Z" transform="translate(-62.063 -8.018)" fill="#a6e8a5"/>
      <path id="Trazado_625186" data-name="Trazado 625186" d="M1722.884-2483.784a4.32,4.32,0,0,0-1.651-4.921,2.725,2.725,0,0,1-1.135-3.3,50.452,50.452,0,0,0,2.1-9.727,45.091,45.091,0,0,0,.093-9.555,54.058,54.058,0,0,0-2.272-11.188,2.319,2.319,0,0,1,1.025-2.928,4.686,4.686,0,0,0,2.073-3.937c-.016-.824-.284-1.111-1.111-1.1-2.78.037-5.562.019-8.343.008-.374,0-.779.126-1.117-.162,4.471,0,8.942-.008,13.412.009.9,0,1.97-.105,2.4.917a2.155,2.155,0,0,1-.974,2.582c-2.407,1.728-2.4,3.825-1.6,6.427a45.391,45.391,0,0,1-.195,27.719c-.7,2.217-.438,4,1.512,5.4a1.124,1.124,0,0,1,.158.14c.712.748,1.521,1.543,1.117,2.659-.42,1.161-1.572.981-2.543.992S1723.869-2483.772,1722.884-2483.784Z" transform="translate(-226.421 -147.796)" fill="#fecf64"/>
      <path id="Trazado_625187" data-name="Trazado 625187" d="M1484.848-2636.725a2.486,2.486,0,0,1-2.091-2.606,2.475,2.475,0,0,1,2.1-2.494,2.623,2.623,0,0,1,1.145-.085q11.818-.008,23.636,0c1.573,0,1.923.3,2.269,1.855a4.033,4.033,0,0,1-.381,2.662,1.188,1.188,0,0,1-1.154.76c-8.441-.01-16.883.009-25.324-.015A.6.6,0,0,1,1484.848-2636.725Z" transform="translate(-61.507 -67.896)" fill="#365e7c"/>
      <path id="Trazado_625188" data-name="Trazado 625188" d="M1583.706-2592.038a31.513,31.513,0,0,0-3.894-4.812c-2.374-2.737-5.066-5.178-7.538-7.822a38.036,38.036,0,0,1-5.687-7.006c1.37-.016,2.741-.023,4.111-.052a.772.772,0,0,1,.759.435c2.208,3.733,5.294,6.729,8.274,9.811,2.762,2.857,5.562,5.677,8.074,8.764.148.182.29.368.537.682Z" transform="translate(-121.67 -89.57)" fill="#7edaad"/>
      <path id="Trazado_625189" data-name="Trazado 625189" d="M1564.313-2693.75a20.8,20.8,0,0,1,1.695-3.941c1.01-2.35,2.152-4.644,3.232-6.965a7.261,7.261,0,0,0,.6-3.169c0-.97-.32-1.465-1.333-1.37.763-.106,1.528-.2,2.289-.318a3.2,3.2,0,0,1,3.254,1.006,3.4,3.4,0,0,1,.512,3.765c-1.75,3.558-3.6,7.069-5.395,10.6a.723.723,0,0,1-.742.45C1567.052-2693.721,1565.683-2693.732,1564.313-2693.75Z" transform="translate(-120.038 -19.343)" fill="#7edaad"/>
      <path id="Trazado_625190" data-name="Trazado 625190" d="M1490.165-2636.948l24.394-.019a2.3,2.3,0,0,0,2.4-3.05,7.917,7.917,0,0,0-.2-.815,1.519,1.519,0,0,0-1.661-1.227c-8.307.043-16.615.017-24.922.011.3-.261.667-.183,1.011-.183q13.731,0,27.461.012c1.977,0,3.177.969,3.246,2.566.074,1.709-1.094,2.842-3.042,2.873-2.217.035-4.436.019-6.654.02q-10.35,0-20.7-.005C1491.048-2636.766,1490.573-2636.638,1490.165-2636.948Z" transform="translate(-66.824 -67.673)" fill="#2b4c65"/>
      <path id="Trazado_625191" data-name="Trazado 625191" d="M1655.884-2474.26c2.656-1.961,5.71-1.627,8.606-1.966a2.245,2.245,0,0,1,2.552,2.23,29.78,29.78,0,0,1-.087,6.218,7.973,7.973,0,0,1-7.333,6.495c-1.016.094-2.03.224-3.048.266-.915.038-.673.668-.734,1.2-.081.707.338.7.838.693,2.358-.012,4.716-.008,7.074,0a1.6,1.6,0,0,1,1.644,1.08,1.482,1.482,0,0,1-.469,1.712,1.621,1.621,0,0,1-1.173.375q-9.45-.006-18.9-.007a1.541,1.541,0,0,1-1.758-1.532c-.018-.976.651-1.615,1.795-1.625,2.323-.021,4.646-.028,6.969.007.625.01.853-.12.839-.8-.047-2.181-.031-4.364-.007-6.545.006-.517-.116-.74-.679-.774-1.087-.067-2.167-.24-3.252-.339a7.974,7.974,0,0,1-7.283-7.588c-.067-1.581-.05-3.168-.009-4.75a2.454,2.454,0,0,1,2.9-2.553c1.4.128,2.805.238,4.2.427C1652.853-2481.463,1655.452-2478.749,1655.884-2474.26Z" transform="translate(-175.382 -182.323)"/>
      <path id="Trazado_625192" data-name="Trazado 625192" d="M1513.658-2513.757c1.226-.1,2.451-.2,3.678-.282a2.485,2.485,0,0,1,2.957,2.627c.052,1.723.07,3.452-.016,5.173a8.416,8.416,0,0,1-7.542,8.145,2.357,2.357,0,0,0-.4.13c-1.191.094-2.38.2-3.572.274-.562.033-.8.238-.771.841.049.912.023,1.829.01,2.743-.018,1.27-.573,1.921-1.6,1.9-1-.017-1.559-.694-1.564-1.965-.012-3.061-.031-6.121.014-9.181.012-.8-.1-1.187-1.038-1.2-1.26-.019-2.518-.23-3.776-.369a8.583,8.583,0,0,1-7.462-8.152c-.069-1.721-.051-3.448-.01-5.17a2.566,2.566,0,0,1,2.949-2.675c1.645.148,3.291.306,4.927.531a8.44,8.44,0,0,1,7.551,8.134c.007.1.033.2.088.515A10,10,0,0,1,1513.658-2513.757Z" transform="translate(-68.525 -154.734)"/>
      <path id="Trazado_625193" data-name="Trazado 625193" d="M1696.112-2441.108c.429-.508.87-1.006,1.283-1.526a1.561,1.561,0,0,0-.091-2.261,1.537,1.537,0,0,0-2.254.166c-.775.794-1.5,1.635-2.3,2.513-.54-3.4,1.376-5.829,4.679-6.071a14.03,14.03,0,0,1,2.516-.193,6.935,6.935,0,0,1-.922,5.558,5.541,5.541,0,0,1-1.846,1.681C1696.845-2441.054,1696.508-2440.81,1696.112-2441.108Z" transform="translate(-212.145 -206.714)" fill="#a6e8a5"/>
      <path id="Trazado_625194" data-name="Trazado 625194" d="M1655.781-2470.492c.525.028,1.053.029,1.575.087,3.377.373,5.046,2.481,4.678,6.092-.771-.842-1.458-1.61-2.164-2.358a1.614,1.614,0,0,0-2.4-.324,1.655,1.655,0,0,0,.043,2.432q.476.559.954,1.115c-.323.614-.72.187-1.018.019a5.441,5.441,0,0,1-2.606-3.538,9.365,9.365,0,0,1-.249-2.606C1654.611-2470.4,1654.952-2470.746,1655.781-2470.492Z" transform="translate(-184.825 -190.874)" fill="#a6e8a5"/>
      <path id="Trazado_625195" data-name="Trazado 625195" d="M1702.1-2441.32a5.24,5.24,0,0,0,3.633-4.656c.03-.907.127-1.812.193-2.717.514-.216.789-.121.769.513-.038,1.188.038,2.385-.068,3.566-.246,2.756-2.576,4.58-5.633,4.263Z" transform="translate(-218.127 -206.502)" fill="#7dd8ab"/>
      <path id="Trazado_625196" data-name="Trazado 625196" d="M1654.35-2470.8c-.644-.034-.908.2-.915.913-.02,2.4.474,4.53,2.683,5.892.269.166.513.538.915.239a5.174,5.174,0,0,1,1.166,1.361,5.629,5.629,0,0,1-4.025-1.369,4.853,4.853,0,0,1-1.536-3.463c-.02-.877.076-1.764-.026-2.631-.124-1.062.35-1.271,1.238-1.087C1654.02-2470.913,1654.184-2470.852,1654.35-2470.8Z" transform="translate(-183.394 -190.563)" fill="#7ed8ac"/>
      <path id="Trazado_625197" data-name="Trazado 625197" d="M1506.609-2508.959a22.262,22.262,0,0,1,4.079.429,5.319,5.319,0,0,1,3.966,4.665c.046.719.007,1.443.007,2.4-1-1.094-1.832-2.022-2.683-2.933s-1.738-1.021-2.473-.323c-.695.659-.652,1.545.115,2.429q.655.755,1.307,1.513c-.42.352-.806.083-1.163-.1a6.362,6.362,0,0,1-3.427-5.745A3.318,3.318,0,0,1,1506.609-2508.959Z" transform="translate(-78.372 -163.326)" fill="#a6e8a5"/>
      <path id="Trazado_625198" data-name="Trazado 625198" d="M1551.065-2476.24c.523-.611,1.059-1.212,1.565-1.836a1.613,1.613,0,0,0-.064-2.271,1.589,1.589,0,0,0-2.263.157c-.938.976-1.833,1.994-2.8,3.051-.651-4.073,1.309-6.681,5.294-7.173.764-.094,1.536-.124,2.3-.183.411-.043.451.282.48.542.3,2.693-.017,5.2-2.387,6.962C1552.583-2476.534,1551.988-2475.881,1551.065-2476.24Z" transform="translate(-107.887 -180.88)" fill="#a6e8a5"/>
      <path id="Trazado_625199" data-name="Trazado 625199" d="M1557.256-2476.673c3.907-1.231,4.9-4.742,4.037-8.254,1.407-.319,1.408-.319,1.409,1.043,0,.806,0,1.613,0,2.419-.016,3.976-2.475,6.262-6.693,5.829Z" transform="translate(-114.078 -180.448)" fill="#7ed9ac"/>
      <path id="Trazado_625200" data-name="Trazado 625200" d="M1504.818-2509.208a20.167,20.167,0,0,0,.195,3.764,5.667,5.667,0,0,0,4.123,4.421l1.335,1.4c-4.277.175-6.684-2.093-6.686-6.166,0-.84.051-1.684-.014-2.519C1503.7-2509.159,1503.97-2509.488,1504.818-2509.208Z" transform="translate(-76.582 -163.077)" fill="#7ed9ac"/>
    </g>
  </g>
</svg>
